Ortica Linear-Light.ufo
<glyph name="exclam" format="2">
  <advance width="293"/>
  <unicode hex="0021"/>
  <outline>
    <contour>
      <point x="132" y="164" type="line"/>
      <point x="101" y="700" type="line"/>
      <point x="186" y="700" type="line"/>
      <point x="154" y="164" type="line"/>
    </contour>
    <component base="period" xOffset="35"/>
  </outline>
</glyph>
<glyph name="numbersign" format="2">
  <advance width="743"/>
  <unicode hex="0023"/>
  <outline>
    <contour>
      <point x="335" y="700" type="line"/>
      <point x="145" y="0" type="line"/>
      <point x="180" y="0" type="line"/>
      <point x="370" y="700" type="line"/>
    </contour>
    <contour>
      <point x="72" y="441" type="line"/>
      <point x="694" y="441" type="line"/>
      <point x="703" y="474" type="line"/>
      <point x="81" y="474" type="line"/>
    </contour>
    <contour>
      <point x="40" y="209" type="line"/>
      <point x="655" y="210" type="line"/>
      <point x="665" y="243" type="line"/>
      <point x="49" y="242" type="line"/>
    </contour>
    <contour>
      <point x="568" y="700" type="line"/>
      <point x="385" y="0" type="line"/>
      <point x="420" y="0" type="line"/>
      <point x="603" y="700" type="line"/>
    </contour>
  </outline>
</glyph>
<glyph name="dollar" format="2">
  <advance width="524"/>
  <unicode hex="0024"/>
  <outline>
    <contour>
      <point x="245" y="760" type="line"/>
      <point x="245" y="-74" type="line"/>
      <point x="278" y="-74" type="line"/>
      <point x="278" y="760" type="line"/>
    </contour>
    <contour>
      <point x="463" y="634" type="line"/>
      <point x="449" y="644"/>
      <point x="351" y="694"/>
      <point x="255" y="694" type="curve" smooth="yes"/>
      <point x="131" y="694"/>
      <point x="36" y="636"/>
      <point x="36" y="531" type="curve" smooth="yes"/>
      <point x="36" y="445"/>
      <point x="100" y="392"/>
      <point x="173" y="359" type="curve" smooth="yes"/>
      <point x="309" y="298" type="line" smooth="yes"/>
      <point x="382" y="265"/>
      <point x="408" y="227"/>
      <point x="408" y="180" type="curve" smooth="yes"/>
      <point x="408" y="103"/>
      <point x="364" y="35"/>
      <point x="266" y="33" type="curve" smooth="yes"/>
      <point x="142" y="30"/>
      <point x="71" y="123"/>
      <point x="68" y="257" type="curve"/>
      <point x="52" y="257" type="line"/>
      <point x="33" y="89" type="line"/>
      <point x="64" y="66"/>
      <point x="147" y="6"/>
      <point x="253" y="6" type="curve" smooth="yes"/>
      <point x="402" y="6"/>
      <point x="481" y="102"/>
      <point x="481" y="202" type="curve" smooth="yes"/>
      <point x="481" y="269"/>
      <point x="445" y="319"/>
      <point x="359" y="358" type="curve" smooth="yes"/>
      <point x="219" y="422" type="line" smooth="yes"/>
      <point x="154" y="452"/>
      <point x="110" y="488"/>
      <point x="110" y="556" type="curve" smooth="yes"/>
      <point x="110" y="622"/>
      <point x="164" y="668"/>
      <point x="239" y="668" type="curve" smooth="yes"/>
      <point x="362" y="668"/>
      <point x="422" y="582"/>
      <point x="420" y="470" type="curve"/>
      <point x="435" y="470" type="line"/>
    </contour>
  </outline>
</glyph>
<glyph name="percent" format="2">
  <advance width="688"/>
  <unicode hex="0025"/>
  <outline>
    <contour>
      <point x="76" y="0" type="line"/>
      <point x="128" y="0" type="line"/>
      <point x="623" y="700" type="line"/>
      <point x="571" y="700" type="line"/>
    </contour>
    <contour>
      <point x="293" y="552" type="curve" smooth="yes"/>
      <point x="293" y="478"/>
      <point x="239" y="403"/>
      <point x="164" y="403" type="curve" smooth="yes"/>
      <point x="90" y="403"/>
      <point x="35" y="480"/>
      <point x="35" y="552" type="curve" smooth="yes"/>
      <point x="35" y="625"/>
      <point x="90" y="702"/>
      <point x="164" y="702" type="curve" smooth="yes"/>
      <point x="239" y="702"/>
      <point x="293" y="623"/>
    </contour>
    <contour>
      <point x="164" y="672" type="curve" smooth="yes"/>
      <point x="115" y="672"/>
      <point x="87" y="617"/>
      <point x="87" y="552" type="curve" smooth="yes"/>
      <point x="87" y="499"/>
      <point x="115" y="433"/>
      <point x="164" y="433" type="curve" smooth="yes"/>
      <point x="216" y="433"/>
      <point x="241" y="484"/>
      <point x="241" y="552" type="curve" smooth="yes"/>
      <point x="241" y="605"/>
      <point x="216" y="672"/>
    </contour>
    <contour>
      <point x="653" y="149" type="curve" smooth="yes"/>
      <point x="653" y="75"/>
      <point x="599" y="0"/>
      <point x="524" y="0" type="curve" smooth="yes"/>
      <point x="450" y="0"/>
      <point x="395" y="77"/>
      <point x="395" y="149" type="curve" smooth="yes"/>
      <point x="395" y="222"/>
      <point x="450" y="299"/>
      <point x="524" y="299" type="curve" smooth="yes"/>
      <point x="599" y="299"/>
      <point x="653" y="220"/>
    </contour>
    <contour>
      <point x="524" y="269" type="curve" smooth="yes"/>
      <point x="475" y="269"/>
      <point x="447" y="214"/>
      <point x="447" y="149" type="curve" smooth="yes"/>
      <point x="447" y="96"/>
      <point x="475" y="30"/>
      <point x="524" y="30" type="curve" smooth="yes"/>
      <point x="576" y="30"/>
      <point x="601" y="81"/>
      <point x="601" y="149" type="curve" smooth="yes"/>
      <point x="601" y="202"/>
      <point x="576" y="269"/>
    </contour>
  </outline>
</glyph>
<glyph name="ampersand" format="2">
  <advance width="729"/>
  <unicode hex="0026"/>
  <outline>
    <contour>
      <point x="722" y="0" type="line"/>
      <point x="722" y="14" type="line"/>
      <point x="690" y="15" type="line" smooth="yes"/>
      <point x="653" y="16"/>
      <point x="636" y="26"/>
      <point x="616" y="47" type="curve" smooth="yes"/>
      <point x="377" y="299" type="line" smooth="yes"/>
      <point x="240" y="443"/>
      <point x="198" y="493"/>
      <point x="198" y="569" type="curve" smooth="yes"/>
      <point x="198" y="631"/>
      <point x="238" y="693"/>
      <point x="323" y="693" type="curve" smooth="yes"/>
      <point x="410" y="693"/>
      <point x="464" y="630"/>
      <point x="461" y="500" type="curve"/>
      <point x="476" y="500" type="line"/>
      <point x="520" y="631" type="line"/>
      <point x="475" y="672"/>
      <point x="409" y="713"/>
      <point x="326" y="713" type="curve" smooth="yes"/>
      <point x="238" y="713"/>
      <point x="129" y="666"/>
      <point x="129" y="545" type="curve" smooth="yes"/>
      <point x="129" y="469"/>
      <point x="168" y="407"/>
      <point x="301" y="269" type="curve" smooth="yes"/>
      <point x="560" y="0" type="line"/>
    </contour>
    <contour>
      <point x="249" y="396" type="line"/>
      <point x="172" y="350"/>
      <point x="72" y="280"/>
      <point x="72" y="167" type="curve" smooth="yes"/>
      <point x="72" y="68"/>
      <point x="157" y="-5"/>
      <point x="257" y="-5" type="curve" smooth="yes"/>
      <point x="374" y="-5"/>
      <point x="440" y="83"/>
      <point x="484" y="148" type="curve" smooth="yes"/>
      <point x="582" y="291"/>
      <point x="602" y="375"/>
      <point x="661" y="375" type="curve" smooth="yes"/>
      <point x="684" y="375" type="line"/>
      <point x="684" y="393" type="line"/>
      <point x="451" y="393" type="line"/>
      <point x="451" y="375" type="line"/>
      <point x="520" y="375" type="line" smooth="yes"/>
      <point x="573" y="375"/>
      <point x="585" y="345"/>
      <point x="473" y="183" type="curve" smooth="yes"/>
      <point x="440" y="135"/>
      <point x="384" y="47"/>
      <point x="289" y="47" type="curve" smooth="yes"/>
      <point x="215" y="47"/>
      <point x="152" y="106"/>
      <point x="152" y="196" type="curve" smooth="yes"/>
      <point x="152" y="283"/>
      <point x="206" y="342"/>
      <point x="269" y="382" type="curve"/>
    </contour>
  </outline>
</glyph>
<glyph name="quotesingle" format="2">
  <advance width="154"/>
  <unicode hex="0027"/>
  <outline>
    <contour>
      <point x="68" y="547" type="line"/>
      <point x="44" y="731" type="line" smooth="yes"/>
      <point x="37" y="785"/>
      <point x="116" y="785"/>
      <point x="109" y="731" type="curve" smooth="yes"/>
      <point x="85" y="547" type="line"/>
    </contour>
  </outline>
</glyph>
<glyph name="parenleft" format="2">
  <advance width="357"/>
  <unicode hex="0028"/>
  <outline>
    <contour>
      <point x="303" y="714" type="line"/>
      <point x="187" y="574"/>
      <point x="80" y="436"/>
      <point x="80" y="251" type="curve" smooth="yes"/>
      <point x="80" y="66"/>
      <point x="187" y="-82"/>
      <point x="303" y="-212" type="curve"/>
      <point x="315" y="-203" type="line"/>
      <point x="203" y="-71"/>
      <point x="157" y="110"/>
      <point x="157" y="251" type="curve" smooth="yes"/>
      <point x="157" y="392"/>
      <point x="203" y="554"/>
      <point x="315" y="705" type="curve"/>
    </contour>
  </outline>
</glyph>
<glyph name="asterisk" format="2">
  <advance width="377"/>
  <unicode hex="002A"/>
  <outline>
    <contour>
      <point x="209" y="539" type="line"/>
      <point x="299" y="431" type="line"/>
      <point x="238" y="394" type="line"/>
      <point x="191" y="531" type="line"/>
      <point x="185" y="531" type="line"/>
      <point x="136" y="394" type="line"/>
      <point x="75" y="430" type="line"/>
      <point x="168" y="539" type="line"/>
      <point x="166" y="544" type="line"/>
      <point x="30" y="520" type="line"/>
      <point x="30" y="589" type="line"/>
      <point x="166" y="562" type="line"/>
      <point x="168" y="567" type="line"/>
      <point x="75" y="676" type="line"/>
      <point x="136" y="712" type="line"/>
      <point x="185" y="575" type="line"/>
      <point x="191" y="575" type="line"/>
      <point x="238" y="712" type="line"/>
      <point x="299" y="675" type="line"/>
      <point x="209" y="567" type="line"/>
      <point x="211" y="562" type="line"/>
      <point x="347" y="589" type="line"/>
      <point x="347" y="520" type="line"/>
      <point x="211" y="544" type="line"/>
    </contour>
  </outline>
</glyph>
<glyph name="plus" format="2">
  <advance width="573"/>
  <unicode hex="002B"/>
  <outline>
    <contour>
      <point x="523" y="340" type="line"/>
      <point x="50" y="340" type="line"/>
      <point x="50" y="300" type="line"/>
      <point x="523" y="300" type="line"/>
    </contour>
    <contour>
      <point x="308" y="82" type="line"/>
      <point x="308" y="558" type="line"/>
      <point x="265" y="558" type="line"/>
      <point x="265" y="82" type="line"/>
    </contour>
  </outline>
</glyph>
<glyph name="comma" format="2">
  <advance width="209"/>
  <unicode hex="002C"/>
  <outline>
    <contour>
      <point x="50" y="-147" type="line"/>
      <point x="112" y="-99"/>
      <point x="127" y="-38"/>
      <point x="128" y="-1" type="curve"/>
      <point x="119" y="-9"/>
      <point x="108" y="-10"/>
      <point x="100" y="-10" type="curve" smooth="yes"/>
      <point x="76" y="-10"/>
      <point x="52" y="7"/>
      <point x="52" y="40" type="curve" smooth="yes"/>
      <point x="52" y="65"/>
      <point x="71" y="89"/>
      <point x="104" y="89" type="curve" smooth="yes"/>
      <point x="138" y="89"/>
      <point x="159" y="60"/>
      <point x="159" y="12" type="curve" smooth="yes"/>
      <point x="159" y="-43"/>
      <point x="125" y="-113"/>
      <point x="59" y="-157" type="curve"/>
    </contour>
  </outline>
</glyph>
<glyph name="hyphen" format="2">
  <advance width="419"/>
  <unicode hex="002D"/>
  <outline>
    <contour>
      <point x="50" y="273" type="line"/>
      <point x="50" y="227" type="line"/>
      <point x="369" y="227" type="line"/>
      <point x="369" y="273" type="line"/>
    </contour>
  </outline>
</glyph>
<glyph name="period" format="2">
  <advance width="213"/>
  <unicode hex="002E"/>
  <outline>
    <contour>
      <point x="107" y="-11" type="curve" smooth="yes"/>
      <point x="78" y="-11"/>
      <point x="55" y="11"/>
      <point x="55" y="41" type="curve" smooth="yes"/>
      <point x="55" y="69"/>
      <point x="78" y="92"/>
      <point x="107" y="92" type="curve" smooth="yes"/>
      <point x="134" y="92"/>
      <point x="158" y="69"/>
      <point x="158" y="41" type="curve" smooth="yes"/>
      <point x="158" y="11"/>
      <point x="134" y="-11"/>
    </contour>
  </outline>
</glyph>
<glyph name="slash" format="2">
  <advance width="395"/>
  <unicode hex="002F"/>
  <outline>
    <contour>
      <point x="30" y="-146" type="line"/>
      <point x="75" y="-146" type="line"/>
      <point x="425" y="759" type="line"/>
      <point x="381" y="760" type="line"/>
    </contour>
  </outline>
</glyph>
<glyph name="zero" format="2">
  <advance width="581"/>
  <unicode hex="0030"/>
  <outline>
    <contour>
      <point x="289" y="713" type="curve" smooth="yes"/>
      <point x="440" y="713"/>
      <point x="541" y="562"/>
      <point x="541" y="351" type="curve" smooth="yes"/>
      <point x="541" y="140"/>
      <point x="440" y="-11"/>
      <point x="289" y="-11" type="curve" smooth="yes"/>
      <point x="138" y="-11"/>
      <point x="37" y="140"/>
      <point x="37" y="351" type="curve" smooth="yes"/>
      <point x="37" y="562"/>
      <point x="138" y="713"/>
    </contour>
    <contour>
      <point x="289" y="17" type="curve" smooth="yes"/>
      <point x="407" y="17"/>
      <point x="459" y="185"/>
      <point x="459" y="351" type="curve" smooth="yes"/>
      <point x="459" y="517"/>
      <point x="407" y="685"/>
      <point x="289" y="685" type="curve" smooth="yes"/>
      <point x="171" y="685"/>
      <point x="119" y="517"/>
      <point x="119" y="351" type="curve" smooth="yes"/>
      <point x="119" y="185"/>
      <point x="171" y="17"/>
    </contour>
  </outline>
</glyph>
<glyph name="one" format="2">
  <advance width="443"/>
  <unicode hex="0031"/>
  <outline>
    <contour>
      <point x="50" y="617" type="line"/>
      <point x="50" y="636" type="line"/>
      <point x="256" y="710" type="line"/>
      <point x="265" y="710" type="line"/>
      <point x="265" y="64" type="line" smooth="yes"/>
      <point x="265" y="16"/>
      <point x="315" y="16"/>
      <point x="400" y="14" type="curve"/>
      <point x="400" y="0" type="line"/>
      <point x="54" y="0" type="line"/>
      <point x="54" y="14" type="line"/>
      <point x="129" y="16"/>
      <point x="191" y="16"/>
      <point x="191" y="64" type="curve" smooth="yes"/>
      <point x="191" y="664" type="line"/>
      <point x="51" y="616" type="line"/>
    </contour>
  </outline>
</glyph>
<glyph name="two" format="2">
  <advance width="603"/>
  <unicode hex="0032"/>
  <outline>
    <contour>
      <point x="76" y="534" type="curve"/>
      <point x="62" y="539" type="line"/>
      <point x="97" y="646"/>
      <point x="176" y="713"/>
      <point x="289" y="713" type="curve" smooth="yes"/>
      <point x="426" y="713"/>
      <point x="501" y="617"/>
      <point x="501" y="509" type="curve" smooth="yes"/>
      <point x="501" y="421"/>
      <point x="446" y="343"/>
      <point x="328" y="240" type="curve" smooth="yes"/>
      <point x="121" y="58" type="line"/>
      <point x="398" y="58" type="line" smooth="yes"/>
      <point x="476" y="58"/>
      <point x="486" y="86"/>
      <point x="511" y="176" type="curve"/>
      <point x="525" y="176" type="line"/>
      <point x="493" y="0" type="line"/>
      <point x="50" y="0" type="line"/>
      <point x="50" y="28" type="line"/>
      <point x="269" y="245" type="line" smooth="yes"/>
      <point x="367" y="343"/>
      <point x="412" y="413"/>
      <point x="412" y="496" type="curve" smooth="yes"/>
      <point x="412" y="600"/>
      <point x="350" y="660"/>
      <point x="262" y="660" type="curve" smooth="yes"/>
      <point x="206" y="660"/>
      <point x="130" y="634"/>
    </contour>
  </outline>
</glyph>
<glyph name="three" format="2">
  <advance width="492"/>
  <unicode hex="0033"/>
  <outline>
    <contour>
      <point x="74" y="595" type="curve"/>
      <point x="62" y="602" type="line"/>
      <point x="90" y="652"/>
      <point x="159" y="713"/>
      <point x="253" y="713" type="curve" smooth="yes"/>
      <point x="356" y="713"/>
      <point x="408" y="651"/>
      <point x="408" y="578" type="curve" smooth="yes"/>
      <point x="408" y="462"/>
      <point x="292" y="422"/>
      <point x="177" y="384" type="curve"/>
      <point x="172" y="392" type="line"/>
      <point x="330" y="413"/>
      <point x="459" y="334"/>
      <point x="459" y="214" type="curve" smooth="yes"/>
      <point x="459" y="103"/>
      <point x="371" y="-10"/>
      <point x="225" y="-10" type="curve" smooth="yes"/>
      <point x="152" y="-10"/>
      <point x="86" y="22"/>
      <point x="45" y="52" type="curve"/>
      <point x="60" y="215" type="line"/>
      <point x="74" y="215" type="line"/>
      <point x="86" y="80"/>
      <point x="126" y="16"/>
      <point x="230" y="16" type="curve" smooth="yes"/>
      <point x="321" y="16"/>
      <point x="379" y="98"/>
      <point x="379" y="183" type="curve" smooth="yes"/>
      <point x="379" y="293"/>
      <point x="290" y="395"/>
      <point x="118" y="367" type="curve"/>
      <point x="115" y="383" type="line"/>
      <point x="229" y="419"/>
      <point x="330" y="460"/>
      <point x="330" y="561" type="curve" smooth="yes"/>
      <point x="330" y="610"/>
      <point x="296" y="668"/>
      <point x="218" y="668" type="curve" smooth="yes"/>
      <point x="166" y="668"/>
      <point x="113" y="643"/>
    </contour>
  </outline>
</glyph>
<glyph name="four" format="2">
  <advance width="616"/>
  <unicode hex="0034"/>
  <outline>
    <contour>
      <point x="26" y="195" type="line"/>
      <point x="26" y="248" type="line"/>
      <point x="423" y="700" type="line"/>
      <point x="451" y="700" type="line"/>
      <point x="451" y="246" type="line"/>
      <point x="558" y="246" type="line"/>
      <point x="558" y="195" type="line"/>
      <point x="451" y="195" type="line"/>
      <point x="451" y="65" type="line" smooth="yes"/>
      <point x="451" y="17"/>
      <point x="483" y="16"/>
      <point x="558" y="14" type="curve"/>
      <point x="558" y="0" type="line"/>
      <point x="274" y="0" type="line"/>
      <point x="274" y="14" type="line"/>
      <point x="339" y="16"/>
      <point x="381" y="17"/>
      <point x="381" y="65" type="curve" smooth="yes"/>
      <point x="381" y="195" type="line"/>
    </contour>
    <contour>
      <point x="65" y="246" type="line"/>
      <point x="381" y="246" type="line"/>
      <point x="382" y="607" type="line"/>
    </contour>
  </outline>
</glyph>
<glyph name="five" format="2">
  <advance width="604"/>
  <unicode hex="0035"/>
  <outline>
    <contour>
      <point x="82" y="212" type="line"/>
      <point x="57" y="62" type="line"/>
      <point x="119" y="24"/>
      <point x="187" y="-11"/>
      <point x="269" y="-11" type="curve" smooth="yes"/>
      <point x="446" y="-11"/>
      <point x="536" y="133"/>
      <point x="536" y="250" type="curve" smooth="yes"/>
      <point x="536" y="378"/>
      <point x="448" y="457"/>
      <point x="331" y="457" type="curve" smooth="yes"/>
      <point x="251" y="457"/>
      <point x="166" y="408"/>
      <point x="106" y="353" type="curve"/>
      <point x="123" y="349" type="line"/>
      <point x="165" y="637" type="line"/>
      <point x="489" y="637" type="line"/>
      <point x="489" y="700" type="line"/>
      <point x="143" y="700" type="line"/>
      <point x="89" y="332" type="line"/>
      <point x="103" y="324" type="line"/>
      <point x="167" y="369"/>
      <point x="226" y="408"/>
      <point x="296" y="408" type="curve" smooth="yes"/>
      <point x="384" y="408"/>
      <point x="456" y="346"/>
      <point x="456" y="225" type="curve" smooth="yes"/>
      <point x="456" y="136"/>
      <point x="398" y="14"/>
      <point x="276" y="14" type="curve" smooth="yes"/>
      <point x="195" y="14"/>
      <point x="105" y="52"/>
      <point x="102" y="209" type="curve"/>
    </contour>
  </outline>
</glyph>
<glyph name="six" format="2">
  <advance width="579"/>
  <unicode hex="0036"/>
  <outline>
    <contour>
      <point x="454" y="690" type="curve"/>
      <point x="452" y="713" type="line"/>
      <point x="215" y="688"/>
      <point x="36" y="516"/>
      <point x="36" y="291" type="curve" smooth="yes"/>
      <point x="36" y="113"/>
      <point x="136" y="-11"/>
      <point x="282" y="-11" type="curve" smooth="yes"/>
      <point x="408" y="-11"/>
      <point x="516" y="77"/>
      <point x="516" y="229" type="curve" smooth="yes"/>
      <point x="516" y="387"/>
      <point x="399" y="462"/>
      <point x="297" y="458" type="curve" smooth="yes"/>
      <point x="228" y="456"/>
      <point x="132" y="407"/>
      <point x="104" y="313" type="curve"/>
      <point x="108" y="279" type="line"/>
      <point x="139" y="369"/>
      <point x="210" y="417"/>
      <point x="273" y="417" type="curve" smooth="yes"/>
      <point x="385" y="417"/>
      <point x="436" y="309"/>
      <point x="436" y="211" type="curve" smooth="yes"/>
      <point x="436" y="111"/>
      <point x="387" y="18"/>
      <point x="289" y="18" type="curve" smooth="yes"/>
      <point x="185" y="18"/>
      <point x="120" y="133"/>
      <point x="120" y="279" type="curve" smooth="yes"/>
      <point x="120" y="497"/>
      <point x="267" y="661"/>
    </contour>
  </outline>
</glyph>
<glyph name="seven" format="2">
  <advance width="509"/>
  <unicode hex="0037"/>
  <outline>
    <contour>
      <point x="20" y="700" type="line"/>
      <point x="20" y="642" type="line"/>
      <point x="429" y="643" type="line"/>
      <point x="444" y="675" type="line"/>
      <point x="209" y="410"/>
      <point x="168" y="189"/>
      <point x="166" y="0" type="curve"/>
      <point x="237" y="0" type="line"/>
      <point x="239" y="200"/>
      <point x="271" y="426"/>
      <point x="481" y="686" type="curve"/>
      <point x="472" y="700" type="line"/>
    </contour>
  </outline>
</glyph>
<glyph name="eight" format="2">
  <advance width="602"/>
  <unicode hex="0038"/>
  <outline>
    <contour>
      <point x="484" y="641"/>
      <point x="416" y="713"/>
      <point x="300" y="713" type="curve" smooth="yes"/>
      <point x="181" y="713"/>
      <point x="101" y="649"/>
      <point x="101" y="556" type="curve" smooth="yes"/>
      <point x="101" y="442"/>
      <point x="228" y="387"/>
      <point x="301" y="345" type="curve" smooth="yes"/>
      <point x="364" y="309"/>
      <point x="455" y="269"/>
      <point x="455" y="170" type="curve" smooth="yes"/>
      <point x="455" y="111"/>
      <point x="420" y="24"/>
      <point x="308" y="24" type="curve" smooth="yes"/>
      <point x="212" y="24"/>
      <point x="149" y="95"/>
      <point x="149" y="193" type="curve" smooth="yes"/>
      <point x="149" y="270"/>
      <point x="193" y="329"/>
      <point x="280" y="375" type="curve"/>
      <point x="262" y="389" type="line"/>
      <point x="201" y="362"/>
      <point x="75" y="308"/>
      <point x="75" y="180" type="curve" smooth="yes"/>
      <point x="75" y="77"/>
      <point x="159" y="-11"/>
      <point x="296" y="-11" type="curve" smooth="yes"/>
      <point x="473" y="-11"/>
      <point x="529" y="99"/>
      <point x="529" y="184" type="curve" smooth="yes"/>
      <point x="529" y="291"/>
      <point x="438" y="346"/>
      <point x="357" y="390" type="curve" smooth="yes"/>
      <point x="272" y="436"/>
      <point x="168" y="488"/>
      <point x="168" y="577" type="curve" smooth="yes"/>
      <point x="168" y="643"/>
      <point x="223" y="689"/>
      <point x="289" y="689" type="curve" smooth="yes"/>
      <point x="374" y="689"/>
      <point x="417" y="627"/>
      <point x="417" y="569" type="curve" smooth="yes"/>
      <point x="417" y="476"/>
      <point x="360" y="425"/>
      <point x="305" y="389" type="curve"/>
      <point x="318" y="376" type="line"/>
      <point x="371" y="407"/>
      <point x="484" y="461"/>
      <point x="484" y="563" type="curve" smooth="yes"/>
    </contour>
  </outline>
</glyph>
<glyph name="nine" format="2">
  <advance width="577"/>
  <unicode hex="0039"/>
  <outline>
    <contour>
      <point x="106" y="12" type="curve"/>
      <point x="108" y="-11" type="line"/>
      <point x="345" y="14"/>
      <point x="524" y="186"/>
      <point x="524" y="421" type="curve" smooth="yes"/>
      <point x="524" y="589"/>
      <point x="424" y="713"/>
      <point x="278" y="713" type="curve" smooth="yes"/>
      <point x="152" y="713"/>
      <point x="42" y="625"/>
      <point x="42" y="473" type="curve" smooth="yes"/>
      <point x="42" y="315"/>
      <point x="161" y="240"/>
      <point x="263" y="244" type="curve" smooth="yes"/>
      <point x="332" y="246"/>
      <point x="431" y="295"/>
      <point x="459" y="389" type="curve"/>
      <point x="455" y="423" type="line"/>
      <point x="424" y="333"/>
      <point x="350" y="285"/>
      <point x="287" y="285" type="curve" smooth="yes"/>
      <point x="175" y="285"/>
      <point x="126" y="393"/>
      <point x="126" y="491" type="curve" smooth="yes"/>
      <point x="126" y="591"/>
      <point x="173" y="684"/>
      <point x="271" y="684" type="curve" smooth="yes"/>
      <point x="375" y="684"/>
      <point x="443" y="569"/>
      <point x="443" y="423" type="curve" smooth="yes"/>
      <point x="443" y="205"/>
      <point x="293" y="41"/>
    </contour>
  </outline>
</glyph>
<glyph name="greater" format="2">
  <advance width="573"/>
  <unicode hex="003E"/>
  <outline>
    <contour>
      <point x="532" y="329" type="line"/>
      <point x="63" y="548" type="line"/>
      <point x="63" y="501" type="line"/>
      <point x="447" y="321" type="line"/>
      <point x="63" y="140" type="line"/>
      <point x="63" y="93" type="line"/>
      <point x="532" y="313" type="line"/>
    </contour>
  </outline>
</glyph>
<glyph name="question" format="2">
  <advance width="462"/>
  <unicode hex="003F"/>
  <guideline x="184" y="145" angle="0"/>
  <outline>
    <contour>
      <point x="76" y="507" type="line"/>
      <point x="40" y="654" type="line"/>
      <point x="90" y="694"/>
      <point x="143" y="724"/>
      <point x="221" y="724" type="curve" smooth="yes"/>
      <point x="310" y="724"/>
      <point x="412" y="684"/>
      <point x="412" y="558" type="curve" smooth="yes"/>
      <point x="412" y="434"/>
      <point x="310" y="397"/>
      <point x="248" y="335" type="curve" smooth="yes"/>
      <point x="212" y="299"/>
      <point x="199" y="266"/>
      <point x="199" y="214" type="curve" smooth="yes"/>
      <point x="199" y="195"/>
      <point x="201" y="178"/>
      <point x="204" y="165" type="curve"/>
      <point x="182" y="165" type="line"/>
      <point x="177" y="175"/>
      <point x="172" y="196"/>
      <point x="172" y="233" type="curve" smooth="yes"/>
      <point x="172" y="311"/>
      <point x="208" y="356"/>
      <point x="247" y="395" type="curve" smooth="yes"/>
      <point x="290" y="440"/>
      <point x="338" y="481"/>
      <point x="338" y="569" type="curve" smooth="yes"/>
      <point x="338" y="653"/>
      <point x="293" y="703"/>
      <point x="217" y="703" type="curve" smooth="yes"/>
      <point x="133" y="703"/>
      <point x="81" y="643"/>
      <point x="91" y="507" type="curve"/>
    </contour>
    <component base="period" xOffset="94"/>
  </outline>
</glyph>
<glyph name="at" format="2">
  <advance width="764"/>
  <unicode hex="0040"/>
  <outline>
    <contour>
      <point x="459" y="219" type="line"/>
      <point x="406" y="145"/>
      <point x="370" y="121"/>
      <point x="349" y="121" type="curve" smooth="yes"/>
      <point x="307" y="121"/>
      <point x="278" y="164"/>
      <point x="278" y="231" type="curve" smooth="yes"/>
      <point x="278" y="325"/>
      <point x="328" y="392"/>
      <point x="391" y="392" type="curve" smooth="yes"/>
      <point x="419" y="392"/>
      <point x="448" y="380"/>
      <point x="471" y="355" type="curve"/>
      <point x="438" y="141" type="line" smooth="yes"/>
      <point x="431" y="98"/>
      <point x="445" y="65"/>
      <point x="502" y="65" type="curve" smooth="yes"/>
      <point x="580" y="65"/>
      <point x="714" y="118"/>
      <point x="714" y="292" type="curve" smooth="yes"/>
      <point x="714" y="459"/>
      <point x="570" y="571"/>
      <point x="411" y="571" type="curve" smooth="yes"/>
      <point x="244" y="571"/>
      <point x="50" y="463"/>
      <point x="50" y="238" type="curve" smooth="yes"/>
      <point x="50" y="13"/>
      <point x="235" y="-74"/>
      <point x="408" y="-74" type="curve" smooth="yes"/>
      <point x="485" y="-74"/>
      <point x="540" y="-54"/>
      <point x="585" y="-30" type="curve"/>
      <point x="575" y="-9" type="line"/>
      <point x="532" y="-27"/>
      <point x="486" y="-41"/>
      <point x="422" y="-41" type="curve" smooth="yes"/>
      <point x="249" y="-41"/>
      <point x="113" y="61"/>
      <point x="113" y="253" type="curve" smooth="yes"/>
      <point x="113" y="399"/>
      <point x="206" y="536"/>
      <point x="391" y="536" type="curve" smooth="yes"/>
      <point x="543" y="536"/>
      <point x="658" y="429"/>
      <point x="658" y="277" type="curve" smooth="yes"/>
      <point x="658" y="140"/>
      <point x="571" y="94"/>
      <point x="520" y="94" type="curve" smooth="yes"/>
      <point x="491" y="94"/>
      <point x="484" y="112"/>
      <point x="488" y="139" type="curve" smooth="yes"/>
      <point x="530" y="423" type="line"/>
      <point x="521" y="423" type="line"/>
      <point x="496" y="401" type="line"/>
      <point x="480" y="413"/>
      <point x="447" y="423"/>
      <point x="408" y="423" type="curve" smooth="yes"/>
      <point x="318" y="423"/>
      <point x="219" y="326"/>
      <point x="219" y="208" type="curve" smooth="yes"/>
      <point x="219" y="126"/>
      <point x="273" y="72"/>
      <point x="329" y="72" type="curve" smooth="yes"/>
      <point x="370" y="72"/>
      <point x="426" y="139"/>
      <point x="456" y="183" type="curve"/>
    </contour>
  </outline>
</glyph>
<glyph name="A" format="2">
  <advance width="715"/>
  <unicode hex="0041"/>
  <anchor x="350" y="0" name="bottom"/>
  <anchor x="641" y="3" name="ogonek"/>
  <anchor x="332" y="713" name="top"/>
  <outline>
    <contour>
      <point x="180" y="310" type="line"/>
      <point x="180" y="280" type="line"/>
      <point x="473" y="280" type="line"/>
      <point x="473" y="310" type="line"/>
    </contour>
    <contour>
      <point x="321" y="633" type="curve" smooth="yes"/>
      <point x="558" y="65" type="line" smooth="yes"/>
      <point x="577" y="19"/>
      <point x="563" y="14"/>
      <point x="458" y="14" type="curve"/>
      <point x="458" y="0" type="line"/>
      <point x="760" y="0" type="line"/>
      <point x="760" y="14" type="line"/>
      <point x="708" y="16"/>
      <point x="662" y="15"/>
      <point x="645" y="54" type="curve" smooth="yes"/>
      <point x="372" y="700" type="line"/>
      <point x="185" y="700" type="line"/>
      <point x="185" y="686" type="line"/>
      <point x="292" y="686"/>
      <point x="300" y="683"/>
    </contour>
    <contour>
      <point x="324" y="644" type="line"/>
      <point x="75" y="79" type="line" smooth="yes"/>
      <point x="53" y="28"/>
      <point x="15" y="16"/>
      <point x="-50" y="14" type="curve"/>
      <point x="-50" y="0" type="line"/>
      <point x="201" y="0" type="line"/>
      <point x="201" y="14" type="line"/>
      <point x="135" y="16"/>
      <point x="88" y="12"/>
      <point x="108" y="58" type="curve" smooth="yes"/>
      <point x="357" y="627" type="line"/>
    </contour>
  </outline>
</glyph>
<glyph name="B" format="2">
  <advance width="626"/>
  <unicode hex="0042"/>
  <outline>
    <contour>
      <point x="22" y="0" type="line"/>
      <point x="353" y="0" type="line" smooth="yes"/>
      <point x="511" y="0"/>
      <point x="579" y="94"/>
      <point x="579" y="186" type="curve" smooth="yes"/>
      <point x="579" y="308"/>
      <point x="476" y="363"/>
      <point x="382" y="380" type="curve"/>
      <point x="446" y="395"/>
      <point x="542" y="440"/>
      <point x="542" y="542" type="curve" smooth="yes"/>
      <point x="542" y="656"/>
      <point x="439" y="700"/>
      <point x="336" y="700" type="curve" smooth="yes"/>
      <point x="22" y="700" type="line"/>
      <point x="22" y="686" type="line"/>
      <point x="97" y="683"/>
      <point x="126" y="689"/>
      <point x="126" y="646" type="curve" smooth="yes"/>
      <point x="126" y="55" type="line" smooth="yes"/>
      <point x="126" y="12"/>
      <point x="97" y="17"/>
      <point x="22" y="14" type="curve"/>
    </contour>
    <contour>
      <point x="205" y="24" type="line"/>
      <point x="205" y="365" type="line"/>
      <point x="306" y="365" type="line" smooth="yes"/>
      <point x="450" y="365"/>
      <point x="500" y="257"/>
      <point x="500" y="186" type="curve" smooth="yes"/>
      <point x="500" y="113"/>
      <point x="461" y="24"/>
      <point x="345" y="24" type="curve" smooth="yes"/>
    </contour>
    <contour>
      <point x="205" y="389" type="line"/>
      <point x="205" y="678" type="line"/>
      <point x="278" y="678" type="line" smooth="yes"/>
      <point x="413" y="678"/>
      <point x="468" y="608"/>
      <point x="468" y="523" type="curve" smooth="yes"/>
      <point x="468" y="427"/>
      <point x="391" y="389"/>
      <point x="309" y="389" type="curve" smooth="yes"/>
    </contour>
  </outline>
</glyph>
<glyph name="C" format="2">
  <advance width="702"/>
  <unicode hex="0043"/>
  <anchor x="371" y="0" name="bottom"/>
  <anchor x="351" y="713" name="top"/>
  <outline>
    <contour>
      <point x="630" y="647" type="line"/>
      <point x="556" y="687"/>
      <point x="486" y="713"/>
      <point x="391" y="713" type="curve" smooth="yes"/>
      <point x="156" y="713"/>
      <point x="45" y="536"/>
      <point x="45" y="340" type="curve" smooth="yes"/>
      <point x="45" y="162"/>
      <point x="162" y="-11"/>
      <point x="374" y="-11" type="curve" smooth="yes"/>
      <point x="549" y="-11"/>
      <point x="636" y="129"/>
      <point x="657" y="240" type="curve"/>
      <point x="635" y="240" type="line"/>
      <point x="604" y="142"/>
      <point x="544" y="44"/>
      <point x="410" y="44" type="curve" smooth="yes"/>
      <point x="243" y="44"/>
      <point x="127" y="187"/>
      <point x="127" y="390" type="curve" smooth="yes"/>
      <point x="127" y="509"/>
      <point x="184" y="688"/>
      <point x="385" y="688" type="curve" smooth="yes"/>
      <point x="525" y="688"/>
      <point x="585" y="583"/>
      <point x="611" y="467" type="curve"/>
      <point x="628" y="467" type="line"/>
    </contour>
  </outline>
</glyph>
<glyph name="D" format="2">
  <advance width="710"/>
  <unicode hex="0044"/>
  <anchor x="355" y="0" name="bottom"/>
  <anchor x="355" y="350" name="center"/>
  <anchor x="303" y="713" name="top"/>
  <outline>
    <contour>
      <point x="22" y="0" type="line"/>
      <point x="254" y="0" type="line" smooth="yes"/>
      <point x="532" y="0"/>
      <point x="665" y="164"/>
      <point x="665" y="382" type="curve" smooth="yes"/>
      <point x="665" y="586"/>
      <point x="501" y="702"/>
      <point x="303" y="701" type="curve" smooth="yes"/>
      <point x="22" y="700" type="line"/>
      <point x="22" y="686" type="line"/>
      <point x="97" y="683"/>
      <point x="124" y="688"/>
      <point x="124" y="645" type="curve" smooth="yes"/>
      <point x="124" y="55" type="line" smooth="yes"/>
      <point x="124" y="12"/>
      <point x="97" y="17"/>
      <point x="22" y="14" type="curve"/>
    </contour>
    <contour>
      <point x="203" y="32" type="line"/>
      <point x="203" y="673" type="line"/>
      <point x="296" y="673" type="line" smooth="yes"/>
      <point x="453" y="673"/>
      <point x="577" y="555"/>
      <point x="577" y="354" type="curve" smooth="yes"/>
      <point x="577" y="203"/>
      <point x="504" y="32"/>
      <point x="305" y="32" type="curve" smooth="yes"/>
    </contour>
  </outline>
</glyph>
<glyph name="E" format="2">
  <advance width="658"/>
  <unicode hex="0045"/>
  <anchor x="320" y="0" name="bottom"/>
  <anchor x="511" y="0" name="ogonek"/>
  <anchor x="320" y="713" name="top"/>
  <anchor x="17" y="700" name="topleft"/>
  <outline>
    <contour>
      <point x="22" y="0" type="line"/>
      <point x="580" y="0" type="line"/>
      <point x="623" y="222" type="line"/>
      <point x="604" y="222" type="line"/>
      <point x="581" y="125"/>
      <point x="567" y="29"/>
      <point x="448" y="29" type="curve" smooth="yes"/>
      <point x="203" y="29" type="line"/>
      <point x="203" y="343" type="line"/>
      <point x="423" y="343" type="line" smooth="yes"/>
      <point x="462" y="343"/>
      <point x="492" y="309"/>
      <point x="494" y="230" type="curve"/>
      <point x="510" y="230" type="line"/>
      <point x="510" y="482" type="line"/>
      <point x="494" y="482" type="line"/>
      <point x="492" y="401"/>
      <point x="462" y="371"/>
      <point x="423" y="371" type="curve" smooth="yes"/>
      <point x="203" y="371" type="line"/>
      <point x="203" y="672" type="line"/>
      <point x="432" y="672" type="line" smooth="yes"/>
      <point x="512" y="672"/>
      <point x="557" y="633"/>
      <point x="580" y="478" type="curve"/>
      <point x="599" y="478" type="line"/>
      <point x="567" y="700" type="line"/>
      <point x="22" y="700" type="line"/>
      <point x="22" y="686" type="line"/>
      <point x="97" y="683"/>
      <point x="124" y="688"/>
      <point x="124" y="645" type="curve" smooth="yes"/>
      <point x="124" y="55" type="line" smooth="yes"/>
      <point x="124" y="12"/>
      <point x="97" y="17"/>
      <point x="22" y="14" type="curve"/>
    </contour>
  </outline>
</glyph>
<glyph name="F" format="2">
  <advance width="626"/>
  <unicode hex="0046"/>
  <outline>
    <contour>
      <point x="124" y="55" type="curve" smooth="yes"/>
      <point x="124" y="645" type="line" smooth="yes"/>
      <point x="124" y="688"/>
      <point x="97" y="683"/>
      <point x="22" y="686" type="curve"/>
      <point x="22" y="700" type="line"/>
      <point x="569" y="700" type="line"/>
      <point x="601" y="478" type="line"/>
      <point x="582" y="478" type="line"/>
      <point x="559" y="638"/>
      <point x="512" y="672"/>
      <point x="432" y="672" type="curve" smooth="yes"/>
      <point x="205" y="672" type="line"/>
      <point x="205" y="361" type="line"/>
      <point x="427" y="361" type="line" smooth="yes"/>
      <point x="466" y="361"/>
      <point x="494" y="391"/>
      <point x="496" y="472" type="curve"/>
      <point x="512" y="472" type="line"/>
      <point x="512" y="220" type="line"/>
      <point x="496" y="220" type="line"/>
      <point x="494" y="299"/>
      <point x="466" y="333"/>
      <point x="427" y="333" type="curve" smooth="yes"/>
      <point x="205" y="333" type="line"/>
      <point x="205" y="55" type="line" smooth="yes"/>
      <point x="205" y="12"/>
      <point x="242" y="17"/>
      <point x="337" y="14" type="curve"/>
      <point x="337" y="0" type="line"/>
      <point x="22" y="0" type="line"/>
      <point x="22" y="14" type="line"/>
      <point x="97" y="17"/>
      <point x="124" y="12"/>
    </contour>
  </outline>
</glyph>
<glyph name="G" format="2">
  <advance width="733"/>
  <unicode hex="0047"/>
  <anchor x="378" y="0" name="bottom"/>
  <anchor x="392" y="713" name="top"/>
  <outline>
    <contour>
      <point x="367" y="-11" type="curve" smooth="yes"/>
      <point x="470" y="-11"/>
      <point x="547" y="47"/>
      <point x="582" y="116" type="curve"/>
      <point x="635" y="0" type="line"/>
      <point x="646" y="0" type="line"/>
      <point x="646" y="245" type="line" smooth="yes"/>
      <point x="646" y="285"/>
      <point x="647" y="288"/>
      <point x="708" y="288" type="curve"/>
      <point x="708" y="303" type="line"/>
      <point x="421" y="303" type="line"/>
      <point x="421" y="288" type="line"/>
      <point x="573" y="277" type="line"/>
      <point x="573" y="165" type="line"/>
      <point x="553" y="107"/>
      <point x="502" y="32"/>
      <point x="393" y="32" type="curve" smooth="yes"/>
      <point x="271" y="32"/>
      <point x="129" y="154"/>
      <point x="129" y="375" type="curve" smooth="yes"/>
      <point x="129" y="540"/>
      <point x="214" y="687"/>
      <point x="379" y="687" type="curve" smooth="yes"/>
      <point x="524" y="687"/>
      <point x="581" y="603"/>
      <point x="618" y="463" type="curve"/>
      <point x="633" y="463" type="line"/>
      <point x="637" y="642" type="line"/>
      <point x="590" y="668"/>
      <point x="499" y="712"/>
      <point x="401" y="712" type="curve" smooth="yes"/>
      <point x="159" y="712"/>
      <point x="45" y="529"/>
      <point x="45" y="349" type="curve" smooth="yes"/>
      <point x="45" y="124"/>
      <point x="208" y="-11"/>
    </contour>
  </outline>
</glyph>
<glyph name="H" format="2">
  <advance width="800"/>
  <unicode hex="0048"/>
  <outline>
    <contour>
      <point x="22" y="0" type="line"/>
      <point x="304" y="0" type="line"/>
      <point x="304" y="14" type="line"/>
      <point x="249" y="16"/>
      <point x="202" y="7"/>
      <point x="202" y="65" type="curve" smooth="yes"/>
      <point x="202" y="356" type="line"/>
      <point x="597" y="356" type="line"/>
      <point x="597" y="65" type="line" smooth="yes"/>
      <point x="597" y="7"/>
      <point x="550" y="16"/>
      <point x="495" y="14" type="curve"/>
      <point x="495" y="0" type="line"/>
      <point x="778" y="0" type="line"/>
      <point x="778" y="14" type="line"/>
      <point x="723" y="16"/>
      <point x="676" y="7"/>
      <point x="676" y="65" type="curve" smooth="yes"/>
      <point x="676" y="640" type="line" smooth="yes"/>
      <point x="676" y="698"/>
      <point x="723" y="684"/>
      <point x="778" y="686" type="curve"/>
      <point x="778" y="700" type="line"/>
      <point x="495" y="700" type="line"/>
      <point x="495" y="686" type="line"/>
      <point x="550" y="684"/>
      <point x="597" y="698"/>
      <point x="597" y="640" type="curve" smooth="yes"/>
      <point x="597" y="386" type="line"/>
      <point x="202" y="386" type="line"/>
      <point x="202" y="640" type="line" smooth="yes"/>
      <point x="202" y="698"/>
      <point x="249" y="684"/>
      <point x="304" y="686" type="curve"/>
      <point x="304" y="700" type="line"/>
      <point x="22" y="700" type="line"/>
      <point x="22" y="686" type="line"/>
      <point x="77" y="684"/>
      <point x="123" y="698"/>
      <point x="123" y="640" type="curve" smooth="yes"/>
      <point x="123" y="65" type="line" smooth="yes"/>
      <point x="123" y="7"/>
      <point x="77" y="16"/>
      <point x="22" y="14" type="curve"/>
    </contour>
  </outline>
</glyph>
<glyph name="I" format="2">
  <advance width="347"/>
  <unicode hex="0049"/>
  <anchor x="177" y="0" name="bottom"/>
  <anchor x="203" y="0" name="ogonek"/>
  <anchor x="177" y="700" name="top"/>
  <anchor x="30" y="700" name="topleft"/>
  <outline>
    <contour>
      <point x="213" y="645" type="line" smooth="yes"/>
      <point x="213" y="693"/>
      <point x="260" y="684"/>
      <point x="315" y="686" type="curve"/>
      <point x="315" y="700" type="line"/>
      <point x="32" y="700" type="line"/>
      <point x="32" y="686" type="line"/>
      <point x="87" y="684"/>
      <point x="134" y="693"/>
      <point x="134" y="645" type="curve" smooth="yes"/>
      <point x="134" y="58" type="line" smooth="yes"/>
      <point x="134" y="10"/>
      <point x="87" y="16"/>
      <point x="32" y="14" type="curve"/>
      <point x="32" y="0" type="line"/>
      <point x="315" y="0" type="line"/>
      <point x="315" y="14" type="line"/>
      <point x="260" y="16"/>
      <point x="213" y="10"/>
      <point x="213" y="58" type="curve" smooth="yes"/>
    </contour>
  </outline>
</glyph>
<glyph name="J" format="2">
  <advance width="366"/>
  <unicode hex="004A"/>
  <outline>
    <contour>
      <point x="20" y="-131" type="curve"/>
      <point x="24" y="-146" type="line"/>
      <point x="97" y="-136"/>
      <point x="224" y="-38"/>
      <point x="224" y="169" type="curve" smooth="yes"/>
      <point x="224" y="645" type="line" smooth="yes"/>
      <point x="224" y="693"/>
      <point x="271" y="684"/>
      <point x="326" y="686" type="curve"/>
      <point x="326" y="700" type="line"/>
      <point x="45" y="700" type="line"/>
      <point x="45" y="686" type="line"/>
      <point x="100" y="684"/>
      <point x="147" y="693"/>
      <point x="147" y="645" type="curve" smooth="yes"/>
      <point x="147" y="92" type="line" smooth="yes"/>
      <point x="147" y="14"/>
      <point x="128" y="-111"/>
    </contour>
  </outline>
</glyph>
<glyph name="K" format="2">
  <advance width="695"/>
  <unicode hex="004B"/>
  <anchor x="389" y="0" name="bottom"/>
  <anchor x="349" y="700" name="top"/>
  <outline>
    <contour>
      <point x="337" y="436" type="curve"/>
      <point x="280" y="388" type="line"/>
      <point x="381" y="257"/>
      <point x="470" y="133"/>
      <point x="569" y="0" type="curve"/>
      <point x="731" y="0" type="line"/>
      <point x="731" y="14" type="line"/>
      <point x="699" y="15" type="line" smooth="yes"/>
      <point x="662" y="16"/>
      <point x="644" y="25"/>
      <point x="625" y="47" type="curve" smooth="yes"/>
      <point x="583" y="94"/>
      <point x="404" y="348"/>
    </contour>
    <contour>
      <point x="203" y="60" type="curve" smooth="yes"/>
      <point x="203" y="645" type="line" smooth="yes"/>
      <point x="203" y="693"/>
      <point x="250" y="684"/>
      <point x="305" y="686" type="curve"/>
      <point x="305" y="700" type="line"/>
      <point x="22" y="700" type="line"/>
      <point x="22" y="686" type="line"/>
      <point x="77" y="684"/>
      <point x="124" y="693"/>
      <point x="124" y="645" type="curve" smooth="yes"/>
      <point x="124" y="60" type="line" smooth="yes"/>
      <point x="124" y="12"/>
      <point x="77" y="16"/>
      <point x="22" y="14" type="curve"/>
      <point x="22" y="0" type="line"/>
      <point x="305" y="0" type="line"/>
      <point x="305" y="14" type="line"/>
      <point x="250" y="16"/>
      <point x="203" y="12"/>
    </contour>
    <contour>
      <point x="197" y="288" type="line"/>
      <point x="558" y="637" type="line" smooth="yes"/>
      <point x="588" y="666"/>
      <point x="606" y="685"/>
      <point x="684" y="686" type="curve"/>
      <point x="684" y="700" type="line"/>
      <point x="448" y="700" type="line"/>
      <point x="448" y="686" type="line"/>
      <point x="489" y="685"/>
      <point x="520" y="690"/>
      <point x="520" y="660" type="curve" smooth="yes"/>
      <point x="520" y="642"/>
      <point x="506" y="624"/>
      <point x="456" y="576" type="curve" smooth="yes"/>
      <point x="191" y="324" type="line"/>
    </contour>
  </outline>
</glyph>
<glyph name="L" format="2">
  <advance width="643"/>
  <unicode hex="004C"/>
  <anchor x="322" y="0" name="bottom"/>
  <anchor x="322" y="350" name="center"/>
  <anchor x="165" y="713" name="top"/>
  <anchor x="629" y="700" name="topright"/>
  <outline>
    <contour>
      <point x="22" y="0" type="line"/>
      <point x="602" y="0" type="line"/>
      <point x="628" y="222" type="line"/>
      <point x="609" y="222" type="line"/>
      <point x="589" y="108"/>
      <point x="555" y="25"/>
      <point x="463" y="25" type="curve" smooth="yes"/>
      <point x="203" y="25" type="line"/>
      <point x="203" y="645" type="line" smooth="yes"/>
      <point x="203" y="693"/>
      <point x="250" y="684"/>
      <point x="305" y="686" type="curve"/>
      <point x="305" y="700" type="line"/>
      <point x="22" y="700" type="line"/>
      <point x="22" y="686" type="line"/>
      <point x="77" y="684"/>
      <point x="124" y="693"/>
      <point x="124" y="645" type="curve" smooth="yes"/>
      <point x="124" y="65" type="line" smooth="yes"/>
      <point x="124" y="17"/>
      <point x="107" y="16"/>
      <point x="22" y="14" type="curve"/>
    </contour>
  </outline>
</glyph>
<glyph name="M" format="2">
  <advance width="901"/>
  <unicode hex="004D"/>
  <outline>
    <contour>
      <point x="22" y="686" type="line"/>
      <point x="96" y="683"/>
      <point x="123" y="688"/>
      <point x="123" y="645" type="curve" smooth="yes"/>
      <point x="124" y="54" type="line" smooth="yes"/>
      <point x="124" y="12"/>
      <point x="76" y="16"/>
      <point x="22" y="14" type="curve"/>
      <point x="22" y="0" type="line"/>
      <point x="257" y="0" type="line"/>
      <point x="257" y="14" type="line"/>
      <point x="202" y="16"/>
      <point x="162" y="12"/>
      <point x="162" y="54" type="curve" smooth="yes"/>
      <point x="162" y="559" type="line"/>
      <point x="156" y="625" type="line"/>
      <point x="427" y="0" type="line"/>
      <point x="456" y="0" type="line"/>
      <point x="709" y="625" type="line"/>
      <point x="705" y="559" type="line"/>
      <point x="705" y="54" type="line" smooth="yes"/>
      <point x="705" y="8"/>
      <point x="653" y="16"/>
      <point x="598" y="14" type="curve"/>
      <point x="598" y="0" type="line"/>
      <point x="879" y="0" type="line"/>
      <point x="879" y="14" type="line"/>
      <point x="822" y="16"/>
      <point x="777" y="8"/>
      <point x="777" y="54" type="curve" smooth="yes"/>
      <point x="777" y="645" type="line" smooth="yes"/>
      <point x="777" y="688"/>
      <point x="805" y="683"/>
      <point x="879" y="686" type="curve"/>
      <point x="879" y="700" type="line"/>
      <point x="707" y="700" type="line"/>
      <point x="461" y="99" type="line"/>
      <point x="198" y="700" type="line"/>
      <point x="22" y="700" type="line"/>
    </contour>
  </outline>
</glyph>
<glyph name="N" format="2">
  <advance width="771"/>
  <unicode hex="004E"/>
  <anchor x="388" y="0" name="bottom"/>
  <anchor x="388" y="700" name="top"/>
  <outline>
    <contour>
      <point x="171" y="54" type="curve" smooth="yes"/>
      <point x="171" y="591" type="line"/>
      <point x="619" y="0" type="line"/>
      <point x="657" y="0" type="line"/>
      <point x="657" y="635" type="line" smooth="yes"/>
      <point x="657" y="683"/>
      <point x="674" y="684"/>
      <point x="759" y="686" type="curve"/>
      <point x="759" y="700" type="line"/>
      <point x="518" y="700" type="line"/>
      <point x="518" y="686" type="line"/>
      <point x="603" y="684"/>
      <point x="620" y="683"/>
      <point x="620" y="635" type="curve" smooth="yes"/>
      <point x="620" y="119" type="line"/>
      <point x="179" y="700" type="line"/>
      <point x="22" y="700" type="line"/>
      <point x="22" y="686" type="line"/>
      <point x="91" y="684"/>
      <point x="97" y="684"/>
      <point x="133" y="637" type="curve"/>
      <point x="133" y="54" type="line" smooth="yes"/>
      <point x="133" y="12"/>
      <point x="85" y="16"/>
      <point x="31" y="14" type="curve"/>
      <point x="31" y="0" type="line"/>
      <point x="266" y="0" type="line"/>
      <point x="266" y="14" type="line"/>
      <point x="211" y="16"/>
      <point x="171" y="12"/>
    </contour>
  </outline>
</glyph>
<glyph name="O" format="2">
  <advance width="772"/>
  <unicode hex="004F"/>
  <anchor x="386" y="0" name="bottom"/>
  <anchor x="386" y="350" name="center"/>
  <anchor x="695" y="10" name="ogonek"/>
  <anchor x="386" y="700" name="top"/>
  <anchor x="20" y="700" name="topleft"/>
  <anchor x="752" y="700" name="topright"/>
  <outline>
    <contour>
      <point x="387" y="-11" type="curve" smooth="yes"/>
      <point x="592" y="-11"/>
      <point x="727" y="162"/>
      <point x="727" y="351" type="curve" smooth="yes"/>
      <point x="727" y="550"/>
      <point x="592" y="713"/>
      <point x="387" y="713" type="curve" smooth="yes"/>
      <point x="182" y="713"/>
      <point x="45" y="550"/>
      <point x="45" y="351" type="curve" smooth="yes"/>
      <point x="45" y="162"/>
      <point x="182" y="-11"/>
    </contour>
    <contour>
      <point x="387" y="683" type="curve" smooth="yes"/>
      <point x="549" y="683"/>
      <point x="636" y="541"/>
      <point x="636" y="351" type="curve" smooth="yes"/>
      <point x="636" y="182"/>
      <point x="549" y="22"/>
      <point x="387" y="22" type="curve" smooth="yes"/>
      <point x="225" y="22"/>
      <point x="136" y="182"/>
      <point x="136" y="351" type="curve" smooth="yes"/>
      <point x="136" y="541"/>
      <point x="225" y="683"/>
    </contour>
  </outline>
</glyph>
<glyph name="P" format="2">
  <advance width="593"/>
  <unicode hex="0050"/>
  <outline>
    <contour>
      <point x="22" y="686" type="line"/>
      <point x="91" y="683"/>
      <point x="124" y="690"/>
      <point x="124" y="645" type="curve" smooth="yes"/>
      <point x="124" y="56" type="line" smooth="yes"/>
      <point x="124" y="6"/>
      <point x="74" y="16"/>
      <point x="22" y="14" type="curve"/>
      <point x="22" y="0" type="line"/>
      <point x="328" y="0" type="line"/>
      <point x="328" y="14" type="line"/>
      <point x="244" y="14"/>
      <point x="203" y="7"/>
      <point x="203" y="56" type="curve" smooth="yes"/>
      <point x="203" y="293" type="line"/>
      <point x="272" y="293" type="line" smooth="yes"/>
      <point x="451" y="293"/>
      <point x="553" y="382"/>
      <point x="553" y="507" type="curve" smooth="yes"/>
      <point x="553" y="621"/>
      <point x="475" y="700"/>
      <point x="293" y="700" type="curve" smooth="yes"/>
      <point x="22" y="700" type="line"/>
    </contour>
    <contour>
      <point x="203" y="319" type="line"/>
      <point x="203" y="675" type="line"/>
      <point x="260" y="675" type="line" smooth="yes"/>
      <point x="403" y="675"/>
      <point x="471" y="605"/>
      <point x="471" y="506" type="curve" smooth="yes"/>
      <point x="471" y="401"/>
      <point x="398" y="319"/>
      <point x="265" y="319" type="curve" smooth="yes"/>
    </contour>
  </outline>
</glyph>
<glyph name="Q" format="2">
  <advance width="791"/>
  <unicode hex="0051"/>
  <outline>
    <contour>
      <point x="771" y="-119" type="curve"/>
      <point x="771" y="-106" type="line"/>
      <point x="658" y="-108"/>
      <point x="558" y="-92"/>
      <point x="449" y="13" type="curve"/>
      <point x="366" y="-6" type="line"/>
      <point x="461" y="-96"/>
      <point x="547" y="-129"/>
    </contour>
    <component base="O"/>
  </outline>
</glyph>
<glyph name="R" format="2">
  <advance width="640"/>
  <unicode hex="0052"/>
  <anchor x="319" y="0" name="bottom"/>
  <anchor x="299" y="700" name="top"/>
  <outline>
    <contour>
      <point x="610" y="22" type="line" smooth="yes"/>
      <point x="537" y="35"/>
      <point x="431" y="266"/>
      <point x="389" y="351" type="curve"/>
      <point x="306" y="343" type="line"/>
      <point x="404" y="166"/>
      <point x="447" y="0"/>
      <point x="609" y="0" type="curve" smooth="yes"/>
      <point x="655" y="0" type="line"/>
      <point x="655" y="14" type="line"/>
    </contour>
    <contour>
      <point x="22" y="686" type="line"/>
      <point x="120" y="686"/>
      <point x="124" y="688"/>
      <point x="124" y="635" type="curve" smooth="yes"/>
      <point x="124" y="55" type="line" smooth="yes"/>
      <point x="124" y="7"/>
      <point x="82" y="16"/>
      <point x="22" y="14" type="curve"/>
      <point x="22" y="0" type="line"/>
      <point x="298" y="0" type="line"/>
      <point x="298" y="14" type="line"/>
      <point x="243" y="16"/>
      <point x="203" y="7"/>
      <point x="203" y="55" type="curve" smooth="yes"/>
      <point x="203" y="333" type="line"/>
      <point x="273" y="333" type="line" smooth="yes"/>
      <point x="460" y="333"/>
      <point x="545" y="422"/>
      <point x="545" y="535" type="curve" smooth="yes"/>
      <point x="545" y="644"/>
      <point x="451" y="700"/>
      <point x="317" y="700" type="curve" smooth="yes"/>
      <point x="22" y="700" type="line"/>
    </contour>
    <contour>
      <point x="203" y="358" type="line"/>
      <point x="203" y="676" type="line"/>
      <point x="261" y="676" type="line" smooth="yes"/>
      <point x="413" y="676"/>
      <point x="465" y="607"/>
      <point x="465" y="527" type="curve" smooth="yes"/>
      <point x="465" y="422"/>
      <point x="377" y="358"/>
      <point x="291" y="358" type="curve" smooth="yes"/>
    </contour>
  </outline>
</glyph>
<glyph name="S" format="2">
  <advance width="545"/>
  <unicode hex="0053"/>
  <anchor x="273" y="0" name="bottom"/>
  <anchor x="265" y="700" name="top"/>
  <outline>
    <contour>
      <point x="482" y="649" type="line"/>
      <point x="468" y="660"/>
      <point x="366" y="713"/>
      <point x="265" y="713" type="curve" smooth="yes"/>
      <point x="134" y="713"/>
      <point x="35" y="652"/>
      <point x="35" y="541" type="curve" smooth="yes"/>
      <point x="35" y="451"/>
      <point x="103" y="398"/>
      <point x="180" y="363" type="curve" smooth="yes"/>
      <point x="323" y="298" type="line" smooth="yes"/>
      <point x="399" y="263"/>
      <point x="428" y="222"/>
      <point x="428" y="172" type="curve" smooth="yes"/>
      <point x="428" y="91"/>
      <point x="379" y="18"/>
      <point x="276" y="16" type="curve" smooth="yes"/>
      <point x="146" y="13"/>
      <point x="71" y="112"/>
      <point x="68" y="253" type="curve"/>
      <point x="53" y="253" type="line"/>
      <point x="33" y="77" type="line"/>
      <point x="65" y="53"/>
      <point x="151" y="-11"/>
      <point x="263" y="-11" type="curve" smooth="yes"/>
      <point x="419" y="-11"/>
      <point x="502" y="90"/>
      <point x="502" y="196" type="curve" smooth="yes"/>
      <point x="502" y="266"/>
      <point x="465" y="317"/>
      <point x="374" y="359" type="curve" smooth="yes"/>
      <point x="227" y="427" type="line" smooth="yes"/>
      <point x="159" y="459"/>
      <point x="110" y="496"/>
      <point x="110" y="567" type="curve" smooth="yes"/>
      <point x="110" y="637"/>
      <point x="169" y="687"/>
      <point x="248" y="687" type="curve" smooth="yes"/>
      <point x="377" y="687"/>
      <point x="440" y="595"/>
      <point x="438" y="477" type="curve"/>
      <point x="453" y="477" type="line"/>
    </contour>
  </outline>
</glyph>
<glyph name="T" format="2">
  <advance width="671"/>
  <unicode hex="0054"/>
  <anchor x="336" y="0" name="bottom"/>
  <anchor x="336" y="350" name="center"/>
  <anchor x="336" y="700" name="top"/>
  <outline>
    <contour>
      <point x="14" y="477" type="line"/>
      <point x="31" y="477" type="line"/>
      <point x="52" y="607"/>
      <point x="80" y="674"/>
      <point x="160" y="674" type="curve" smooth="yes"/>
      <point x="298" y="674" type="line"/>
      <point x="298" y="55" type="line" smooth="yes"/>
      <point x="298" y="17"/>
      <point x="286" y="16"/>
      <point x="183" y="14" type="curve"/>
      <point x="183" y="0" type="line"/>
      <point x="490" y="0" type="line"/>
      <point x="490" y="14" type="line"/>
      <point x="377" y="16"/>
      <point x="377" y="17"/>
      <point x="377" y="55" type="curve" smooth="yes"/>
      <point x="377" y="674" type="line"/>
      <point x="511" y="674" type="line" smooth="yes"/>
      <point x="596" y="674"/>
      <point x="619" y="607"/>
      <point x="640" y="477" type="curve"/>
      <point x="657" y="477" type="line"/>
      <point x="629" y="700" type="line"/>
      <point x="42" y="700" type="line"/>
    </contour>
  </outline>
</glyph>
<glyph name="U" format="2">
  <advance width="753"/>
  <unicode hex="0055"/>
  <anchor x="358" y="0" name="bottom"/>
  <anchor x="499" y="13" name="ogonek"/>
  <anchor x="398" y="700" name="top"/>
  <anchor x="714" y="700" name="topright"/>
  <outline>
    <contour>
      <point x="5" y="686" type="line"/>
      <point x="80" y="684"/>
      <point x="107" y="693"/>
      <point x="107" y="645" type="curve" smooth="yes"/>
      <point x="107" y="262" type="line" smooth="yes"/>
      <point x="107" y="72"/>
      <point x="215" y="-12"/>
      <point x="390" y="-11" type="curve" smooth="yes"/>
      <point x="531" y="-10"/>
      <point x="642" y="86"/>
      <point x="642" y="264" type="curve" smooth="yes"/>
      <point x="642" y="645" type="line" smooth="yes"/>
      <point x="642" y="693"/>
      <point x="679" y="684"/>
      <point x="744" y="686" type="curve"/>
      <point x="744" y="700" type="line"/>
      <point x="499" y="700" type="line"/>
      <point x="499" y="686" type="line"/>
      <point x="584" y="686"/>
      <point x="601" y="693"/>
      <point x="601" y="645" type="curve" smooth="yes"/>
      <point x="601" y="262" type="line" smooth="yes"/>
      <point x="601" y="126"/>
      <point x="532" y="26"/>
      <point x="392" y="26" type="curve" smooth="yes"/>
      <point x="273" y="26"/>
      <point x="186" y="113"/>
      <point x="186" y="263" type="curve" smooth="yes"/>
      <point x="186" y="645" type="line" smooth="yes"/>
      <point x="186" y="693"/>
      <point x="223" y="684"/>
      <point x="288" y="686" type="curve"/>
      <point x="288" y="700" type="line"/>
      <point x="5" y="700" type="line"/>
    </contour>
  </outline>
</glyph>
<glyph name="V" format="2">
  <advance width="650"/>
  <unicode hex="0056"/>
  <outline>
    <contour>
      <point x="-68" y="686" type="curve"/>
      <point x="-68" y="700" type="line"/>
      <point x="235" y="700" type="line"/>
      <point x="235" y="686" type="line"/>
      <point x="130" y="684"/>
      <point x="110" y="685"/>
      <point x="138" y="622" type="curve" smooth="yes"/>
      <point x="359" y="115" type="line"/>
      <point x="545" y="616" type="line" smooth="yes"/>
      <point x="573" y="692"/>
      <point x="524" y="684"/>
      <point x="449" y="686" type="curve"/>
      <point x="449" y="700" type="line"/>
      <point x="705" y="700" type="line"/>
      <point x="705" y="686" type="line"/>
      <point x="621" y="684"/>
      <point x="603" y="672"/>
      <point x="587" y="630" type="curve" smooth="yes"/>
      <point x="354" y="0" type="line"/>
      <point x="329" y="0" type="line"/>
      <point x="54" y="623" type="line" smooth="yes"/>
      <point x="27" y="685"/>
      <point x="24" y="684"/>
    </contour>
  </outline>
</glyph>
<glyph name="W" format="2">
  <advance width="947"/>
  <unicode hex="0057"/>
  <anchor x="446" y="0" name="bottom"/>
  <anchor x="490" y="700" name="top"/>
  <outline>
    <contour>
      <point x="495" y="550" type="line"/>
      <point x="477" y="600" type="line"/>
      <point x="308" y="140" type="line"/>
      <point x="136" y="631" type="line" smooth="yes"/>
      <point x="114" y="695"/>
      <point x="147" y="684"/>
      <point x="242" y="686" type="curve"/>
      <point x="242" y="700" type="line"/>
      <point x="-55" y="700" type="line"/>
      <point x="-55" y="686" type="line"/>
      <point x="27" y="684"/>
      <point x="32" y="685"/>
      <point x="49" y="636" type="curve" smooth="yes"/>
      <point x="270" y="0" type="line"/>
      <point x="295" y="0" type="line"/>
    </contour>
    <contour>
      <point x="446" y="652" type="curve" smooth="yes"/>
      <point x="670" y="0" type="line"/>
      <point x="695" y="0" type="line"/>
      <point x="903" y="646" type="line" smooth="yes"/>
      <point x="916" y="685"/>
      <point x="948" y="684"/>
      <point x="1002" y="686" type="curve"/>
      <point x="1002" y="700" type="line"/>
      <point x="763" y="700" type="line"/>
      <point x="763" y="686" type="line"/>
      <point x="855" y="684"/>
      <point x="883" y="693"/>
      <point x="857" y="616" type="curve" smooth="yes"/>
      <point x="698" y="140" type="line"/>
      <point x="518" y="652" type="line" smooth="yes"/>
      <point x="504" y="693"/>
      <point x="560" y="684"/>
      <point x="613" y="686" type="curve"/>
      <point x="613" y="700" type="line"/>
      <point x="311" y="700" type="line"/>
      <point x="311" y="686" type="line"/>
      <point x="354" y="684"/>
      <point x="432" y="693"/>
    </contour>
  </outline>
</glyph>
<glyph name="X" format="2">
  <advance width="701"/>
  <unicode hex="0058"/>
  <outline>
    <contour>
      <point x="-37" y="686" type="line"/>
      <point x="30" y="684"/>
      <point x="54" y="687"/>
      <point x="79" y="652" type="curve" smooth="yes"/>
      <point x="498" y="70" type="line" smooth="yes"/>
      <point x="538" y="14"/>
      <point x="495" y="16"/>
      <point x="385" y="14" type="curve"/>
      <point x="385" y="0" type="line"/>
      <point x="738" y="0" type="line"/>
      <point x="738" y="14" type="line"/>
      <point x="669" y="17"/>
      <point x="635" y="12"/>
      <point x="593" y="71" type="curve" smooth="yes"/>
      <point x="206" y="608" type="line" smooth="yes"/>
      <point x="157" y="676"/>
      <point x="176" y="684"/>
      <point x="306" y="686" type="curve"/>
      <point x="306" y="700" type="line"/>
      <point x="-37" y="700" type="line"/>
    </contour>
    <contour>
      <point x="-42" y="0" type="line"/>
      <point x="239" y="0" type="line"/>
      <point x="239" y="14" type="line"/>
      <point x="149" y="16"/>
      <point x="110" y="18"/>
      <point x="158" y="85" type="curve" smooth="yes"/>
      <point x="343" y="345" type="line"/>
      <point x="315" y="369" type="line"/>
      <point x="94" y="60" type="line" smooth="yes"/>
      <point x="75" y="34"/>
      <point x="46" y="17"/>
      <point x="-42" y="14" type="curve"/>
    </contour>
    <contour>
      <point x="333" y="384" type="line"/>
      <point x="362" y="361" type="line"/>
      <point x="570" y="638" type="line" smooth="yes"/>
      <point x="597" y="673"/>
      <point x="627" y="685"/>
      <point x="705" y="686" type="curve"/>
      <point x="705" y="700" type="line"/>
      <point x="438" y="700" type="line"/>
      <point x="438" y="686" type="line"/>
      <point x="529" y="684"/>
      <point x="560" y="682"/>
      <point x="507" y="613" type="curve" smooth="yes"/>
    </contour>
  </outline>
</glyph>
<glyph name="Y" format="2">
  <advance width="613"/>
  <unicode hex="0059"/>
  <anchor x="301" y="0" name="bottom"/>
  <anchor x="336" y="700" name="top"/>
  <anchor x="0" y="700" name="topleft"/>
  <outline>
    <contour>
      <point x="-49" y="686" type="line"/>
      <point x="0" y="686" type="line" smooth="yes"/>
      <point x="41" y="686"/>
      <point x="51" y="664"/>
      <point x="85" y="608" type="curve" smooth="yes"/>
      <point x="277" y="296" type="line"/>
      <point x="277" y="58" type="line" smooth="yes"/>
      <point x="277" y="10"/>
      <point x="240" y="16"/>
      <point x="175" y="14" type="curve"/>
      <point x="175" y="0" type="line"/>
      <point x="452" y="0" type="line"/>
      <point x="452" y="14" type="line"/>
      <point x="387" y="16"/>
      <point x="352" y="10"/>
      <point x="352" y="58" type="curve" smooth="yes"/>
      <point x="352" y="296" type="line"/>
      <point x="535" y="624" type="line" smooth="yes"/>
      <point x="556" y="661"/>
      <point x="563" y="686"/>
      <point x="614" y="686" type="curve" smooth="yes"/>
      <point x="652" y="686" type="line"/>
      <point x="652" y="700" type="line"/>
      <point x="407" y="700" type="line"/>
      <point x="407" y="686" type="line"/>
      <point x="477" y="686" type="line" smooth="yes"/>
      <point x="524" y="686"/>
      <point x="523" y="666"/>
      <point x="487" y="604" type="curve" smooth="yes"/>
      <point x="333" y="336" type="line"/>
      <point x="148" y="633" type="line" smooth="yes"/>
      <point x="125" y="670"/>
      <point x="132" y="686"/>
      <point x="175" y="686" type="curve" smooth="yes"/>
      <point x="248" y="686" type="line"/>
      <point x="248" y="700" type="line"/>
      <point x="-49" y="700" type="line"/>
    </contour>
  </outline>
</glyph>
<glyph name="Z" format="2">
  <advance width="632"/>
  <unicode hex="005A"/>
  <anchor x="311" y="0" name="bottom"/>
  <anchor x="311" y="350" name="center"/>
  <anchor x="341" y="700" name="top"/>
  <outline>
    <contour>
      <point x="42" y="19" type="line"/>
      <point x="498" y="670" type="line"/>
      <point x="194" y="670" type="line" smooth="yes"/>
      <point x="110" y="670"/>
      <point x="89" y="591"/>
      <point x="70" y="478" type="curve"/>
      <point x="50" y="478" type="line"/>
      <point x="72" y="700" type="line"/>
      <point x="72" y="701" type="line"/>
      <point x="587" y="700" type="line"/>
      <point x="598" y="685" type="line"/>
      <point x="141" y="31" type="line"/>
      <point x="465" y="31" type="line" smooth="yes"/>
      <point x="547" y="31"/>
      <point x="569" y="109"/>
      <point x="589" y="222" type="curve"/>
      <point x="610" y="222" type="line"/>
      <point x="580" y="0" type="line"/>
      <point x="53" y="0" type="line"/>
    </contour>
  </outline>
</glyph>
<glyph name="bracketleft" format="2">
  <advance width="304"/>
  <unicode hex="005B"/>
  <outline>
    <contour>
      <point x="278" y="736" type="line"/>
      <point x="70" y="736" type="line"/>
      <point x="70" y="-216" type="line"/>
      <point x="71" y="-216" type="line"/>
      <point x="71" y="-220" type="line"/>
      <point x="279" y="-220" type="line"/>
      <point x="279" y="-204" type="line"/>
      <point x="145" y="-204" type="line"/>
      <point x="145" y="720" type="line"/>
      <point x="278" y="720" type="line"/>
    </contour>
  </outline>
</glyph>
<glyph name="asciicircum" format="2">
  <advance width="419"/>
  <unicode hex="005E"/>
  <outline>
    <contour>
      <point x="216" y="700" type="line"/>
      <point x="203" y="700" type="line"/>
      <point x="55" y="439" type="line"/>
      <point x="98" y="439" type="line"/>
      <point x="209" y="639" type="line"/>
      <point x="321" y="439" type="line"/>
      <point x="364" y="439" type="line"/>
    </contour>
  </outline>
</glyph>
<glyph name="underscore" format="2">
  <advance width="464"/>
  <unicode hex="005F"/>
  <outline>
    <contour>
      <point x="10" y="-82" type="line"/>
      <point x="10" y="-112" type="line"/>
      <point x="454" y="-112" type="line"/>
      <point x="454" y="-82" type="line"/>
    </contour>
  </outline>
</glyph>
<glyph name="a" format="2">
  <advance width="511"/>
  <unicode hex="0061"/>
  <anchor x="269" y="0" name="bottom"/>
  <anchor x="443" y="0" name="ogonek"/>
  <anchor x="235" y="500" name="top"/>
  <outline>
    <contour>
      <point x="354" y="0" type="line"/>
      <point x="506" y="0" type="line"/>
      <point x="506" y="15" type="line"/>
      <point x="459" y="14"/>
      <point x="423" y="9"/>
      <point x="423" y="72" type="curve"/>
      <point x="423" y="343" type="line" smooth="yes"/>
      <point x="423" y="442"/>
      <point x="355" y="511"/>
      <point x="242" y="511" type="curve" smooth="yes"/>
      <point x="98" y="511"/>
      <point x="54" y="395"/>
      <point x="50" y="343" type="curve"/>
      <point x="68" y="343" type="line"/>
      <point x="83" y="415"/>
      <point x="140" y="461"/>
      <point x="216" y="461" type="curve" smooth="yes"/>
      <point x="305" y="461"/>
      <point x="353" y="407"/>
      <point x="354" y="321" type="curve" smooth="yes"/>
    </contour>
    <contour>
      <point x="374" y="115" type="line"/>
      <point x="317" y="67"/>
      <point x="255" y="39"/>
      <point x="207" y="39" type="curve" smooth="yes"/>
      <point x="162" y="39"/>
      <point x="123" y="63"/>
      <point x="123" y="119" type="curve" smooth="yes"/>
      <point x="123" y="167"/>
      <point x="151" y="199"/>
      <point x="221" y="221" type="curve" smooth="yes"/>
      <point x="259" y="233"/>
      <point x="309" y="246"/>
      <point x="374" y="263" type="curve"/>
      <point x="374" y="288" type="line"/>
      <point x="321" y="275"/>
      <point x="278" y="264"/>
      <point x="237" y="253" type="curve" smooth="yes"/>
      <point x="127" y="223"/>
      <point x="52" y="190"/>
      <point x="52" y="103" type="curve" smooth="yes"/>
      <point x="52" y="24"/>
      <point x="119" y="-9"/>
      <point x="176" y="-9" type="curve" smooth="yes"/>
      <point x="238" y="-9"/>
      <point x="295" y="29"/>
      <point x="375" y="93" type="curve"/>
    </contour>
  </outline>
</glyph>
<glyph name="b" format="2">
  <advance width="596"/>
  <unicode hex="0062"/>
  <outline>
    <contour>
      <point x="165" y="394" type="curve"/>
      <point x="165" y="88" type="line"/>
      <point x="189" y="61"/>
      <point x="239" y="25"/>
      <point x="314" y="25" type="curve" smooth="yes"/>
      <point x="434" y="25"/>
      <point x="491" y="117"/>
      <point x="491" y="243" type="curve" smooth="yes"/>
      <point x="491" y="386"/>
      <point x="408" y="461"/>
      <point x="310" y="461" type="curve" smooth="yes"/>
      <point x="275" y="461"/>
      <point x="213" y="429"/>
    </contour>
    <contour>
      <point x="-5" y="704" type="curve"/>
      <point x="-5" y="720" type="line"/>
      <point x="165" y="771" type="line"/>
      <point x="165" y="424" type="line"/>
      <point x="192" y="443"/>
      <point x="286" y="510"/>
      <point x="344" y="510" type="curve" smooth="yes"/>
      <point x="469" y="510"/>
      <point x="554" y="432"/>
      <point x="554" y="279" type="curve" smooth="yes"/>
      <point x="554" y="106"/>
      <point x="441" y="-11"/>
      <point x="290" y="-11" type="curve" smooth="yes"/>
      <point x="203" y="-11"/>
      <point x="138" y="25"/>
      <point x="96" y="43" type="curve"/>
      <point x="96" y="670" type="line" smooth="yes"/>
      <point x="96" y="737"/>
      <point x="70" y="724"/>
    </contour>
  </outline>
</glyph>
<glyph name="c" format="2">
  <advance width="528"/>
  <unicode hex="0063"/>
  <anchor x="270" y="0" name="bottom"/>
  <anchor x="290" y="500" name="top"/>
  <outline>
    <contour>
      <point x="477" y="440" type="line"/>
      <point x="414" y="490"/>
      <point x="357" y="512"/>
      <point x="289" y="512" type="curve" smooth="yes"/>
      <point x="126" y="512"/>
      <point x="42" y="386"/>
      <point x="42" y="240" type="curve" smooth="yes"/>
      <point x="42" y="91"/>
      <point x="148" y="-11"/>
      <point x="278" y="-11" type="curve" smooth="yes"/>
      <point x="389" y="-11"/>
      <point x="460" y="61"/>
      <point x="494" y="144" type="curve"/>
      <point x="479" y="153" type="line"/>
      <point x="440" y="87"/>
      <point x="395" y="41"/>
      <point x="306" y="41" type="curve" smooth="yes"/>
      <point x="195" y="41"/>
      <point x="111" y="134"/>
      <point x="111" y="290" type="curve" smooth="yes"/>
      <point x="111" y="410"/>
      <point x="177" y="486"/>
      <point x="280" y="486" type="curve" smooth="yes"/>
      <point x="356" y="486"/>
      <point x="425" y="437"/>
      <point x="428" y="303" type="curve"/>
      <point x="442" y="303" type="line"/>
    </contour>
  </outline>
</glyph>
<glyph name="d" format="2">
  <advance width="605"/>
  <unicode hex="0064"/>
  <anchor x="302" y="0" name="bottom"/>
  <anchor x="302" y="250" name="center"/>
  <anchor x="302" y="760" name="top"/>
  <anchor x="584" y="760" name="topright"/>
  <outline>
    <contour>
      <point x="437" y="112" type="line"/>
      <point x="402" y="80"/>
      <point x="337" y="47"/>
      <point x="292" y="47" type="curve" smooth="yes"/>
      <point x="203" y="47"/>
      <point x="114" y="130"/>
      <point x="114" y="276" type="curve" smooth="yes"/>
      <point x="114" y="388"/>
      <point x="174" y="477"/>
      <point x="290" y="477" type="curve" smooth="yes"/>
      <point x="358" y="477"/>
      <point x="412" y="438"/>
      <point x="444" y="399" type="curve"/>
      <point x="478" y="459" type="line"/>
      <point x="436" y="477"/>
      <point x="378" y="510"/>
      <point x="307" y="510" type="curve" smooth="yes"/>
      <point x="162" y="510"/>
      <point x="42" y="395"/>
      <point x="42" y="235" type="curve" smooth="yes"/>
      <point x="42" y="84"/>
      <point x="146" y="-5"/>
      <point x="260" y="-5" type="curve" smooth="yes"/>
      <point x="312" y="-5"/>
      <point x="382" y="34"/>
      <point x="437" y="82" type="curve"/>
    </contour>
    <contour>
      <point x="326" y="703" type="line"/>
      <point x="398" y="722"/>
      <point x="437" y="740"/>
      <point x="437" y="679" type="curve" smooth="yes"/>
      <point x="437" y="0" type="line"/>
      <point x="602" y="0" type="line"/>
      <point x="602" y="14" type="line"/>
      <point x="522" y="14"/>
      <point x="506" y="19"/>
      <point x="506" y="73" type="curve" smooth="yes"/>
      <point x="506" y="770" type="line"/>
      <point x="326" y="719" type="line"/>
    </contour>
  </outline>
</glyph>
<glyph name="e" format="2">
  <advance width="546"/>
  <unicode hex="0065"/>
  <anchor x="277" y="0" name="bottom"/>
  <anchor x="357" y="0" name="ogonek"/>
  <anchor x="266" y="500" name="top"/>
  <outline>
    <contour>
      <point x="92" y="315" type="line"/>
      <point x="488" y="315" type="line"/>
      <point x="487" y="426"/>
      <point x="399" y="511"/>
      <point x="278" y="511" type="curve" smooth="yes"/>
      <point x="120" y="511"/>
      <point x="42" y="388"/>
      <point x="42" y="250" type="curve" smooth="yes"/>
      <point x="42" y="91"/>
      <point x="143" y="-11"/>
      <point x="285" y="-11" type="curve" smooth="yes"/>
      <point x="387" y="-11"/>
      <point x="462" y="47"/>
      <point x="509" y="153" type="curve"/>
      <point x="491" y="160" type="line"/>
      <point x="440" y="62"/>
      <point x="361" y="43"/>
      <point x="314" y="43" type="curve" smooth="yes"/>
      <point x="186" y="43"/>
      <point x="109" y="148"/>
      <point x="109" y="290" type="curve" smooth="yes"/>
      <point x="109" y="376"/>
      <point x="151" y="485"/>
      <point x="259" y="485" type="curve" smooth="yes"/>
      <point x="337" y="485"/>
      <point x="393" y="426"/>
      <point x="404" y="334" type="curve"/>
      <point x="92" y="334" type="line"/>
    </contour>
  </outline>
</glyph>
<glyph name="f" format="2">
  <advance width="387"/>
  <unicode hex="0066"/>
  <outline>
    <contour>
      <point x="125" y="65" type="line" smooth="yes"/>
      <point x="125" y="17"/>
      <point x="83" y="16"/>
      <point x="38" y="14" type="curve"/>
      <point x="38" y="0" type="line"/>
      <point x="336" y="0" type="line"/>
      <point x="336" y="14" type="line"/>
      <point x="241" y="16"/>
      <point x="195" y="17"/>
      <point x="195" y="65" type="curve" smooth="yes"/>
      <point x="195" y="575" type="line" smooth="yes"/>
      <point x="195" y="675"/>
      <point x="215" y="747"/>
      <point x="303" y="747" type="curve" smooth="yes"/>
      <point x="371" y="747"/>
      <point x="408" y="697"/>
      <point x="408" y="551" type="curve"/>
      <point x="422" y="551" type="line"/>
      <point x="461" y="686" type="line"/>
      <point x="422" y="741"/>
      <point x="363" y="771"/>
      <point x="302" y="771" type="curve" smooth="yes"/>
      <point x="189" y="771"/>
      <point x="125" y="689"/>
      <point x="125" y="584" type="curve" smooth="yes"/>
    </contour>
    <contour>
      <point x="64" y="500" type="line"/>
      <point x="64" y="479" type="line"/>
      <point x="324" y="479" type="line"/>
      <point x="324" y="500" type="line"/>
    </contour>
  </outline>
</glyph>
<glyph name="g" format="2">
  <advance width="566"/>
  <unicode hex="0067"/>
  <anchor x="282" y="-240" name="bottom"/>
  <anchor x="261" y="512" name="top"/>
  <outline>
    <contour>
      <point x="266" y="183" type="curve" smooth="yes"/>
      <point x="378" y="183"/>
      <point x="474" y="250"/>
      <point x="474" y="348" type="curve" smooth="yes"/>
      <point x="474" y="440"/>
      <point x="378" y="511"/>
      <point x="266" y="511" type="curve" smooth="yes"/>
      <point x="154" y="511"/>
      <point x="64" y="440"/>
      <point x="64" y="348" type="curve" smooth="yes"/>
      <point x="64" y="250"/>
      <point x="154" y="183"/>
    </contour>
    <contour>
      <point x="227" y="201" type="curve"/>
      <point x="193" y="206" type="line"/>
      <point x="154" y="184"/>
      <point x="77" y="142"/>
      <point x="77" y="125" type="curve" smooth="yes"/>
      <point x="77" y="81"/>
      <point x="104" y="45"/>
      <point x="199" y="25" type="curve" smooth="yes"/>
      <point x="385" y="-14" type="line" smooth="yes"/>
      <point x="446" y="-27"/>
      <point x="464" y="-46"/>
      <point x="464" y="-85" type="curve" smooth="yes"/>
      <point x="464" y="-155"/>
      <point x="369" y="-210"/>
      <point x="275" y="-210" type="curve" smooth="yes"/>
      <point x="162" y="-210"/>
      <point x="107" y="-151"/>
      <point x="107" y="-63" type="curve" smooth="yes"/>
      <point x="107" y="-46"/>
      <point x="178" y="22"/>
      <point x="237" y="53" type="curve"/>
      <point x="196" y="61" type="line"/>
      <point x="153" y="27"/>
      <point x="34" y="-41"/>
      <point x="34" y="-84" type="curve" smooth="yes"/>
      <point x="34" y="-172"/>
      <point x="132" y="-240"/>
      <point x="254" y="-240" type="curve" smooth="yes"/>
      <point x="400" y="-240"/>
      <point x="521" y="-153"/>
      <point x="521" y="-45" type="curve" smooth="yes"/>
      <point x="521" y="13"/>
      <point x="484" y="35"/>
      <point x="408" y="51" type="curve" smooth="yes"/>
      <point x="195" y="97" type="line" smooth="yes"/>
      <point x="158" y="105"/>
      <point x="137" y="121"/>
      <point x="137" y="142" type="curve" smooth="yes"/>
      <point x="137" y="148"/>
      <point x="177" y="177"/>
    </contour>
    <contour>
      <point x="262" y="493" type="curve" smooth="yes"/>
      <point x="346" y="493"/>
      <point x="399" y="415"/>
      <point x="399" y="339" type="curve" smooth="yes"/>
      <point x="399" y="264"/>
      <point x="352" y="204"/>
      <point x="282" y="204" type="curve" smooth="yes"/>
      <point x="191" y="204"/>
      <point x="139" y="274"/>
      <point x="139" y="357" type="curve" smooth="yes"/>
      <point x="139" y="427"/>
      <point x="182" y="493"/>
    </contour>
    <contour>
      <point x="361" y="487" type="curve"/>
      <point x="359" y="474" type="line"/>
      <point x="499" y="474" type="line"/>
      <point x="530" y="555" type="line"/>
      <point x="521" y="559" type="line"/>
      <point x="487" y="514"/>
      <point x="450" y="493"/>
    </contour>
  </outline>
</glyph>
<glyph name="h" format="2">
  <advance width="634"/>
  <unicode hex="0068"/>
  <outline>
    <contour>
      <point x="470" y="56" type="line" smooth="yes"/>
      <point x="470" y="8"/>
      <point x="428" y="16"/>
      <point x="383" y="14" type="curve"/>
      <point x="383" y="0" type="line"/>
      <point x="624" y="0" type="line"/>
      <point x="624" y="14" type="line"/>
      <point x="569" y="16"/>
      <point x="539" y="8"/>
      <point x="539" y="56" type="curve" smooth="yes"/>
      <point x="539" y="346" type="line" smooth="yes"/>
      <point x="539" y="443"/>
      <point x="475" y="511"/>
      <point x="376" y="511" type="curve" smooth="yes"/>
      <point x="322" y="511"/>
      <point x="238" y="450"/>
      <point x="186" y="415" type="curve"/>
      <point x="186" y="771" type="line"/>
      <point x="15" y="710" type="line"/>
      <point x="15" y="695" type="line"/>
      <point x="77" y="714"/>
      <point x="117" y="737"/>
      <point x="117" y="650" type="curve" smooth="yes"/>
      <point x="117" y="52" type="line" smooth="yes"/>
      <point x="117" y="8"/>
      <point x="75" y="16"/>
      <point x="31" y="14" type="curve"/>
      <point x="31" y="0" type="line"/>
      <point x="272" y="0" type="line"/>
      <point x="272" y="14" type="line"/>
      <point x="217" y="16"/>
      <point x="186" y="8"/>
      <point x="186" y="56" type="curve" smooth="yes"/>
      <point x="186" y="388" type="line"/>
      <point x="215" y="410"/>
      <point x="281" y="464"/>
      <point x="344" y="464" type="curve" smooth="yes"/>
      <point x="435" y="464"/>
      <point x="470" y="404"/>
      <point x="470" y="297" type="curve" smooth="yes"/>
    </contour>
  </outline>
</glyph>
<glyph name="i" format="2">
  <advance width="279"/>
  <unicode hex="0069"/>
  <anchor x="140" y="500" name="_top"/>
  <anchor x="140" y="760" name="top"/>
  <outline>
    <component base="idotless"/>
    <contour>
      <point x="139" y="653" type="curve" smooth="yes"/>
      <point x="109" y="653"/>
      <point x="85" y="678"/>
      <point x="85" y="707" type="curve" smooth="yes"/>
      <point x="85" y="733"/>
      <point x="106" y="760"/>
      <point x="139" y="760" type="curve" smooth="yes"/>
      <point x="168" y="760"/>
      <point x="192" y="736"/>
      <point x="192" y="707" type="curve" smooth="yes"/>
      <point x="192" y="677"/>
      <point x="169" y="653"/>
    </contour>
  </outline>
</glyph>
<glyph name="j" format="2">
  <advance width="308"/>
  <unicode hex="006A"/>
  <outline>
    <contour>
      <point x="163" y="663" type="curve" smooth="yes"/>
      <point x="133" y="663"/>
      <point x="109" y="688"/>
      <point x="109" y="717" type="curve" smooth="yes"/>
      <point x="109" y="743"/>
      <point x="130" y="770"/>
      <point x="163" y="770" type="curve" smooth="yes"/>
      <point x="192" y="770"/>
      <point x="216" y="746"/>
      <point x="216" y="717" type="curve" smooth="yes"/>
      <point x="216" y="687"/>
      <point x="193" y="663"/>
    </contour>
    <component base="jdotless"/>
  </outline>
</glyph>
<glyph name="k" format="2">
  <advance width="567"/>
  <unicode hex="006B"/>
  <anchor x="300" y="0" name="bottom"/>
  <anchor x="283" y="760" name="top"/>
  <outline>
    <contour>
      <point x="303" y="344" type="line"/>
      <point x="247" y="300" type="line"/>
      <point x="422" y="0" type="line"/>
      <point x="580" y="0" type="line"/>
      <point x="580" y="14" type="line"/>
      <point x="524" y="19"/>
      <point x="499" y="24"/>
      <point x="478" y="58" type="curve" smooth="yes"/>
    </contour>
    <contour>
      <point x="167" y="268" type="line"/>
      <point x="174" y="242" type="line"/>
      <point x="394" y="410" type="line" smooth="yes"/>
      <point x="482" y="477"/>
      <point x="505" y="486"/>
      <point x="556" y="486" type="curve"/>
      <point x="556" y="500" type="line"/>
      <point x="346" y="500" type="line"/>
      <point x="346" y="486" type="line"/>
      <point x="386" y="486" type="line" smooth="yes"/>
      <point x="440" y="486"/>
      <point x="434" y="466"/>
      <point x="400" y="441" type="curve" smooth="yes"/>
    </contour>
    <contour>
      <point x="15" y="712" type="line"/>
      <point x="82" y="733"/>
      <point x="106" y="746"/>
      <point x="106" y="677" type="curve" smooth="yes"/>
      <point x="106" y="66" type="line" smooth="yes"/>
      <point x="106" y="22"/>
      <point x="95" y="16"/>
      <point x="19" y="15" type="curve"/>
      <point x="19" y="0" type="line"/>
      <point x="260" y="0" type="line"/>
      <point x="260" y="15" type="line"/>
      <point x="185" y="16"/>
      <point x="175" y="22"/>
      <point x="175" y="66" type="curve" smooth="yes"/>
      <point x="175" y="780" type="line"/>
      <point x="15" y="729" type="line"/>
    </contour>
  </outline>
</glyph>
<glyph name="l" format="2">
  <advance width="287"/>
  <unicode hex="006C"/>
  <anchor x="147" y="0" name="bottom"/>
  <anchor x="147" y="380" name="center"/>
  <anchor x="147" y="760" name="top"/>
  <anchor x="267" y="760" name="topright"/>
  <outline>
    <contour>
      <point x="184" y="61" type="curve" smooth="yes"/>
      <point x="184" y="771" type="line"/>
      <point x="15" y="710" type="line"/>
      <point x="15" y="696" type="line"/>
      <point x="48" y="705"/>
      <point x="115" y="741"/>
      <point x="115" y="670" type="curve" smooth="yes"/>
      <point x="115" y="65" type="line" smooth="yes"/>
      <point x="115" y="17"/>
      <point x="73" y="16"/>
      <point x="28" y="14" type="curve"/>
      <point x="28" y="0" type="line"/>
      <point x="268" y="0" type="line"/>
      <point x="268" y="14" type="line"/>
      <point x="215" y="16"/>
      <point x="184" y="17"/>
    </contour>
  </outline>
</glyph>
<glyph name="m" format="2">
  <advance width="895"/>
  <unicode hex="006D"/>
  <outline>
    <contour>
      <point x="186" y="60" type="curve" smooth="yes"/>
      <point x="186" y="511" type="line"/>
      <point x="16" y="460" type="line"/>
      <point x="16" y="444" type="line"/>
      <point x="81" y="462"/>
      <point x="117" y="480"/>
      <point x="117" y="423" type="curve" smooth="yes"/>
      <point x="117" y="60" type="line" smooth="yes"/>
      <point x="117" y="11"/>
      <point x="75" y="16"/>
      <point x="30" y="14" type="curve"/>
      <point x="30" y="0" type="line"/>
      <point x="273" y="0" type="line"/>
      <point x="273" y="14" type="line"/>
      <point x="218" y="16"/>
      <point x="186" y="11"/>
    </contour>
    <contour>
      <point x="483" y="408" type="curve"/>
      <point x="484" y="383" type="line"/>
      <point x="509" y="403"/>
      <point x="567" y="462"/>
      <point x="621" y="462" type="curve" smooth="yes"/>
      <point x="674" y="462"/>
      <point x="731" y="436"/>
      <point x="731" y="319" type="curve" smooth="yes"/>
      <point x="731" y="60" type="line" smooth="yes"/>
      <point x="731" y="11"/>
      <point x="689" y="16"/>
      <point x="644" y="14" type="curve"/>
      <point x="644" y="0" type="line"/>
      <point x="885" y="0" type="line"/>
      <point x="885" y="14" type="line"/>
      <point x="830" y="16"/>
      <point x="800" y="11"/>
      <point x="800" y="60" type="curve" smooth="yes"/>
      <point x="800" y="349" type="line" smooth="yes"/>
      <point x="800" y="442"/>
      <point x="759" y="511"/>
      <point x="646" y="511" type="curve" smooth="yes"/>
      <point x="602" y="511"/>
      <point x="527" y="443"/>
    </contour>
    <contour>
      <point x="183" y="411" type="curve"/>
      <point x="183" y="383" type="line"/>
      <point x="208" y="406"/>
      <point x="267" y="462"/>
      <point x="317" y="462" type="curve" smooth="yes"/>
      <point x="372" y="462"/>
      <point x="428" y="434"/>
      <point x="428" y="319" type="curve" smooth="yes"/>
      <point x="428" y="60" type="line" smooth="yes"/>
      <point x="428" y="11"/>
      <point x="386" y="16"/>
      <point x="341" y="14" type="curve"/>
      <point x="341" y="0" type="line"/>
      <point x="582" y="0" type="line"/>
      <point x="582" y="14" type="line"/>
      <point x="527" y="16"/>
      <point x="497" y="11"/>
      <point x="497" y="60" type="curve" smooth="yes"/>
      <point x="497" y="349" type="line" smooth="yes"/>
      <point x="497" y="439"/>
      <point x="455" y="511"/>
      <point x="340" y="511" type="curve" smooth="yes"/>
      <point x="299" y="511"/>
      <point x="227" y="446"/>
    </contour>
  </outline>
</glyph>
<glyph name="n" format="2">
  <advance width="639"/>
  <unicode hex="006E"/>
  <anchor x="329" y="0" name="bottom"/>
  <anchor x="347" y="500" name="top"/>
  <outline>
    <contour>
      <point x="471" y="60" type="line" smooth="yes"/>
      <point x="471" y="11"/>
      <point x="429" y="16"/>
      <point x="384" y="14" type="curve"/>
      <point x="384" y="0" type="line"/>
      <point x="629" y="0" type="line"/>
      <point x="629" y="14" type="line"/>
      <point x="574" y="16"/>
      <point x="542" y="11"/>
      <point x="542" y="60" type="curve" smooth="yes"/>
      <point x="542" y="347" type="line" smooth="yes"/>
      <point x="542" y="440"/>
      <point x="475" y="511"/>
      <point x="378" y="511" type="curve" smooth="yes"/>
      <point x="328" y="511"/>
      <point x="238" y="443"/>
      <point x="186" y="408" type="curve"/>
      <point x="186" y="511" type="line"/>
      <point x="16" y="460" type="line"/>
      <point x="16" y="444" type="line"/>
      <point x="81" y="462"/>
      <point x="117" y="480"/>
      <point x="117" y="423" type="curve" smooth="yes"/>
      <point x="117" y="60" type="line" smooth="yes"/>
      <point x="117" y="11"/>
      <point x="75" y="16"/>
      <point x="30" y="14" type="curve"/>
      <point x="30" y="0" type="line"/>
      <point x="273" y="0" type="line"/>
      <point x="273" y="14" type="line"/>
      <point x="218" y="16"/>
      <point x="186" y="11"/>
      <point x="186" y="60" type="curve" smooth="yes"/>
      <point x="186" y="376" type="line"/>
      <point x="215" y="398"/>
      <point x="289" y="461"/>
      <point x="353" y="461" type="curve" smooth="yes"/>
      <point x="426" y="461"/>
      <point x="471" y="420"/>
      <point x="471" y="317" type="curve" smooth="yes"/>
    </contour>
  </outline>
</glyph>
<glyph name="o" format="2">
  <advance width="584"/>
  <unicode hex="006F"/>
  <anchor x="293" y="0" name="bottom"/>
  <anchor x="293" y="250" name="center"/>
  <anchor x="523" y="10" name="ogonek"/>
  <anchor x="295" y="500" name="top"/>
  <anchor x="561" y="500" name="topright"/>
  <outline>
    <contour>
      <point x="295" y="-11" type="curve" smooth="yes"/>
      <point x="442" y="-11"/>
      <point x="542" y="112"/>
      <point x="542" y="250" type="curve" smooth="yes"/>
      <point x="542" y="392"/>
      <point x="442" y="511"/>
      <point x="295" y="511" type="curve" smooth="yes"/>
      <point x="148" y="511"/>
      <point x="42" y="392"/>
      <point x="42" y="250" type="curve" smooth="yes"/>
      <point x="42" y="112"/>
      <point x="148" y="-11"/>
    </contour>
    <contour>
      <point x="295" y="483" type="curve" smooth="yes"/>
      <point x="395" y="483"/>
      <point x="462" y="382"/>
      <point x="462" y="250" type="curve" smooth="yes"/>
      <point x="462" y="122"/>
      <point x="394" y="17"/>
      <point x="295" y="17" type="curve" smooth="yes"/>
      <point x="195" y="17"/>
      <point x="122" y="122"/>
      <point x="122" y="250" type="curve" smooth="yes"/>
      <point x="122" y="382"/>
      <point x="195" y="483"/>
    </contour>
  </outline>
</glyph>
<glyph name="p" format="2">
  <advance width="611"/>
  <unicode hex="0070"/>
  <outline>
    <contour>
      <point x="181" y="380" type="line"/>
      <point x="222" y="429"/>
      <point x="279" y="461"/>
      <point x="331" y="461" type="curve" smooth="yes"/>
      <point x="428" y="461"/>
      <point x="503" y="378"/>
      <point x="503" y="250" type="curve" smooth="yes"/>
      <point x="503" y="128"/>
      <point x="443" y="33"/>
      <point x="329" y="33" type="curve" smooth="yes"/>
      <point x="262" y="33"/>
      <point x="221" y="63"/>
      <point x="183" y="92" type="curve"/>
      <point x="137" y="41" type="line"/>
      <point x="174" y="23"/>
      <point x="220" y="-3"/>
      <point x="302" y="-3" type="curve" smooth="yes"/>
      <point x="457" y="-3"/>
      <point x="569" y="117"/>
      <point x="569" y="284" type="curve" smooth="yes"/>
      <point x="569" y="425"/>
      <point x="480" y="511"/>
      <point x="368" y="511" type="curve" smooth="yes"/>
      <point x="284" y="511"/>
      <point x="236" y="464"/>
      <point x="181" y="414" type="curve"/>
    </contour>
    <contour>
      <point x="13" y="444" type="line"/>
      <point x="88" y="462"/>
      <point x="114" y="475"/>
      <point x="114" y="409" type="curve" smooth="yes"/>
      <point x="114" y="-175" type="line" smooth="yes"/>
      <point x="114" y="-223"/>
      <point x="102" y="-224"/>
      <point x="27" y="-226" type="curve"/>
      <point x="27" y="-240" type="line"/>
      <point x="305" y="-240" type="line"/>
      <point x="305" y="-226" type="line"/>
      <point x="213" y="-224"/>
      <point x="183" y="-223"/>
      <point x="183" y="-175" type="curve" smooth="yes"/>
      <point x="183" y="511" type="line"/>
      <point x="13" y="460" type="line"/>
    </contour>
  </outline>
</glyph>
<glyph name="q" format="2">
  <advance width="575"/>
  <unicode hex="0071"/>
  <outline>
    <contour>
      <point x="42" y="235" type="curve" smooth="yes"/>
      <point x="42" y="97"/>
      <point x="125" y="-10"/>
      <point x="247" y="-10" type="curve" smooth="yes"/>
      <point x="337" y="-10"/>
      <point x="399" y="47"/>
      <point x="425" y="76" type="curve"/>
      <point x="425" y="-181" type="line" smooth="yes"/>
      <point x="425" y="-230"/>
      <point x="393" y="-224"/>
      <point x="308" y="-226" type="curve"/>
      <point x="308" y="-240" type="line"/>
      <point x="579" y="-240" type="line"/>
      <point x="579" y="-226" type="line"/>
      <point x="524" y="-224"/>
      <point x="494" y="-230"/>
      <point x="494" y="-181" type="curve" smooth="yes"/>
      <point x="494" y="511" type="line"/>
      <point x="486" y="511" type="line"/>
      <point x="464" y="475" type="line"/>
      <point x="424" y="492"/>
      <point x="376" y="511"/>
      <point x="323" y="511" type="curve" smooth="yes"/>
      <point x="147" y="511"/>
      <point x="42" y="395"/>
    </contour>
    <contour>
      <point x="106" y="272" type="curve" smooth="yes"/>
      <point x="106" y="400"/>
      <point x="175" y="477"/>
      <point x="284" y="477" type="curve" smooth="yes"/>
      <point x="332" y="477"/>
      <point x="386" y="452"/>
      <point x="425" y="423" type="curve"/>
      <point x="425" y="110" type="line"/>
      <point x="378" y="65"/>
      <point x="332" y="44"/>
      <point x="280" y="44" type="curve" smooth="yes"/>
      <point x="185" y="44"/>
      <point x="106" y="137"/>
    </contour>
  </outline>
</glyph>
<glyph name="r" format="2">
  <advance width="469"/>
  <unicode hex="0072"/>
  <anchor x="144" y="0" name="bottom"/>
  <anchor x="235" y="500" name="top"/>
  <outline>
    <contour>
      <point x="412" y="315" type="line"/>
      <point x="455" y="438" type="line"/>
      <point x="440" y="478"/>
      <point x="399" y="513"/>
      <point x="347" y="513" type="curve" smooth="yes"/>
      <point x="277" y="513"/>
      <point x="208" y="422"/>
      <point x="175" y="380" type="curve"/>
      <point x="175" y="347" type="line"/>
      <point x="223" y="404"/>
      <point x="274" y="470"/>
      <point x="322" y="470" type="curve" smooth="yes"/>
      <point x="380" y="470"/>
      <point x="413" y="419"/>
      <point x="399" y="315" type="curve"/>
    </contour>
    <contour>
      <point x="16" y="445" type="line"/>
      <point x="72" y="463"/>
      <point x="108" y="476"/>
      <point x="108" y="416" type="curve" smooth="yes"/>
      <point x="108" y="54" type="line" smooth="yes"/>
      <point x="108" y="13"/>
      <point x="89" y="15"/>
      <point x="21" y="14" type="curve"/>
      <point x="21" y="0" type="line"/>
      <point x="322" y="0" type="line"/>
      <point x="322" y="14" type="line"/>
      <point x="208" y="15"/>
      <point x="177" y="11"/>
      <point x="177" y="58" type="curve" smooth="yes"/>
      <point x="177" y="511" type="line"/>
      <point x="16" y="460" type="line"/>
    </contour>
  </outline>
</glyph>
<glyph name="s" format="2">
  <advance width="460"/>
  <unicode hex="0073"/>
  <anchor x="225" y="0" name="bottom"/>
  <anchor x="225" y="500" name="top"/>
  <outline>
    <contour>
      <point x="400" y="461" type="line"/>
      <point x="365" y="485"/>
      <point x="294" y="511"/>
      <point x="224" y="511" type="curve" smooth="yes"/>
      <point x="120" y="511"/>
      <point x="50" y="465"/>
      <point x="50" y="383" type="curve" smooth="yes"/>
      <point x="50" y="309"/>
      <point x="103" y="273"/>
      <point x="172" y="246" type="curve" smooth="yes"/>
      <point x="244" y="218" type="line" smooth="yes"/>
      <point x="324" y="187"/>
      <point x="348" y="156"/>
      <point x="348" y="114" type="curve" smooth="yes"/>
      <point x="348" y="63"/>
      <point x="302" y="13"/>
      <point x="226" y="13" type="curve" smooth="yes"/>
      <point x="148" y="13"/>
      <point x="79" y="80"/>
      <point x="68" y="189" type="curve"/>
      <point x="53" y="189" type="line"/>
      <point x="46" y="47" type="line"/>
      <point x="75" y="27"/>
      <point x="151" y="-11"/>
      <point x="225" y="-11" type="curve" smooth="yes"/>
      <point x="334" y="-11"/>
      <point x="414" y="52"/>
      <point x="414" y="132" type="curve" smooth="yes"/>
      <point x="414" y="202"/>
      <point x="374" y="234"/>
      <point x="286" y="269" type="curve" smooth="yes"/>
      <point x="212" y="298" type="line" smooth="yes"/>
      <point x="151" y="322"/>
      <point x="116" y="348"/>
      <point x="116" y="401" type="curve" smooth="yes"/>
      <point x="116" y="451"/>
      <point x="152" y="489"/>
      <point x="217" y="489" type="curve" smooth="yes"/>
      <point x="295" y="489"/>
      <point x="361" y="444"/>
      <point x="366" y="328" type="curve"/>
      <point x="380" y="328" type="line"/>
    </contour>
  </outline>
</glyph>
<glyph name="t" format="2">
  <advance width="381"/>
  <unicode hex="0074"/>
  <anchor x="220" y="0" name="bottom"/>
  <anchor x="191" y="250" name="center"/>
  <anchor x="191" y="500" name="top"/>
  <anchor x="361" y="500" name="topright"/>
  <outline>
    <contour>
      <point x="351" y="91" type="line"/>
      <point x="315" y="51"/>
      <point x="289" y="34"/>
      <point x="247" y="34" type="curve" smooth="yes"/>
      <point x="209" y="34"/>
      <point x="171" y="65"/>
      <point x="171" y="129" type="curve" smooth="yes"/>
      <point x="171" y="479" type="line"/>
      <point x="330" y="479" type="line"/>
      <point x="330" y="500" type="line"/>
      <point x="171" y="500" type="line"/>
      <point x="171" y="630" type="line"/>
      <point x="152" y="630" type="line"/>
      <point x="143" y="566"/>
      <point x="109" y="513"/>
      <point x="30" y="500" type="curve"/>
      <point x="30" y="479" type="line"/>
      <point x="102" y="479" type="line"/>
      <point x="102" y="105" type="line" smooth="yes"/>
      <point x="102" y="26"/>
      <point x="164" y="-11"/>
      <point x="220" y="-11" type="curve" smooth="yes"/>
      <point x="288" y="-11"/>
      <point x="327" y="31"/>
      <point x="365" y="79" type="curve"/>
    </contour>
  </outline>
</glyph>
<glyph name="u" format="2">
  <advance width="634"/>
  <unicode hex="0075"/>
  <anchor x="324" y="0" name="bottom"/>
  <anchor x="548" y="0" name="ogonek"/>
  <anchor x="324" y="500" name="top"/>
  <anchor x="609" y="500" name="topright"/>
  <outline>
    <contour>
      <point x="10" y="444" type="line"/>
      <point x="77" y="463"/>
      <point x="111" y="485"/>
      <point x="111" y="419" type="curve" smooth="yes"/>
      <point x="111" y="151" type="line" smooth="yes"/>
      <point x="111" y="56"/>
      <point x="176" y="-11"/>
      <point x="270" y="-11" type="curve" smooth="yes"/>
      <point x="334" y="-11"/>
      <point x="404" y="51"/>
      <point x="449" y="96" type="curve"/>
      <point x="449" y="0" type="line"/>
      <point x="619" y="0" type="line"/>
      <point x="619" y="14" type="line"/>
      <point x="553" y="16"/>
      <point x="518" y="10"/>
      <point x="518" y="87" type="curve" smooth="yes"/>
      <point x="518" y="511" type="line"/>
      <point x="348" y="460" type="line"/>
      <point x="348" y="444" type="line"/>
      <point x="421" y="466"/>
      <point x="449" y="485"/>
      <point x="449" y="419" type="curve" smooth="yes"/>
      <point x="449" y="121" type="line"/>
      <point x="420" y="89"/>
      <point x="352" y="35"/>
      <point x="292" y="35" type="curve" smooth="yes"/>
      <point x="225" y="35"/>
      <point x="181" y="88"/>
      <point x="181" y="183" type="curve" smooth="yes"/>
      <point x="181" y="511" type="line"/>
      <point x="10" y="460" type="line"/>
    </contour>
  </outline>
</glyph>
<glyph name="v" format="2">
  <advance width="508"/>
  <unicode hex="0076"/>
  <outline>
    <contour>
      <point x="-30" y="486" type="curve"/>
      <point x="-30" y="500" type="line"/>
      <point x="199" y="500" type="line"/>
      <point x="199" y="486" type="line"/>
      <point x="127" y="485"/>
      <point x="116" y="484"/>
      <point x="137" y="432" type="curve" smooth="yes"/>
      <point x="272" y="90" type="line"/>
      <point x="403" y="420" type="line" smooth="yes"/>
      <point x="430" y="487"/>
      <point x="374" y="488"/>
      <point x="325" y="486" type="curve"/>
      <point x="325" y="500" type="line"/>
      <point x="536" y="500" type="line"/>
      <point x="536" y="486" type="line"/>
      <point x="488" y="485"/>
      <point x="464" y="491"/>
      <point x="436" y="432" type="curve" smooth="yes"/>
      <point x="266" y="0" type="line"/>
      <point x="241" y="0" type="line"/>
      <point x="64" y="438" type="line" smooth="yes"/>
      <point x="45" y="485"/>
      <point x="40" y="484"/>
    </contour>
  </outline>
</glyph>
<glyph name="w" format="2">
  <advance width="741"/>
  <unicode hex="0077"/>
  <anchor x="371" y="0" name="bottom"/>
  <anchor x="371" y="500" name="top"/>
  <outline>
    <contour>
      <point x="246" y="486" type="line"/>
      <point x="310" y="486"/>
      <point x="314" y="483"/>
      <point x="326" y="451" type="curve" smooth="yes"/>
      <point x="501" y="0" type="line"/>
      <point x="523" y="0" type="line"/>
      <point x="676" y="438" type="line" smooth="yes"/>
      <point x="695" y="492"/>
      <point x="727" y="485"/>
      <point x="775" y="486" type="curve"/>
      <point x="775" y="500" type="line"/>
      <point x="585" y="500" type="line"/>
      <point x="585" y="486" type="line"/>
      <point x="645" y="485"/>
      <point x="667" y="489"/>
      <point x="645" y="430" type="curve" smooth="yes"/>
      <point x="528" y="108" type="line"/>
      <point x="390" y="461" type="line" smooth="yes"/>
      <point x="380" y="486"/>
      <point x="400" y="485"/>
      <point x="468" y="486" type="curve"/>
      <point x="468" y="500" type="line"/>
      <point x="246" y="500" type="line"/>
    </contour>
    <contour>
      <point x="360" y="365" type="line"/>
      <point x="264" y="108" type="line"/>
      <point x="115" y="455" type="line" smooth="yes"/>
      <point x="101" y="487"/>
      <point x="124" y="485"/>
      <point x="186" y="486" type="curve"/>
      <point x="186" y="500" type="line"/>
      <point x="-40" y="500" type="line"/>
      <point x="-40" y="486" type="line"/>
      <point x="30" y="484"/>
      <point x="35" y="483"/>
      <point x="54" y="438" type="curve" smooth="yes"/>
      <point x="235" y="0" type="line"/>
      <point x="257" y="0" type="line"/>
      <point x="385" y="356" type="line"/>
    </contour>
  </outline>
</glyph>
<glyph name="x" format="2">
  <advance width="556"/>
  <unicode hex="0078"/>
  <outline>
    <contour>
      <point x="11" y="486" type="line"/>
      <point x="72" y="484"/>
      <point x="89" y="479"/>
      <point x="118" y="437" type="curve" smooth="yes"/>
      <point x="373" y="71" type="line" smooth="yes"/>
      <point x="408" y="21"/>
      <point x="392" y="15"/>
      <point x="312" y="14" type="curve"/>
      <point x="312" y="0" type="line"/>
      <point x="564" y="0" type="line"/>
      <point x="564" y="14" type="line"/>
      <point x="496" y="16"/>
      <point x="471" y="47"/>
      <point x="435" y="100" type="curve" smooth="yes"/>
      <point x="192" y="452" type="line" smooth="yes"/>
      <point x="168" y="487"/>
      <point x="185" y="485"/>
      <point x="245" y="486" type="curve"/>
      <point x="245" y="500" type="line"/>
      <point x="11" y="500" type="line"/>
    </contour>
    <contour>
      <point x="2" y="0" type="line"/>
      <point x="211" y="0" type="line"/>
      <point x="211" y="14" type="line"/>
      <point x="162" y="12"/>
      <point x="101" y="16"/>
      <point x="152" y="79" type="curve" smooth="yes"/>
      <point x="290" y="249" type="line"/>
      <point x="268" y="264" type="line"/>
      <point x="109" y="64" type="line" smooth="yes"/>
      <point x="67" y="11"/>
      <point x="48" y="15"/>
      <point x="2" y="14" type="curve"/>
    </contour>
    <contour>
      <point x="272" y="264" type="line"/>
      <point x="295" y="249" type="line"/>
      <point x="425" y="421" type="line" smooth="yes"/>
      <point x="472" y="483"/>
      <point x="486" y="485"/>
      <point x="546" y="486" type="curve"/>
      <point x="546" y="500" type="line"/>
      <point x="329" y="500" type="line"/>
      <point x="329" y="486" type="line"/>
      <point x="378" y="488"/>
      <point x="448" y="489"/>
      <point x="395" y="421" type="curve" smooth="yes"/>
    </contour>
  </outline>
</glyph>
<glyph name="y" format="2">
  <advance width="470"/>
  <unicode hex="0079"/>
  <anchor x="238" y="0" name="bottom"/>
  <anchor x="238" y="500" name="top"/>
  <outline>
    <contour>
      <point x="-54" y="486" type="curve"/>
      <point x="-54" y="500" type="line"/>
      <point x="179" y="500" type="line"/>
      <point x="179" y="486" type="line"/>
      <point x="107" y="485"/>
      <point x="83" y="484"/>
      <point x="107" y="431" type="curve" smooth="yes"/>
      <point x="247" y="127" type="line"/>
      <point x="381" y="439" type="line" smooth="yes"/>
      <point x="403" y="491"/>
      <point x="377" y="488"/>
      <point x="308" y="486" type="curve"/>
      <point x="308" y="500" type="line"/>
      <point x="510" y="500" type="line"/>
      <point x="510" y="486" type="line"/>
      <point x="442" y="485"/>
      <point x="441" y="491"/>
      <point x="418" y="438" type="curve" smooth="yes"/>
      <point x="121" y="-240" type="line"/>
      <point x="79" y="-221" type="line"/>
      <point x="213" y="46" type="line"/>
      <point x="22" y="458" type="line" smooth="yes"/>
      <point x="10" y="483"/>
      <point x="-5" y="485"/>
    </contour>
  </outline>
</glyph>
<glyph name="z" format="2">
  <advance width="484"/>
  <unicode hex="007A"/>
  <anchor x="247" y="0" name="bottom"/>
  <anchor x="247" y="250" name="center"/>
  <anchor x="247" y="500" name="top"/>
  <outline>
    <contour>
      <point x="47" y="0" type="line"/>
      <point x="38" y="15" type="line"/>
      <point x="365" y="478" type="line"/>
      <point x="170" y="478" type="line" smooth="yes"/>
      <point x="109" y="478"/>
      <point x="76" y="425"/>
      <point x="62" y="342" type="curve"/>
      <point x="46" y="342" type="line"/>
      <point x="65" y="500" type="line"/>
      <point x="446" y="500" type="line"/>
      <point x="456" y="485" type="line"/>
      <point x="125" y="23" type="line"/>
      <point x="350" y="23" type="line" smooth="yes"/>
      <point x="418" y="23"/>
      <point x="435" y="91"/>
      <point x="446" y="158" type="curve"/>
      <point x="462" y="158" type="line"/>
      <point x="442" y="0" type="line"/>
    </contour>
  </outline>
</glyph>
<glyph name="braceleft" format="2">
  <advance width="370"/>
  <unicode hex="007B"/>
  <outline>
    <contour>
      <point x="233" y="4" type="curve" smooth="yes"/>
      <point x="233" y="198"/>
      <point x="187" y="251"/>
      <point x="81" y="276" type="curve"/>
      <point x="81" y="264" type="line"/>
      <point x="186" y="291"/>
      <point x="233" y="322"/>
      <point x="233" y="518" type="curve" smooth="yes"/>
      <point x="233" y="638"/>
      <point x="212" y="682"/>
      <point x="330" y="733" type="curve"/>
      <point x="326" y="743" type="line"/>
      <point x="126" y="693"/>
      <point x="156" y="580"/>
      <point x="156" y="470" type="curve" smooth="yes"/>
      <point x="156" y="342"/>
      <point x="150" y="319"/>
      <point x="126" y="297" type="curve" smooth="yes"/>
      <point x="109" y="282"/>
      <point x="74" y="277"/>
      <point x="53" y="272" type="curve"/>
      <point x="53" y="267" type="line"/>
      <point x="74" y="263"/>
      <point x="108" y="259"/>
      <point x="125" y="242" type="curve" smooth="yes"/>
      <point x="161" y="206"/>
      <point x="156" y="130"/>
      <point x="156" y="29" type="curve" smooth="yes"/>
      <point x="156" y="-37"/>
      <point x="148" y="-175"/>
      <point x="326" y="-220" type="curve"/>
      <point x="330" y="-210" type="line"/>
      <point x="285" y="-181"/>
      <point x="233" y="-156"/>
    </contour>
  </outline>
</glyph>
<glyph name="bar" format="2">
  <advance width="173"/>
  <unicode hex="007C"/>
  <outline>
    <contour>
      <point x="70" y="713" type="line"/>
      <point x="70" y="-127" type="line"/>
      <point x="103" y="-127" type="line"/>
      <point x="103" y="713" type="line"/>
    </contour>
  </outline>
</glyph>
<glyph name="asciitilde" format="2">
  <advance width="462"/>
  <unicode hex="007E"/>
  <outline>
    <contour>
      <point x="325" y="239" type="curve" smooth="yes"/>
      <point x="274" y="239"/>
      <point x="180" y="311"/>
      <point x="127" y="311" type="curve" smooth="yes"/>
      <point x="105" y="311"/>
      <point x="84" y="285"/>
      <point x="56" y="249" type="curve"/>
      <point x="46" y="255" type="line"/>
      <point x="87" y="319"/>
      <point x="120" y="371"/>
      <point x="142" y="371" type="curve" smooth="yes"/>
      <point x="187" y="371"/>
      <point x="284" y="301"/>
      <point x="340" y="301" type="curve" smooth="yes"/>
      <point x="357" y="301"/>
      <point x="377" y="320"/>
      <point x="406" y="369" type="curve"/>
      <point x="417" y="364" type="line"/>
      <point x="385" y="298"/>
      <point x="355" y="239"/>
    </contour>
  </outline>
</glyph>
<glyph name="cent" format="2">
  <advance width="514"/>
  <unicode hex="00A2"/>
  <outline>
    <component base="c" xScale="0.9706" yScale="0.9706" xOffset="1" yOffset="6"/>
    <contour>
      <point x="248" y="631" type="line"/>
      <point x="248" y="497" type="line"/>
      <point x="283" y="497" type="line"/>
      <point x="283" y="631" type="line"/>
    </contour>
    <contour>
      <point x="248" y="3" type="line"/>
      <point x="248" y="-135" type="line"/>
      <point x="283" y="-135" type="line"/>
      <point x="283" y="3" type="line"/>
    </contour>
  </outline>
</glyph>
<glyph name="sterling" format="2">
  <advance width="595"/>
  <unicode hex="00A3"/>
  <outline>
    <contour>
      <point x="187" y="571" type="curve" smooth="yes"/>
      <point x="187" y="631"/>
      <point x="229" y="690"/>
      <point x="325" y="690" type="curve" smooth="yes"/>
      <point x="400" y="690"/>
      <point x="492" y="641"/>
      <point x="489" y="459" type="curve"/>
      <point x="506" y="459" type="line"/>
      <point x="542" y="619" type="line"/>
      <point x="505" y="663"/>
      <point x="432" y="714"/>
      <point x="326" y="714" type="curve" smooth="yes"/>
      <point x="230" y="714"/>
      <point x="114" y="668"/>
      <point x="112" y="548" type="curve" smooth="yes"/>
      <point x="110" y="429"/>
      <point x="202" y="348"/>
      <point x="202" y="237" type="curve" smooth="yes"/>
      <point x="202" y="170"/>
      <point x="140" y="75"/>
      <point x="64" y="27" type="curve"/>
      <point x="73" y="0" type="line"/>
      <point x="505" y="0" type="line"/>
      <point x="552" y="215" type="line"/>
      <point x="535" y="215" type="line"/>
      <point x="499" y="81"/>
      <point x="467" y="39"/>
      <point x="388" y="38" type="curve" smooth="yes"/>
      <point x="122" y="36" type="line"/>
      <point x="143" y="46"/>
      <point x="278" y="147"/>
      <point x="278" y="291" type="curve" smooth="yes"/>
      <point x="278" y="392"/>
      <point x="187" y="468"/>
    </contour>
    <contour>
      <point x="445" y="382" type="line"/>
      <point x="34" y="381" type="line"/>
      <point x="34" y="352" type="line"/>
      <point x="436" y="352" type="line"/>
    </contour>
    <contour>
      <point x="444" y="286" type="line"/>
      <point x="33" y="285" type="line"/>
      <point x="33" y="256" type="line"/>
      <point x="435" y="256" type="line"/>
    </contour>
  </outline>
</glyph>
<glyph name="currency" format="2">
  <advance width="600"/>
  <unicode hex="00A4"/>
  <outline>
    <contour>
      <point x="299" y="120" type="curve" smooth="yes"/>
      <point x="411" y="120"/>
      <point x="495" y="204"/>
      <point x="495" y="317" type="curve" smooth="yes"/>
      <point x="495" y="429"/>
      <point x="411" y="513"/>
      <point x="299" y="513" type="curve" smooth="yes"/>
      <point x="187" y="513"/>
      <point x="103" y="429"/>
      <point x="103" y="317" type="curve" smooth="yes"/>
      <point x="103" y="204"/>
      <point x="187" y="120"/>
    </contour>
    <contour>
      <point x="299" y="157" type="curve" smooth="yes"/>
      <point x="208" y="157"/>
      <point x="140" y="226"/>
      <point x="140" y="317" type="curve" smooth="yes"/>
      <point x="140" y="408"/>
      <point x="208" y="476"/>
      <point x="299" y="476" type="curve" smooth="yes"/>
      <point x="390" y="476"/>
      <point x="458" y="408"/>
      <point x="458" y="317" type="curve" smooth="yes"/>
      <point x="458" y="226"/>
      <point x="390" y="157"/>
    </contour>
    <contour>
      <point x="64" y="518" type="line"/>
      <point x="154" y="427" type="line"/>
      <point x="179" y="453" type="line"/>
      <point x="89" y="544" type="line"/>
    </contour>
    <contour>
      <point x="532" y="518" type="line"/>
      <point x="507" y="544" type="line"/>
      <point x="417" y="453" type="line"/>
      <point x="442" y="427" type="line"/>
    </contour>
    <contour>
      <point x="67" y="116" type="line"/>
      <point x="92" y="90" type="line"/>
      <point x="182" y="181" type="line"/>
      <point x="157" y="207" type="line"/>
    </contour>
    <contour>
      <point x="535" y="116" type="line"/>
      <point x="445" y="207" type="line"/>
      <point x="420" y="181" type="line"/>
      <point x="510" y="90" type="line"/>
    </contour>
  </outline>
</glyph>
<glyph name="yen" format="2">
  <advance width="593"/>
  <unicode hex="00A5"/>
  <outline>
    <contour>
      <point x="440" y="298" type="line"/>
      <point x="160" y="297" type="line"/>
      <point x="160" y="268" type="line"/>
      <point x="440" y="268" type="line"/>
    </contour>
    <contour>
      <point x="440" y="212" type="line"/>
      <point x="159" y="211" type="line"/>
      <point x="159" y="182" type="line"/>
      <point x="440" y="182" type="line"/>
    </contour>
    <contour>
      <point x="-49" y="686" type="line"/>
      <point x="0" y="686" type="line" smooth="yes"/>
      <point x="41" y="686"/>
      <point x="52" y="665"/>
      <point x="85" y="608" type="curve" smooth="yes"/>
      <point x="268" y="296" type="line"/>
      <point x="268" y="58" type="line" smooth="yes"/>
      <point x="268" y="10"/>
      <point x="231" y="16"/>
      <point x="166" y="14" type="curve"/>
      <point x="166" y="0" type="line"/>
      <point x="441" y="0" type="line"/>
      <point x="441" y="14" type="line"/>
      <point x="376" y="16"/>
      <point x="341" y="10"/>
      <point x="341" y="58" type="curve" smooth="yes"/>
      <point x="341" y="296" type="line"/>
      <point x="515" y="624" type="line" smooth="yes"/>
      <point x="535" y="662"/>
      <point x="543" y="686"/>
      <point x="594" y="686" type="curve" smooth="yes"/>
      <point x="632" y="686" type="line"/>
      <point x="632" y="700" type="line"/>
      <point x="387" y="700" type="line"/>
      <point x="387" y="686" type="line"/>
      <point x="457" y="686" type="line" smooth="yes"/>
      <point x="504" y="686"/>
      <point x="501" y="667"/>
      <point x="467" y="604" type="curve" smooth="yes"/>
      <point x="323" y="336" type="line"/>
      <point x="148" y="633" type="line" smooth="yes"/>
      <point x="126" y="671"/>
      <point x="132" y="686"/>
      <point x="175" y="686" type="curve" smooth="yes"/>
      <point x="248" y="686" type="line"/>
      <point x="248" y="700" type="line"/>
      <point x="-49" y="700" type="line"/>
    </contour>
  </outline>
</glyph>
<glyph name="brokenbar" format="2">
  <advance width="173"/>
  <unicode hex="00A6"/>
  <outline>
    <contour>
      <point x="70" y="713" type="line"/>
      <point x="70" y="348" type="line"/>
      <point x="103" y="348" type="line"/>
      <point x="103" y="713" type="line"/>
    </contour>
    <contour>
      <point x="70" y="238" type="line"/>
      <point x="70" y="-127" type="line"/>
      <point x="103" y="-127" type="line"/>
      <point x="103" y="238" type="line"/>
    </contour>
  </outline>
</glyph>
<glyph name="section" format="2">
  <advance width="508"/>
  <unicode hex="00A7"/>
  <outline>
    <contour>
      <point x="73" y="68" type="line"/>
      <point x="66" y="-72" type="line"/>
      <point x="95" y="-92"/>
      <point x="171" y="-129"/>
      <point x="245" y="-129" type="curve" smooth="yes"/>
      <point x="354" y="-129"/>
      <point x="434" y="-67"/>
      <point x="434" y="11" type="curve" smooth="yes"/>
      <point x="434" y="82"/>
      <point x="395" y="107"/>
      <point x="294" y="149" type="curve" smooth="yes"/>
      <point x="251" y="167" type="line" smooth="yes"/>
      <point x="174" y="199"/>
      <point x="136" y="228"/>
      <point x="136" y="280" type="curve" smooth="yes"/>
      <point x="136" y="328"/>
      <point x="172" y="366"/>
      <point x="237" y="366" type="curve"/>
      <point x="227" y="388" type="line"/>
      <point x="132" y="383"/>
      <point x="69" y="337"/>
      <point x="69" y="262" type="curve" smooth="yes"/>
      <point x="69" y="184"/>
      <point x="136" y="150"/>
      <point x="219" y="113" type="curve" smooth="yes"/>
      <point x="246" y="101" type="line" smooth="yes"/>
      <point x="342" y="58"/>
      <point x="368" y="37"/>
      <point x="368" y="-5" type="curve" smooth="yes"/>
      <point x="368" y="-56"/>
      <point x="322" y="-105"/>
      <point x="246" y="-105" type="curve" smooth="yes"/>
      <point x="168" y="-105"/>
      <point x="99" y="-37"/>
      <point x="88" y="68" type="curve"/>
    </contour>
    <contour>
      <point x="393" y="450" type="curve"/>
      <point x="407" y="450" type="line"/>
      <point x="427" y="583" type="line"/>
      <point x="392" y="607"/>
      <point x="321" y="633"/>
      <point x="251" y="633" type="curve" smooth="yes"/>
      <point x="147" y="633"/>
      <point x="76" y="586"/>
      <point x="76" y="507" type="curve" smooth="yes"/>
      <point x="76" y="427"/>
      <point x="146" y="396"/>
      <point x="234" y="355" type="curve" smooth="yes"/>
      <point x="249" y="348" type="line" smooth="yes"/>
      <point x="311" y="319"/>
      <point x="375" y="290"/>
      <point x="375" y="236" type="curve" smooth="yes"/>
      <point x="375" y="196"/>
      <point x="331" y="146"/>
      <point x="258" y="144" type="curve"/>
      <point x="301" y="125" type="line"/>
      <point x="384" y="141"/>
      <point x="441" y="186"/>
      <point x="441" y="252" type="curve" smooth="yes"/>
      <point x="441" y="324"/>
      <point x="400" y="352"/>
      <point x="295" y="396" type="curve" smooth="yes"/>
      <point x="264" y="409" type="line" smooth="yes"/>
      <point x="183" y="443"/>
      <point x="143" y="471"/>
      <point x="143" y="525" type="curve" smooth="yes"/>
      <point x="143" y="573"/>
      <point x="179" y="611"/>
      <point x="244" y="611" type="curve" smooth="yes"/>
      <point x="322" y="611"/>
      <point x="388" y="566"/>
    </contour>
  </outline>
</glyph>
<glyph name="copyright" format="2">
  <advance width="856"/>
  <unicode hex="00A9"/>
  <outline>
    <contour>
      <point x="428" y="675" type="curve" smooth="yes"/>
      <point x="615" y="675"/>
      <point x="753" y="538"/>
      <point x="753" y="347" type="curve" smooth="yes"/>
      <point x="753" y="155"/>
      <point x="615" y="20"/>
      <point x="428" y="20" type="curve" smooth="yes"/>
      <point x="240" y="20"/>
      <point x="105" y="156"/>
      <point x="105" y="347" type="curve" smooth="yes"/>
      <point x="105" y="538"/>
      <point x="240" y="675"/>
    </contour>
    <contour>
      <point x="437" y="549" type="curve" smooth="yes"/>
      <point x="490" y="549"/>
      <point x="528" y="534"/>
      <point x="571" y="511" type="curve"/>
      <point x="574" y="419" type="line"/>
      <point x="555" y="419" type="line"/>
      <point x="537" y="478"/>
      <point x="496" y="518"/>
      <point x="428" y="518" type="curve" smooth="yes"/>
      <point x="328" y="518"/>
      <point x="305" y="426"/>
      <point x="305" y="373" type="curve" smooth="yes"/>
      <point x="305" y="272"/>
      <point x="359" y="197"/>
      <point x="449" y="197" type="curve" smooth="yes"/>
      <point x="513" y="197"/>
      <point x="548" y="236"/>
      <point x="565" y="289" type="curve"/>
      <point x="586" y="289" type="line"/>
      <point x="574" y="229"/>
      <point x="525" y="151"/>
      <point x="430" y="151" type="curve" smooth="yes"/>
      <point x="312" y="151"/>
      <point x="241" y="244"/>
      <point x="241" y="344" type="curve" smooth="yes"/>
      <point x="241" y="454"/>
      <point x="314" y="549"/>
    </contour>
    <contour>
      <point x="428" y="716" type="curve" smooth="yes"/>
      <point x="217" y="716"/>
      <point x="55" y="562"/>
      <point x="55" y="347" type="curve" smooth="yes"/>
      <point x="55" y="132"/>
      <point x="217" y="-21"/>
      <point x="428" y="-21" type="curve" smooth="yes"/>
      <point x="638" y="-21"/>
      <point x="801" y="132"/>
      <point x="801" y="347" type="curve" smooth="yes"/>
      <point x="801" y="562"/>
      <point x="638" y="716"/>
    </contour>
  </outline>
</glyph>
<glyph name="ordfeminine" format="2">
  <advance width="305"/>
  <unicode hex="00AA"/>
  <outline>
    <contour>
      <point x="170" y="451" type="line"/>
      <point x="269" y="451" type="line"/>
      <point x="269" y="464" type="line"/>
      <point x="240" y="463"/>
      <point x="217" y="466"/>
      <point x="217" y="503" type="curve"/>
      <point x="217" y="666" type="line" smooth="yes"/>
      <point x="217" y="728"/>
      <point x="170" y="771"/>
      <point x="99" y="771" type="curve" smooth="yes"/>
      <point x="9" y="771"/>
      <point x="-20" y="699"/>
      <point x="-21" y="662" type="curve"/>
      <point x="-6" y="662" type="line"/>
      <point x="4" y="709"/>
      <point x="36" y="738"/>
      <point x="84" y="738" type="curve" smooth="yes"/>
      <point x="139" y="738"/>
      <point x="169" y="704"/>
      <point x="169" y="652" type="curve" smooth="yes"/>
    </contour>
    <contour>
      <point x="182" y="527" type="line"/>
      <point x="147" y="497"/>
      <point x="107" y="481"/>
      <point x="77" y="481" type="curve" smooth="yes"/>
      <point x="50" y="481"/>
      <point x="30" y="498"/>
      <point x="30" y="530" type="curve" smooth="yes"/>
      <point x="30" y="556"/>
      <point x="44" y="577"/>
      <point x="79" y="588" type="curve" smooth="yes"/>
      <point x="111" y="598"/>
      <point x="142" y="605"/>
      <point x="182" y="616" type="curve"/>
      <point x="182" y="635" type="line"/>
      <point x="149" y="627"/>
      <point x="122" y="620"/>
      <point x="97" y="613" type="curve" smooth="yes"/>
      <point x="28" y="594"/>
      <point x="-23" y="573"/>
      <point x="-23" y="519" type="curve" smooth="yes"/>
      <point x="-23" y="470"/>
      <point x="16" y="446"/>
      <point x="57" y="446" type="curve" smooth="yes"/>
      <point x="88" y="446"/>
      <point x="133" y="469"/>
      <point x="183" y="509" type="curve"/>
    </contour>
  </outline>
</glyph>
<glyph name="logicalnot" format="2">
  <advance width="600"/>
  <unicode hex="00AC"/>
  <outline>
    <contour>
      <point x="545" y="405" type="line"/>
      <point x="60" y="405" type="line"/>
      <point x="60" y="364" type="line"/>
      <point x="545" y="364" type="line"/>
    </contour>
    <contour>
      <point x="546" y="138" type="line"/>
      <point x="546" y="404" type="line"/>
      <point x="505" y="404" type="line"/>
      <point x="505" y="138" type="line"/>
    </contour>
  </outline>
</glyph>
<glyph name="registered" format="2">
  <advance width="584"/>
  <unicode hex="00AE"/>
  <outline>
    <contour>
      <point x="408" y="338" type="line" smooth="yes"/>
      <point x="377" y="340"/>
      <point x="335" y="435"/>
      <point x="317" y="470" type="curve"/>
      <point x="274" y="465" type="line"/>
      <point x="313" y="394"/>
      <point x="334" y="323"/>
      <point x="401" y="323" type="curve" smooth="yes"/>
      <point x="423" y="323" type="line"/>
      <point x="422" y="337" type="line"/>
    </contour>
    <contour>
      <point x="162" y="599" type="line"/>
      <point x="201" y="599"/>
      <point x="203" y="600"/>
      <point x="203" y="579" type="curve" smooth="yes"/>
      <point x="203" y="354" type="line" smooth="yes"/>
      <point x="203" y="336"/>
      <point x="185" y="339"/>
      <point x="162" y="339" type="curve"/>
      <point x="162" y="326" type="line"/>
      <point x="284" y="326" type="line"/>
      <point x="284" y="339" type="line"/>
      <point x="260" y="339"/>
      <point x="243" y="336"/>
      <point x="243" y="354" type="curve" smooth="yes"/>
      <point x="243" y="459" type="line"/>
      <point x="273" y="459" type="line" smooth="yes"/>
      <point x="350" y="459"/>
      <point x="389" y="493"/>
      <point x="389" y="539" type="curve" smooth="yes"/>
      <point x="389" y="587"/>
      <point x="341" y="612"/>
      <point x="289" y="612" type="curve" smooth="yes"/>
      <point x="162" y="612" type="line"/>
    </contour>
    <contour>
      <point x="243" y="481" type="line"/>
      <point x="243" y="592" type="line"/>
      <point x="268" y="592" type="line" smooth="yes"/>
      <point x="318" y="592"/>
      <point x="346" y="576"/>
      <point x="346" y="537" type="curve" smooth="yes"/>
      <point x="346" y="497"/>
      <point x="316" y="481"/>
      <point x="284" y="481" type="curve" smooth="yes"/>
    </contour>
    <contour>
      <point x="288" y="679" type="curve" smooth="yes"/>
      <point x="414" y="679"/>
      <point x="507" y="585"/>
      <point x="507" y="457" type="curve" smooth="yes"/>
      <point x="507" y="326"/>
      <point x="411" y="235"/>
      <point x="288" y="235" type="curve" smooth="yes"/>
      <point x="161" y="235"/>
      <point x="71" y="326"/>
      <point x="71" y="457" type="curve" smooth="yes"/>
      <point x="71" y="585"/>
      <point x="161" y="679"/>
    </contour>
    <contour>
      <point x="288" y="713" type="curve" smooth="yes"/>
      <point x="141" y="713"/>
      <point x="28" y="606"/>
      <point x="28" y="457" type="curve" smooth="yes"/>
      <point x="28" y="307"/>
      <point x="141" y="200"/>
      <point x="288" y="200" type="curve" smooth="yes"/>
      <point x="434" y="200"/>
      <point x="548" y="307"/>
      <point x="548" y="457" type="curve" smooth="yes"/>
      <point x="548" y="606"/>
      <point x="434" y="713"/>
    </contour>
  </outline>
</glyph>
<glyph name="degree" format="2">
  <advance width="202"/>
  <unicode hex="00B0"/>
  <outline>
    <contour>
      <point x="81" y="550" type="curve" smooth="yes"/>
      <point x="128" y="550"/>
      <point x="162" y="585"/>
      <point x="162" y="632" type="curve" smooth="yes"/>
      <point x="162" y="678"/>
      <point x="128" y="713"/>
      <point x="81" y="713" type="curve" smooth="yes"/>
      <point x="34" y="713"/>
      <point x="0" y="678"/>
      <point x="0" y="632" type="curve" smooth="yes"/>
      <point x="0" y="585"/>
      <point x="34" y="550"/>
    </contour>
    <contour>
      <point x="81" y="575" type="curve" smooth="yes"/>
      <point x="49" y="575"/>
      <point x="28" y="600"/>
      <point x="28" y="632" type="curve" smooth="yes"/>
      <point x="28" y="664"/>
      <point x="49" y="688"/>
      <point x="81" y="688" type="curve" smooth="yes"/>
      <point x="113" y="688"/>
      <point x="134" y="664"/>
      <point x="134" y="632" type="curve" smooth="yes"/>
      <point x="134" y="600"/>
      <point x="113" y="575"/>
    </contour>
  </outline>
</glyph>
<glyph name="plusminus" format="2">
  <advance width="573"/>
  <unicode hex="00B1"/>
  <outline>
    <contour>
      <point x="523" y="404" type="line"/>
      <point x="50" y="404" type="line"/>
      <point x="50" y="363" type="line"/>
      <point x="523" y="363" type="line"/>
    </contour>
    <contour>
      <point x="314" y="231" type="line"/>
      <point x="314" y="534" type="line"/>
      <point x="271" y="534" type="line"/>
      <point x="271" y="231" type="line"/>
    </contour>
    <contour>
      <point x="523" y="135" type="line"/>
      <point x="50" y="135" type="line"/>
      <point x="50" y="95" type="line"/>
      <point x="523" y="95" type="line"/>
    </contour>
  </outline>
</glyph>
<glyph name="twosuperior" format="2">
  <advance width="356"/>
  <unicode hex="00B2"/>
  <outline>
    <contour>
      <point x="58" y="597" type="curve"/>
      <point x="34" y="604" type="line"/>
      <point x="56" y="674"/>
      <point x="100" y="713"/>
      <point x="167" y="713" type="curve" smooth="yes"/>
      <point x="234" y="713"/>
      <point x="288" y="665"/>
      <point x="288" y="601" type="curve" smooth="yes"/>
      <point x="288" y="555"/>
      <point x="272" y="518"/>
      <point x="205" y="462" type="curve" smooth="yes"/>
      <point x="84" y="362" type="line"/>
      <point x="214" y="362" type="line" smooth="yes"/>
      <point x="254" y="362"/>
      <point x="265" y="378"/>
      <point x="279" y="437" type="curve"/>
      <point x="300" y="437" type="line"/>
      <point x="280" y="324" type="line"/>
      <point x="28" y="324" type="line"/>
      <point x="28" y="350" type="line"/>
      <point x="149" y="464" type="line" smooth="yes"/>
      <point x="206" y="517"/>
      <point x="231" y="558"/>
      <point x="231" y="598" type="curve" smooth="yes"/>
      <point x="231" y="650"/>
      <point x="198" y="678"/>
      <point x="158" y="678" type="curve" smooth="yes"/>
      <point x="121" y="678"/>
      <point x="87" y="660"/>
    </contour>
  </outline>
</glyph>
<glyph name="threesuperior" format="2">
  <advance width="323"/>
  <unicode hex="00B3"/>
  <outline>
    <contour>
      <point x="56" y="632" type="curve"/>
      <point x="40" y="644" type="line"/>
      <point x="58" y="678"/>
      <point x="98" y="713"/>
      <point x="156" y="713" type="curve" smooth="yes"/>
      <point x="211" y="713"/>
      <point x="243" y="679"/>
      <point x="243" y="640" type="curve" smooth="yes"/>
      <point x="243" y="578"/>
      <point x="174" y="553"/>
      <point x="117" y="536" type="curve"/>
      <point x="114" y="540" type="line"/>
      <point x="194" y="562"/>
      <point x="280" y="524"/>
      <point x="280" y="443" type="curve" smooth="yes"/>
      <point x="280" y="379"/>
      <point x="222" y="321"/>
      <point x="143" y="321" type="curve" smooth="yes"/>
      <point x="95" y="321"/>
      <point x="53" y="337"/>
      <point x="29" y="355" type="curve"/>
      <point x="42" y="447" type="line"/>
      <point x="58" y="447" type="line"/>
      <point x="65" y="371"/>
      <point x="106" y="347"/>
      <point x="146" y="347" type="curve" smooth="yes"/>
      <point x="191" y="347"/>
      <point x="218" y="379"/>
      <point x="218" y="431" type="curve" smooth="yes"/>
      <point x="218" y="497"/>
      <point x="172" y="533"/>
      <point x="79" y="518" type="curve"/>
      <point x="72" y="542" type="line"/>
      <point x="134" y="561"/>
      <point x="193" y="585"/>
      <point x="193" y="638" type="curve" smooth="yes"/>
      <point x="193" y="660"/>
      <point x="176" y="683"/>
      <point x="140" y="683" type="curve" smooth="yes"/>
      <point x="106" y="683"/>
      <point x="79" y="664"/>
    </contour>
  </outline>
</glyph>
<glyph name="micro" format="2">
  <advance width="631"/>
  <unicode hex="00B5"/>
  <outline>
    <contour>
      <point x="10" y="444" type="line"/>
      <point x="77" y="463"/>
      <point x="111" y="485"/>
      <point x="111" y="419" type="curve" smooth="yes"/>
      <point x="111" y="-236" type="line"/>
      <point x="178" y="-236" type="line"/>
      <point x="178" y="14" type="line"/>
      <point x="202" y="-2"/>
      <point x="230" y="-11"/>
      <point x="263" y="-11" type="curve" smooth="yes"/>
      <point x="331" y="-11"/>
      <point x="401" y="51"/>
      <point x="446" y="96" type="curve"/>
      <point x="446" y="0" type="line"/>
      <point x="616" y="0" type="line"/>
      <point x="616" y="14" type="line"/>
      <point x="550" y="16"/>
      <point x="515" y="10"/>
      <point x="515" y="87" type="curve" smooth="yes"/>
      <point x="515" y="511" type="line"/>
      <point x="345" y="460" type="line"/>
      <point x="345" y="444" type="line"/>
      <point x="418" y="466"/>
      <point x="446" y="485"/>
      <point x="446" y="419" type="curve" smooth="yes"/>
      <point x="446" y="121" type="line"/>
      <point x="417" y="89"/>
      <point x="349" y="36"/>
      <point x="289" y="36" type="curve" smooth="yes"/>
      <point x="222" y="36"/>
      <point x="178" y="78"/>
      <point x="178" y="173" type="curve" smooth="yes"/>
      <point x="178" y="511" type="line"/>
      <point x="10" y="460" type="line"/>
    </contour>
  </outline>
</glyph>
<glyph name="paragraph" format="2">
  <advance width="600"/>
  <unicode hex="00B6"/>
  <outline>
    <contour>
      <point x="372" y="700" type="line"/>
      <point x="372" y="-240" type="line"/>
      <point x="408" y="-240" type="line"/>
      <point x="408" y="645" type="line" smooth="yes"/>
      <point x="408" y="693"/>
      <point x="455" y="684"/>
      <point x="510" y="686" type="curve"/>
      <point x="510" y="700" type="line"/>
    </contour>
    <contour>
      <point x="268" y="700" type="line" smooth="yes"/>
      <point x="153" y="700"/>
      <point x="68" y="615"/>
      <point x="68" y="510" type="curve" smooth="yes"/>
      <point x="68" y="404"/>
      <point x="153" y="319"/>
      <point x="268" y="319.002" type="curve"/>
      <point x="268" y="-240" type="line"/>
      <point x="304" y="-240" type="line"/>
      <point x="304" y="700" type="line"/>
    </contour>
    <contour>
      <point x="284" y="700" type="line"/>
      <point x="284" y="681" type="line"/>
      <point x="420" y="681" type="line"/>
      <point x="420" y="700" type="line"/>
    </contour>
  </outline>
</glyph>
<glyph name="onesuperior" format="2">
  <advance width="283"/>
  <unicode hex="00B9"/>
  <outline>
    <contour>
      <point x="36" y="653" type="line"/>
      <point x="36" y="678" type="line"/>
      <point x="153" y="713" type="line"/>
      <point x="159" y="713" type="line"/>
      <point x="159" y="374" type="line" smooth="yes"/>
      <point x="159" y="345"/>
      <point x="187" y="345"/>
      <point x="235" y="341" type="curve"/>
      <point x="235" y="324" type="line"/>
      <point x="32" y="324" type="line"/>
      <point x="32" y="341" type="line"/>
      <point x="73" y="345"/>
      <point x="108" y="345"/>
      <point x="108" y="374" type="curve" smooth="yes"/>
      <point x="108" y="672" type="line"/>
    </contour>
  </outline>
</glyph>
<glyph name="ordmasculine" format="2">
  <advance width="584"/>
  <unicode hex="00BA"/>
  <outline>
    <contour>
      <point x="268" y="447" type="curve" smooth="yes"/>
      <point x="359" y="447"/>
      <point x="423" y="524"/>
      <point x="423" y="611" type="curve" smooth="yes"/>
      <point x="423" y="697"/>
      <point x="359" y="771"/>
      <point x="268" y="771" type="curve" smooth="yes"/>
      <point x="178" y="771"/>
      <point x="110" y="697"/>
      <point x="110" y="611" type="curve" smooth="yes"/>
      <point x="110" y="524"/>
      <point x="178" y="447"/>
    </contour>
    <contour>
      <point x="268" y="751" type="curve" smooth="yes"/>
      <point x="330" y="751"/>
      <point x="368" y="688"/>
      <point x="368" y="611" type="curve" smooth="yes"/>
      <point x="368" y="533"/>
      <point x="330" y="468"/>
      <point x="268" y="468" type="curve" smooth="yes"/>
      <point x="207" y="468"/>
      <point x="165" y="533"/>
      <point x="165" y="611" type="curve" smooth="yes"/>
      <point x="165" y="688"/>
      <point x="207" y="751"/>
    </contour>
  </outline>
</glyph>
<glyph name="onequarter" format="2">
  <advance width="806"/>
  <unicode hex="00BC"/>
  <outline>
    <component base="one.numr"/>
    <contour>
      <point x="171" y="0" type="line"/>
      <point x="670" y="700" type="line"/>
      <point x="629" y="700" type="line"/>
      <point x="130" y="0" type="line"/>
    </contour>
    <component base="four.dnom" xOffset="423"/>
  </outline>
</glyph>
<glyph name="threequarters" format="2">
  <advance width="826"/>
  <unicode hex="00BE"/>
  <outline>
    <contour>
      <point x="178" y="0" type="line"/>
      <point x="677" y="700" type="line"/>
      <point x="636" y="700" type="line"/>
      <point x="137" y="0" type="line"/>
    </contour>
    <component base="three.numr"/>
    <component base="four.dnom" xOffset="443"/>
  </outline>
</glyph>
<glyph name="AE" format="2">
  <advance width="1052"/>
  <unicode hex="00C6"/>
  <outline>
    <contour>
      <point x="286" y="310" type="line"/>
      <point x="272" y="280" type="line"/>
      <point x="565" y="280" type="line"/>
      <point x="579" y="310" type="line"/>
    </contour>
    <contour>
      <point x="535" y="673" type="line"/>
      <point x="110" y="79" type="line" smooth="yes"/>
      <point x="71" y="25"/>
      <point x="22" y="16"/>
      <point x="-45" y="14" type="curve"/>
      <point x="-45" y="0" type="line"/>
      <point x="207" y="0" type="line"/>
      <point x="207" y="14" type="line"/>
      <point x="142" y="16"/>
      <point x="99" y="9"/>
      <point x="134" y="58" type="curve" smooth="yes"/>
      <point x="565" y="662" type="line"/>
    </contour>
    <contour>
      <point x="414" y="0" type="line"/>
      <point x="974" y="0" type="line"/>
      <point x="1017" y="222" type="line"/>
      <point x="998" y="222" type="line"/>
      <point x="975" y="125"/>
      <point x="964" y="29"/>
      <point x="845" y="29" type="curve" smooth="yes"/>
      <point x="597" y="29" type="line"/>
      <point x="597" y="343" type="line"/>
      <point x="822" y="343" type="line" smooth="yes"/>
      <point x="861" y="343"/>
      <point x="886" y="309"/>
      <point x="888" y="230" type="curve"/>
      <point x="904" y="230" type="line"/>
      <point x="904" y="482" type="line"/>
      <point x="888" y="482" type="line"/>
      <point x="886" y="401"/>
      <point x="861" y="371"/>
      <point x="822" y="371" type="curve" smooth="yes"/>
      <point x="597" y="371" type="line"/>
      <point x="597" y="672" type="line"/>
      <point x="829" y="672" type="line" smooth="yes"/>
      <point x="909" y="672"/>
      <point x="941" y="638"/>
      <point x="964" y="478" type="curve"/>
      <point x="983" y="478" type="line"/>
      <point x="961" y="700" type="line"/>
      <point x="414" y="700" type="line"/>
      <point x="414" y="686" type="line"/>
      <point x="489" y="683"/>
      <point x="516" y="688"/>
      <point x="516" y="645" type="curve" smooth="yes"/>
      <point x="516" y="55" type="line" smooth="yes"/>
      <point x="516" y="12"/>
      <point x="489" y="17"/>
      <point x="414" y="14" type="curve"/>
    </contour>
  </outline>
</glyph>
<glyph name="Eth" format="2">
  <advance width="710"/>
  <unicode hex="00D0"/>
  <outline>
    <contour>
      <point x="378" y="342" type="line"/>
      <point x="378" y="370" type="line"/>
      <point x="29" y="370" type="line"/>
      <point x="29" y="342" type="line"/>
    </contour>
    <component base="D"/>
  </outline>
</glyph>
<glyph name="multiply" format="2">
  <advance width="573"/>
  <unicode hex="00D7"/>
  <outline>
    <contour>
      <point x="497" y="144" type="line"/>
      <point x="105" y="537" type="line"/>
      <point x="76" y="508" type="line"/>
      <point x="468" y="115" type="line"/>
    </contour>
    <contour>
      <point x="104" y="115" type="line"/>
      <point x="498" y="508" type="line"/>
      <point x="469" y="537" type="line"/>
      <point x="75" y="144" type="line"/>
    </contour>
  </outline>
</glyph>
<glyph name="Oslash" format="2">
  <advance width="772"/>
  <unicode hex="00D8"/>
  <outline>
    <contour>
      <point x="151" y="-14" type="line"/>
      <point x="632" y="713" type="line"/>
      <point x="588" y="713" type="line"/>
      <point x="103" y="-14" type="line"/>
    </contour>
    <component base="O"/>
  </outline>
</glyph>
<glyph name="Thorn" format="2">
  <advance width="588"/>
  <unicode hex="00DE"/>
  <outline>
    <contour>
      <point x="203" y="562" type="line"/>
      <point x="203" y="644" type="line" smooth="yes"/>
      <point x="203" y="693"/>
      <point x="244" y="686"/>
      <point x="328" y="686" type="curve"/>
      <point x="328" y="700" type="line"/>
      <point x="22" y="700" type="line"/>
      <point x="22" y="686" type="line"/>
      <point x="74" y="684"/>
      <point x="124" y="694"/>
      <point x="124" y="644" type="curve" smooth="yes"/>
      <point x="124" y="56" type="line" smooth="yes"/>
      <point x="124" y="6"/>
      <point x="74" y="16"/>
      <point x="22" y="14" type="curve"/>
      <point x="22" y="0" type="line"/>
      <point x="328" y="0" type="line"/>
      <point x="328" y="14" type="line"/>
      <point x="244" y="14"/>
      <point x="203" y="7"/>
      <point x="203" y="56" type="curve" smooth="yes"/>
      <point x="203" y="155" type="line"/>
      <point x="272" y="155" type="line" smooth="yes"/>
      <point x="445" y="155"/>
      <point x="553" y="243"/>
      <point x="553" y="373" type="curve" smooth="yes"/>
      <point x="553" y="493"/>
      <point x="445" y="562"/>
      <point x="303" y="562" type="curve" smooth="yes"/>
    </contour>
    <contour>
      <point x="203" y="181" type="line"/>
      <point x="203" y="537" type="line"/>
      <point x="270" y="537" type="line" smooth="yes"/>
      <point x="393" y="537"/>
      <point x="473" y="464"/>
      <point x="473" y="354" type="curve" smooth="yes"/>
      <point x="473" y="261"/>
      <point x="408" y="181"/>
      <point x="265" y="181" type="curve" smooth="yes"/>
    </contour>
  </outline>
</glyph>
<glyph name="germandbls" format="2">
  <advance width="619"/>
  <unicode hex="00DF"/>
  <outline>
    <contour>
      <point x="22" y="0" type="line"/>
      <point x="22" y="14" type="line"/>
      <point x="71" y="16"/>
      <point x="109" y="11"/>
      <point x="109" y="55" type="curve" smooth="yes"/>
      <point x="110" y="564" type="line" smooth="yes"/>
      <point x="110" y="666"/>
      <point x="170" y="771"/>
      <point x="315" y="771" type="curve" smooth="yes"/>
      <point x="432" y="771"/>
      <point x="507" y="708"/>
      <point x="507" y="623" type="curve" smooth="yes"/>
      <point x="507" y="504"/>
      <point x="361" y="463"/>
      <point x="361" y="429" type="curve" smooth="yes"/>
      <point x="361" y="345"/>
      <point x="572" y="338"/>
      <point x="572" y="157" type="curve" smooth="yes"/>
      <point x="572" y="58"/>
      <point x="494" y="-12"/>
      <point x="409" y="-12" type="curve" smooth="yes"/>
      <point x="343" y="-12"/>
      <point x="293" y="19"/>
      <point x="258" y="49" type="curve"/>
      <point x="272" y="187" type="line"/>
      <point x="287" y="187" type="line"/>
      <point x="289" y="89"/>
      <point x="328" y="14"/>
      <point x="401" y="12" type="curve" smooth="yes"/>
      <point x="476" y="10"/>
      <point x="497" y="84"/>
      <point x="497" y="142" type="curve" smooth="yes"/>
      <point x="497" y="307"/>
      <point x="299" y="288"/>
      <point x="299" y="404" type="curve" smooth="yes"/>
      <point x="299" y="468"/>
      <point x="433" y="479"/>
      <point x="433" y="623" type="curve" smooth="yes"/>
      <point x="433" y="711"/>
      <point x="384" y="746"/>
      <point x="316" y="746" type="curve" smooth="yes"/>
      <point x="233" y="746"/>
      <point x="184" y="674"/>
      <point x="184" y="555" type="curve" smooth="yes"/>
      <point x="184" y="0" type="line"/>
    </contour>
  </outline>
</glyph>
<glyph name="ae" format="2">
  <advance width="859"/>
  <unicode hex="00E6"/>
  <outline>
    <contour>
      <point x="120" y="117" type="curve" smooth="yes"/>
      <point x="120" y="165"/>
      <point x="149" y="197"/>
      <point x="218" y="220" type="curve" smooth="yes"/>
      <point x="251" y="231"/>
      <point x="308" y="244"/>
      <point x="360" y="257" type="curve"/>
      <point x="360" y="236" type="line" smooth="yes"/>
      <point x="360" y="125"/>
      <point x="275" y="39"/>
      <point x="199" y="39" type="curve" smooth="yes"/>
      <point x="158" y="39"/>
      <point x="120" y="63"/>
    </contour>
    <contour>
      <point x="410" y="319" type="line"/>
      <point x="799" y="319" type="line"/>
      <point x="799" y="433"/>
      <point x="709" y="511"/>
      <point x="597" y="511" type="curve" smooth="yes"/>
      <point x="512" y="511"/>
      <point x="445" y="474"/>
      <point x="406" y="415" type="curve"/>
      <point x="381" y="466"/>
      <point x="326" y="511"/>
      <point x="246" y="511" type="curve" smooth="yes"/>
      <point x="100" y="511"/>
      <point x="54" y="392"/>
      <point x="50" y="343" type="curve"/>
      <point x="68" y="343" type="line"/>
      <point x="83" y="417"/>
      <point x="140" y="461"/>
      <point x="217" y="461" type="curve" smooth="yes"/>
      <point x="300" y="461"/>
      <point x="361" y="410"/>
      <point x="361" y="314" type="curve" smooth="yes"/>
      <point x="361" y="280" type="line"/>
      <point x="320" y="272"/>
      <point x="268" y="260"/>
      <point x="234" y="251" type="curve" smooth="yes"/>
      <point x="124" y="221"/>
      <point x="52" y="190"/>
      <point x="52" y="103" type="curve" smooth="yes"/>
      <point x="52" y="24"/>
      <point x="116" y="-9"/>
      <point x="179" y="-9" type="curve" smooth="yes"/>
      <point x="245" y="-9"/>
      <point x="344" y="44"/>
      <point x="373" y="167" type="curve"/>
      <point x="397" y="69"/>
      <point x="484" y="-11"/>
      <point x="604" y="-11" type="curve" smooth="yes"/>
      <point x="679" y="-11"/>
      <point x="775" y="43"/>
      <point x="822" y="153" type="curve"/>
      <point x="804" y="160" type="line"/>
      <point x="753" y="61"/>
      <point x="674" y="43"/>
      <point x="630" y="43" type="curve" smooth="yes"/>
      <point x="504" y="43"/>
      <point x="427" y="150"/>
      <point x="427" y="294" type="curve" smooth="yes"/>
      <point x="427" y="376"/>
      <point x="466" y="485"/>
      <point x="579" y="485" type="curve" smooth="yes"/>
      <point x="652" y="485"/>
      <point x="708" y="429"/>
      <point x="717" y="341" type="curve"/>
      <point x="410" y="341" type="line"/>
    </contour>
  </outline>
</glyph>
<glyph name="eth" format="2">
  <advance width="584"/>
  <unicode hex="00F0"/>
  <outline>
    <contour>
      <point x="466" y="309" type="curve"/>
      <point x="482" y="402" type="line"/>
      <point x="436" y="470"/>
      <point x="371" y="511"/>
      <point x="275" y="511" type="curve" smooth="yes"/>
      <point x="140" y="511"/>
      <point x="40" y="405"/>
      <point x="42" y="246" type="curve" smooth="yes"/>
      <point x="44" y="112"/>
      <point x="145" y="-11"/>
      <point x="301" y="-11" type="curve" smooth="yes"/>
      <point x="450" y="-11"/>
      <point x="542" y="112"/>
      <point x="542" y="301" type="curve" smooth="yes"/>
      <point x="542" y="439"/>
      <point x="485" y="647"/>
      <point x="203" y="766" type="curve"/>
      <point x="189" y="740" type="line"/>
      <point x="365" y="653"/>
      <point x="465" y="528"/>
      <point x="465" y="328" type="curve" smooth="yes"/>
      <point x="465" y="124"/>
      <point x="414" y="19"/>
      <point x="308" y="19" type="curve" smooth="yes"/>
      <point x="192" y="19"/>
      <point x="121" y="140"/>
      <point x="121" y="268" type="curve" smooth="yes"/>
      <point x="121" y="391"/>
      <point x="179" y="485"/>
      <point x="278" y="485" type="curve" smooth="yes"/>
      <point x="385" y="485"/>
      <point x="455" y="376"/>
    </contour>
    <contour>
      <point x="189" y="564" type="line"/>
      <point x="492" y="749" type="line"/>
      <point x="473" y="778" type="line"/>
      <point x="170" y="592" type="line"/>
    </contour>
  </outline>
</glyph>
<glyph name="divide" format="2">
  <advance width="573"/>
  <unicode hex="00F7"/>
  <outline>
    <contour>
      <point x="293" y="455" type="curve" smooth="yes"/>
      <point x="267" y="455"/>
      <point x="241" y="475"/>
      <point x="241" y="507" type="curve" smooth="yes"/>
      <point x="241" y="532"/>
      <point x="261" y="558"/>
      <point x="293" y="558" type="curve" smooth="yes"/>
      <point x="318" y="558"/>
      <point x="344" y="538"/>
      <point x="344" y="507" type="curve" smooth="yes"/>
      <point x="344" y="478"/>
      <point x="321" y="455"/>
    </contour>
    <contour>
      <point x="293" y="86" type="curve" smooth="yes"/>
      <point x="267" y="86"/>
      <point x="241" y="106"/>
      <point x="241" y="138" type="curve" smooth="yes"/>
      <point x="241" y="163"/>
      <point x="261" y="189"/>
      <point x="293" y="189" type="curve" smooth="yes"/>
      <point x="318" y="189"/>
      <point x="344" y="169"/>
      <point x="344" y="138" type="curve" smooth="yes"/>
      <point x="344" y="109"/>
      <point x="321" y="86"/>
    </contour>
    <component base="minus" yOffset="6"/>
  </outline>
</glyph>
<glyph name="oslash" format="2">
  <advance width="584"/>
  <unicode hex="00F8"/>
  <outline>
    <contour>
      <point x="131" y="-14" type="line"/>
      <point x="493" y="514" type="line"/>
      <point x="459" y="514" type="line"/>
      <point x="94" y="-14" type="line"/>
    </contour>
    <component base="o"/>
  </outline>
</glyph>
<glyph name="thorn" format="2">
  <advance width="599"/>
  <unicode hex="00FE"/>
  <outline>
    <contour>
      <point x="169" y="379" type="line"/>
      <point x="217" y="438"/>
      <point x="266" y="460"/>
      <point x="322" y="460" type="curve" smooth="yes"/>
      <point x="418" y="460"/>
      <point x="493" y="390"/>
      <point x="493" y="263" type="curve" smooth="yes"/>
      <point x="493" y="121"/>
      <point x="423" y="35"/>
      <point x="316" y="35" type="curve" smooth="yes"/>
      <point x="252" y="35"/>
      <point x="210" y="56"/>
      <point x="171" y="85" type="curve"/>
      <point x="127" y="35" type="line"/>
      <point x="169" y="17"/>
      <point x="207" y="0"/>
      <point x="274" y="0" type="curve" smooth="yes"/>
      <point x="444" y="0"/>
      <point x="557" y="117"/>
      <point x="557" y="292" type="curve" smooth="yes"/>
      <point x="557" y="429"/>
      <point x="468" y="513"/>
      <point x="346" y="513" type="curve" smooth="yes"/>
      <point x="272" y="513"/>
      <point x="224" y="464"/>
      <point x="169" y="414" type="curve"/>
    </contour>
    <contour>
      <point x="8" y="704" type="line"/>
      <point x="83" y="722"/>
      <point x="109" y="735"/>
      <point x="109" y="669" type="curve" smooth="yes"/>
      <point x="109" y="-175" type="line" smooth="yes"/>
      <point x="109" y="-223"/>
      <point x="97" y="-224"/>
      <point x="22" y="-226" type="curve"/>
      <point x="22" y="-240" type="line"/>
      <point x="300" y="-240" type="line"/>
      <point x="300" y="-226" type="line"/>
      <point x="208" y="-224"/>
      <point x="178" y="-223"/>
      <point x="178" y="-175" type="curve" smooth="yes"/>
      <point x="178" y="771" type="line"/>
      <point x="8" y="720" type="line"/>
    </contour>
  </outline>
</glyph>
<glyph name="dcroat" format="2">
  <advance width="605"/>
  <unicode hex="0111"/>
  <guideline x="602" y="14" angle="270"/>
  <outline>
    <contour>
      <point x="602" y="618" type="line"/>
      <point x="185" y="618" type="line"/>
      <point x="185" y="597" type="line"/>
      <point x="602" y="597" type="line"/>
    </contour>
    <component base="d"/>
  </outline>
</glyph>
<glyph name="Hbar" format="2">
  <advance width="797"/>
  <unicode hex="0126"/>
  <outline>
    <component base="H"/>
    <contour>
      <point x="13" y="531" type="line"/>
      <point x="782" y="531" type="line"/>
      <point x="782" y="559" type="line"/>
      <point x="13" y="559" type="line"/>
    </contour>
  </outline>
</glyph>
<glyph name="hbar" format="2">
  <advance width="634"/>
  <unicode hex="0127"/>
  <outline>
    <component base="h"/>
    <contour>
      <point x="19" y="618" type="line"/>
      <point x="19" y="597" type="line"/>
      <point x="365" y="597" type="line"/>
      <point x="365" y="618" type="line"/>
    </contour>
  </outline>
</glyph>
<glyph name="iogonek" format="2">
  <advance width="281"/>
  <unicode hex="012F"/>
  <outline>
    <component base="idotless"/>
    <component base="ogonekcomb" xOffset="36"/>
    <contour>
      <point x="145" y="663" type="curve" smooth="yes"/>
      <point x="115" y="663"/>
      <point x="91" y="688"/>
      <point x="91" y="717" type="curve" smooth="yes"/>
      <point x="91" y="743"/>
      <point x="112" y="770"/>
      <point x="145" y="770" type="curve" smooth="yes"/>
      <point x="174" y="770"/>
      <point x="198" y="746"/>
      <point x="198" y="717" type="curve" smooth="yes"/>
      <point x="198" y="687"/>
      <point x="175" y="663"/>
    </contour>
  </outline>
</glyph>
<glyph name="idotless" format="2">
  <advance width="287"/>
  <unicode hex="0131"/>
  <anchor x="160" y="0" name="bottom"/>
  <anchor x="190" y="0" name="ogonek"/>
  <anchor x="146" y="500" name="top"/>
  <outline>
    <contour>
      <point x="16" y="444" type="line"/>
      <point x="94" y="465"/>
      <point x="117" y="479"/>
      <point x="117" y="399" type="curve" smooth="yes"/>
      <point x="117" y="50" type="line" smooth="yes"/>
      <point x="117" y="6"/>
      <point x="73" y="16"/>
      <point x="30" y="14" type="curve"/>
      <point x="30" y="0" type="line"/>
      <point x="271" y="0" type="line"/>
      <point x="271" y="14" type="line"/>
      <point x="219" y="16"/>
      <point x="186" y="6"/>
      <point x="186" y="49" type="curve" smooth="yes"/>
      <point x="186" y="511" type="line"/>
      <point x="16" y="460" type="line"/>
    </contour>
  </outline>
</glyph>
<glyph name="Lslash" format="2">
  <advance width="641"/>
  <unicode hex="0141"/>
  <outline>
    <component base="L"/>
    <contour>
      <point x="36" y="315" type="line"/>
      <point x="349" y="485" type="line"/>
      <point x="334" y="509" type="line"/>
      <point x="21" y="339" type="line"/>
    </contour>
  </outline>
</glyph>
<glyph name="lslash" format="2">
  <advance width="291"/>
  <unicode hex="0142"/>
  <outline>
    <contour>
      <point x="35" y="318" type="line"/>
      <point x="272" y="463" type="line"/>
      <point x="258" y="484" type="line"/>
      <point x="21" y="339" type="line"/>
    </contour>
    <component base="l"/>
  </outline>
</glyph>
<glyph name="Eng" format="2">
  <advance width="767"/>
  <unicode hex="014A"/>
  <anchor x="389" y="0" name="bottom"/>
  <anchor x="389" y="700" name="top"/>
  <outline>
    <contour>
      <point x="620" y="0" type="curve"/>
      <point x="162" y="601" type="line"/>
      <point x="162" y="65" type="line" smooth="yes"/>
      <point x="162" y="17"/>
      <point x="202" y="16"/>
      <point x="257" y="14" type="curve"/>
      <point x="257" y="0" type="line"/>
      <point x="22" y="0" type="line"/>
      <point x="22" y="14" type="line"/>
      <point x="67" y="16"/>
      <point x="124" y="17"/>
      <point x="124" y="65" type="curve" smooth="yes"/>
      <point x="124" y="635" type="line" smooth="yes"/>
      <point x="124" y="694"/>
      <point x="94" y="684"/>
      <point x="23" y="686" type="curve"/>
      <point x="23" y="700" type="line"/>
      <point x="180" y="700" type="line"/>
      <point x="621" y="122" type="line"/>
      <point x="621" y="635" type="line" smooth="yes"/>
      <point x="621" y="683"/>
      <point x="604" y="684"/>
      <point x="519" y="686" type="curve"/>
      <point x="519" y="700" type="line"/>
      <point x="760" y="700" type="line"/>
      <point x="760" y="686" type="line"/>
      <point x="675" y="684"/>
      <point x="658" y="683"/>
      <point x="658" y="635" type="curve" smooth="yes"/>
      <point x="658" y="0" type="line" smooth="yes"/>
      <point x="658" y="-118"/>
      <point x="611" y="-178"/>
      <point x="521" y="-180" type="curve"/>
      <point x="521" y="-166" type="line"/>
      <point x="614" y="-154"/>
      <point x="620" y="-77"/>
    </contour>
  </outline>
</glyph>
<glyph name="eng" format="2">
  <advance width="602"/>
  <unicode hex="014B"/>
  <outline>
    <contour>
      <point x="542" y="-6" type="curve" smooth="yes"/>
      <point x="542" y="349" type="line" smooth="yes"/>
      <point x="542" y="442"/>
      <point x="475" y="513"/>
      <point x="378" y="513" type="curve" smooth="yes"/>
      <point x="328" y="513"/>
      <point x="238" y="445"/>
      <point x="186" y="410" type="curve"/>
      <point x="186" y="511" type="line"/>
      <point x="16" y="460" type="line"/>
      <point x="16" y="444" type="line"/>
      <point x="81" y="464"/>
      <point x="117" y="482"/>
      <point x="117" y="423" type="curve" smooth="yes"/>
      <point x="117" y="59" type="line" smooth="yes"/>
      <point x="117" y="11"/>
      <point x="75" y="16"/>
      <point x="30" y="14" type="curve"/>
      <point x="30" y="0" type="line"/>
      <point x="273" y="0" type="line"/>
      <point x="273" y="14" type="line"/>
      <point x="218" y="16"/>
      <point x="186" y="11"/>
      <point x="186" y="59" type="curve" smooth="yes"/>
      <point x="186" y="381" type="line"/>
      <point x="215" y="403"/>
      <point x="289" y="463"/>
      <point x="353" y="463" type="curve" smooth="yes"/>
      <point x="426" y="463"/>
      <point x="471" y="422"/>
      <point x="471" y="319" type="curve" smooth="yes"/>
      <point x="471" y="-13" type="line" smooth="yes"/>
      <point x="471" y="-90"/>
      <point x="484" y="-158"/>
      <point x="371" y="-169" type="curve"/>
      <point x="371" y="-180" type="line"/>
      <point x="481" y="-178"/>
      <point x="542" y="-124"/>
    </contour>
  </outline>
</glyph>
<glyph name="OE" format="2">
  <advance width="1017"/>
  <unicode hex="0152"/>
  <outline>
    <contour>
      <point x="393" y="0" type="curve" smooth="yes"/>
      <point x="939" y="0" type="line"/>
      <point x="982" y="222" type="line"/>
      <point x="963" y="222" type="line"/>
      <point x="940" y="125"/>
      <point x="929" y="29"/>
      <point x="810" y="29" type="curve" smooth="yes"/>
      <point x="562" y="29" type="line"/>
      <point x="562" y="343" type="line"/>
      <point x="787" y="343" type="line" smooth="yes"/>
      <point x="826" y="343"/>
      <point x="851" y="309"/>
      <point x="853" y="230" type="curve"/>
      <point x="869" y="230" type="line"/>
      <point x="869" y="482" type="line"/>
      <point x="853" y="482" type="line"/>
      <point x="851" y="401"/>
      <point x="826" y="371"/>
      <point x="787" y="371" type="curve" smooth="yes"/>
      <point x="562" y="371" type="line"/>
      <point x="562" y="672" type="line"/>
      <point x="794" y="672" type="line" smooth="yes"/>
      <point x="874" y="672"/>
      <point x="906" y="638"/>
      <point x="929" y="478" type="curve"/>
      <point x="948" y="478" type="line"/>
      <point x="926" y="700" type="line"/>
      <point x="393" y="700" type="line" smooth="yes"/>
      <point x="188" y="700"/>
      <point x="45" y="545"/>
      <point x="45" y="351" type="curve" smooth="yes"/>
      <point x="45" y="147"/>
      <point x="188" y="0"/>
    </contour>
    <contour>
      <point x="411" y="26" type="curve" smooth="yes"/>
      <point x="231" y="26"/>
      <point x="136" y="177"/>
      <point x="136" y="351" type="curve" smooth="yes"/>
      <point x="136" y="536"/>
      <point x="231" y="675"/>
      <point x="411" y="675" type="curve" smooth="yes"/>
      <point x="462" y="675"/>
      <point x="481" y="679"/>
      <point x="481" y="628" type="curve" smooth="yes"/>
      <point x="481" y="64" type="line" smooth="yes"/>
      <point x="481" y="30"/>
      <point x="459" y="26"/>
    </contour>
  </outline>
</glyph>
<glyph name="oe" format="2">
  <advance width="978"/>
  <unicode hex="0153"/>
  <outline>
    <contour>
      <point x="295" y="-11" type="curve" smooth="yes"/>
      <point x="389" y="-11"/>
      <point x="461" y="38"/>
      <point x="503" y="115" type="curve"/>
      <point x="544" y="34"/>
      <point x="623" y="-11"/>
      <point x="717" y="-11" type="curve" smooth="yes"/>
      <point x="819" y="-11"/>
      <point x="894" y="47"/>
      <point x="941" y="153" type="curve"/>
      <point x="923" y="160" type="line"/>
      <point x="872" y="62"/>
      <point x="793" y="43"/>
      <point x="746" y="43" type="curve" smooth="yes"/>
      <point x="618" y="43"/>
      <point x="541" y="148"/>
      <point x="541" y="292" type="curve" smooth="yes"/>
      <point x="541" y="299"/>
      <point x="541" y="307"/>
      <point x="542" y="315" type="curve"/>
      <point x="920" y="315" type="line"/>
      <point x="919" y="426"/>
      <point x="831" y="511"/>
      <point x="710" y="511" type="curve" smooth="yes"/>
      <point x="610" y="511"/>
      <point x="540" y="461"/>
      <point x="503" y="385" type="curve"/>
      <point x="462" y="463"/>
      <point x="389" y="511"/>
      <point x="295" y="511" type="curve" smooth="yes"/>
      <point x="148" y="511"/>
      <point x="42" y="392"/>
      <point x="42" y="252" type="curve" smooth="yes"/>
      <point x="42" y="112"/>
      <point x="148" y="-11"/>
    </contour>
    <contour>
      <point x="122" y="252" type="curve" smooth="yes"/>
      <point x="122" y="382"/>
      <point x="195" y="483"/>
      <point x="295" y="483" type="curve" smooth="yes"/>
      <point x="395" y="483"/>
      <point x="462" y="382"/>
      <point x="462" y="252" type="curve" smooth="yes"/>
      <point x="462" y="122"/>
      <point x="395" y="17"/>
      <point x="295" y="17" type="curve" smooth="yes"/>
      <point x="195" y="17"/>
      <point x="122" y="122"/>
    </contour>
    <contour>
      <point x="544" y="334" type="line"/>
      <point x="556" y="408"/>
      <point x="601" y="485"/>
      <point x="693" y="485" type="curve" smooth="yes"/>
      <point x="769" y="485"/>
      <point x="825" y="426"/>
      <point x="836" y="334" type="curve"/>
    </contour>
  </outline>
</glyph>
<glyph name="Tbar" format="2">
  <advance width="671"/>
  <unicode hex="0166"/>
  <outline>
    <contour>
      <point x="548" y="436" type="line"/>
      <point x="116" y="436" type="line"/>
      <point x="116" y="406" type="line"/>
      <point x="548" y="406" type="line"/>
    </contour>
    <component base="T"/>
  </outline>
</glyph>
<glyph name="tbar" format="2">
  <advance width="381"/>
  <unicode hex="0167"/>
  <outline>
    <contour>
      <point x="30" y="360" type="line"/>
      <point x="30" y="339" type="line"/>
      <point x="330" y="339" type="line"/>
      <point x="330" y="360" type="line"/>
    </contour>
    <component base="t"/>
  </outline>
</glyph>
<glyph name="Schwa" format="2">
  <advance width="708"/>
  <unicode hex="018F"/>
  <outline>
    <contour>
      <point x="593" y="265" type="line"/>
      <point x="49" y="265" type="line"/>
      <point x="49" y="104"/>
      <point x="172" y="-11"/>
      <point x="350" y="-11" type="curve" smooth="yes"/>
      <point x="555" y="-11"/>
      <point x="663" y="162"/>
      <point x="663" y="353" type="curve" smooth="yes"/>
      <point x="663" y="572"/>
      <point x="529" y="711"/>
      <point x="334" y="711" type="curve" smooth="yes"/>
      <point x="188" y="711"/>
      <point x="72" y="622"/>
      <point x="45" y="456" type="curve"/>
      <point x="74" y="456" type="line"/>
      <point x="118" y="612"/>
      <point x="224" y="648"/>
      <point x="306" y="648" type="curve" smooth="yes"/>
      <point x="471" y="648"/>
      <point x="571" y="501"/>
      <point x="571" y="303" type="curve" smooth="yes"/>
      <point x="571" y="176"/>
      <point x="512" y="19"/>
      <point x="359" y="19" type="curve" smooth="yes"/>
      <point x="248" y="19"/>
      <point x="169" y="102"/>
      <point x="158" y="239" type="curve"/>
      <point x="593" y="239" type="line"/>
    </contour>
  </outline>
</glyph>
<glyph name="florin" format="2">
  <advance width="600"/>
  <unicode hex="0192"/>
  <outline>
    <contour>
      <point x="154" y="479" type="line"/>
      <point x="154" y="450" type="line"/>
      <point x="462" y="450" type="line"/>
      <point x="462" y="479" type="line"/>
    </contour>
    <contour>
      <point x="248" y="177" type="line" smooth="yes"/>
      <point x="248" y="77"/>
      <point x="230" y="15"/>
      <point x="169" y="15" type="curve" smooth="yes"/>
      <point x="113" y="15"/>
      <point x="78" y="58"/>
      <point x="76" y="182" type="curve"/>
      <point x="62" y="182" type="line"/>
      <point x="25" y="69" type="line"/>
      <point x="64" y="14"/>
      <point x="123" y="-9"/>
      <point x="172" y="-9" type="curve" smooth="yes"/>
      <point x="254" y="-9"/>
      <point x="319" y="63"/>
      <point x="319" y="168" type="curve" smooth="yes"/>
      <point x="319" y="575" type="line" smooth="yes"/>
      <point x="319" y="675"/>
      <point x="336" y="747"/>
      <point x="423" y="747" type="curve" smooth="yes"/>
      <point x="487" y="747"/>
      <point x="525" y="707"/>
      <point x="525" y="568" type="curve"/>
      <point x="539" y="568" type="line"/>
      <point x="578" y="689" type="line"/>
      <point x="539" y="744"/>
      <point x="478" y="771"/>
      <point x="422" y="771" type="curve" smooth="yes"/>
      <point x="311" y="771"/>
      <point x="248" y="689"/>
      <point x="248" y="584" type="curve"/>
    </contour>
  </outline>
</glyph>
<glyph name="jdotless" format="2">
  <advance width="292"/>
  <unicode hex="0237"/>
  <outline>
    <contour>
      <point x="1" y="-219" type="curve"/>
      <point x="5" y="-231" type="line"/>
      <point x="121" y="-191"/>
      <point x="200" y="-139"/>
      <point x="200" y="43" type="curve" smooth="yes"/>
      <point x="200" y="511" type="line"/>
      <point x="30" y="470" type="line"/>
      <point x="30" y="454" type="line"/>
      <point x="99" y="470"/>
      <point x="131" y="493"/>
      <point x="131" y="409" type="curve" smooth="yes"/>
      <point x="131" y="-18" type="line" smooth="yes"/>
      <point x="131" y="-98"/>
      <point x="111" y="-169"/>
    </contour>
  </outline>
</glyph>
<glyph name="schwa" format="2">
  <advance width="546"/>
  <unicode hex="0259"/>
  <outline>
    <contour>
      <point x="454" y="185" type="line"/>
      <point x="56" y="185" type="line"/>
      <point x="56" y="74"/>
      <point x="147" y="-11"/>
      <point x="268" y="-11" type="curve" smooth="yes"/>
      <point x="426" y="-11"/>
      <point x="504" y="114"/>
      <point x="504" y="252" type="curve" smooth="yes"/>
      <point x="504" y="411"/>
      <point x="402" y="511"/>
      <point x="271" y="511" type="curve" smooth="yes"/>
      <point x="164" y="511"/>
      <point x="94" y="453"/>
      <point x="47" y="347" type="curve"/>
      <point x="66" y="339" type="line"/>
      <point x="117" y="437"/>
      <point x="190" y="457"/>
      <point x="243" y="457" type="curve" smooth="yes"/>
      <point x="360" y="457"/>
      <point x="437" y="352"/>
      <point x="437" y="208" type="curve" smooth="yes"/>
      <point x="437" y="124"/>
      <point x="395" y="15"/>
      <point x="285" y="15" type="curve" smooth="yes"/>
      <point x="209" y="15"/>
      <point x="149" y="71"/>
      <point x="140" y="166" type="curve"/>
      <point x="454" y="166" type="line"/>
    </contour>
  </outline>
</glyph>
<glyph name="gravecomb" format="2">
  <advance width="287"/>
  <unicode hex="0300"/>
  <anchor x="158" y="500" name="_top"/>
  <anchor x="143" y="760" name="top"/>
  <outline>
    <contour>
      <point x="234" y="561" type="line"/>
      <point x="40" y="685" type="line"/>
      <point x="79" y="734" type="line"/>
      <point x="247" y="576" type="line"/>
    </contour>
  </outline>
</glyph>
<glyph name="circumflexcomb" format="2">
  <advance width="349"/>
  <unicode hex="0302"/>
  <anchor x="173" y="500" name="_top"/>
  <anchor x="173" y="760" name="top"/>
  <outline>
    <contour>
      <point x="40" y="601" type="line"/>
      <point x="169" y="747" type="line"/>
      <point x="180" y="747" type="line"/>
      <point x="309" y="601" type="line"/>
      <point x="297" y="589" type="line"/>
      <point x="174" y="684" type="line"/>
      <point x="54" y="589" type="line"/>
    </contour>
  </outline>
</glyph>
<glyph name="tildecomb" format="2">
  <advance width="362"/>
  <unicode hex="0303"/>
  <anchor x="183" y="500" name="_top"/>
  <anchor x="196" y="760" name="top"/>
  <outline>
    <contour>
      <point x="251" y="616" type="curve" smooth="yes"/>
      <point x="214" y="616"/>
      <point x="133" y="668"/>
      <point x="104" y="668" type="curve" smooth="yes"/>
      <point x="86" y="668"/>
      <point x="72" y="650"/>
      <point x="51" y="623" type="curve"/>
      <point x="40" y="629" type="line"/>
      <point x="71" y="677"/>
      <point x="99" y="714"/>
      <point x="115" y="714" type="curve" smooth="yes"/>
      <point x="148" y="714"/>
      <point x="221" y="664"/>
      <point x="262" y="664" type="curve" smooth="yes"/>
      <point x="275" y="664"/>
      <point x="289" y="677"/>
      <point x="311" y="712" type="curve"/>
      <point x="322" y="706" type="line"/>
      <point x="298" y="657"/>
      <point x="273" y="616"/>
    </contour>
  </outline>
</glyph>
<glyph name="macroncomb" format="2">
  <advance width="351"/>
  <unicode hex="0304"/>
  <anchor x="176" y="500" name="_top"/>
  <anchor x="176" y="675" name="top"/>
  <outline>
    <contour>
      <point x="311" y="675" type="line"/>
      <point x="311" y="635" type="line"/>
      <point x="40" y="635" type="line"/>
      <point x="40" y="675" type="line"/>
    </contour>
  </outline>
</glyph>
<glyph name="brevecomb" format="2">
  <advance width="336"/>
  <unicode hex="0306"/>
  <anchor x="168" y="500" name="_top"/>
  <anchor x="168" y="760" name="top"/>
  <outline>
    <contour>
      <point x="40" y="729" type="curve"/>
      <point x="59" y="729" type="line"/>
      <point x="61" y="682"/>
      <point x="108" y="647"/>
      <point x="168" y="647" type="curve" smooth="yes"/>
      <point x="231" y="647"/>
      <point x="275" y="682"/>
      <point x="277" y="729" type="curve"/>
      <point x="296" y="729" type="line"/>
      <point x="296" y="648"/>
      <point x="246" y="598"/>
      <point x="168" y="598" type="curve" smooth="yes"/>
      <point x="91" y="598"/>
      <point x="39" y="645"/>
    </contour>
  </outline>
</glyph>
<glyph name="dotaccentcomb" format="2">
  <advance width="173"/>
  <unicode hex="0307"/>
  <anchor x="87" y="500" name="_top"/>
  <anchor x="87" y="760" name="top"/>
  <outline>
    <contour>
      <point x="87" y="631" type="curve" smooth="yes"/>
      <point x="61" y="631"/>
      <point x="40" y="651"/>
      <point x="40" y="678" type="curve" smooth="yes"/>
      <point x="40" y="703"/>
      <point x="61" y="724"/>
      <point x="87" y="724" type="curve" smooth="yes"/>
      <point x="111" y="724"/>
      <point x="133" y="703"/>
      <point x="133" y="678" type="curve" smooth="yes"/>
      <point x="133" y="651"/>
      <point x="111" y="631"/>
    </contour>
  </outline>
</glyph>
<glyph name="dieresiscomb" format="2">
  <advance width="351"/>
  <unicode hex="0308"/>
  <anchor x="176" y="500" name="_top"/>
  <anchor x="176" y="760" name="top"/>
  <outline>
    <contour>
      <point x="87" y="631" type="curve" smooth="yes"/>
      <point x="61" y="631"/>
      <point x="40" y="651"/>
      <point x="40" y="678" type="curve" smooth="yes"/>
      <point x="40" y="703"/>
      <point x="61" y="724"/>
      <point x="87" y="724" type="curve" smooth="yes"/>
      <point x="111" y="724"/>
      <point x="133" y="703"/>
      <point x="133" y="678" type="curve" smooth="yes"/>
      <point x="133" y="651"/>
      <point x="111" y="631"/>
    </contour>
    <contour>
      <point x="265" y="631" type="curve" smooth="yes"/>
      <point x="239" y="631"/>
      <point x="218" y="651"/>
      <point x="218" y="678" type="curve" smooth="yes"/>
      <point x="218" y="703"/>
      <point x="239" y="724"/>
      <point x="265" y="724" type="curve" smooth="yes"/>
      <point x="289" y="724"/>
      <point x="311" y="703"/>
      <point x="311" y="678" type="curve" smooth="yes"/>
      <point x="311" y="651"/>
      <point x="289" y="631"/>
    </contour>
  </outline>
</glyph>
<glyph name="ringcomb" format="2">
  <advance width="264"/>
  <unicode hex="030A"/>
  <anchor x="132" y="500" name="_top"/>
  <anchor x="132" y="760" name="top"/>
  <outline>
    <contour>
      <point x="132" y="578" type="curve" smooth="yes"/>
      <point x="180" y="578"/>
      <point x="224" y="617"/>
      <point x="224" y="665" type="curve" smooth="yes"/>
      <point x="224" y="713"/>
      <point x="180" y="751"/>
      <point x="132" y="751" type="curve" smooth="yes"/>
      <point x="84" y="751"/>
      <point x="40" y="713"/>
      <point x="40" y="665" type="curve" smooth="yes"/>
      <point x="40" y="617"/>
      <point x="84" y="578"/>
    </contour>
    <contour>
      <point x="132" y="603" type="curve" smooth="yes"/>
      <point x="99" y="603"/>
      <point x="83" y="629"/>
      <point x="83" y="665" type="curve" smooth="yes"/>
      <point x="83" y="698"/>
      <point x="98" y="727"/>
      <point x="132" y="727" type="curve" smooth="yes"/>
      <point x="166" y="727"/>
      <point x="181" y="698"/>
      <point x="181" y="665" type="curve" smooth="yes"/>
      <point x="181" y="629"/>
      <point x="165" y="603"/>
    </contour>
  </outline>
</glyph>
<glyph name="commaaccentcomb" format="2">
  <advance width="191"/>
  <unicode hex="0326"/>
  <anchor x="97" y="0" name="_bottom"/>
  <anchor x="97" y="-257" name="bottom"/>
  <outline>
    <contour>
      <point x="40" y="-269" type="line"/>
      <point x="93" y="-235"/>
      <point x="116" y="-194"/>
      <point x="118" y="-152" type="curve"/>
      <point x="106" y="-160"/>
      <point x="96" y="-162"/>
      <point x="89" y="-162" type="curve" smooth="yes"/>
      <point x="68" y="-162"/>
      <point x="43" y="-146"/>
      <point x="43" y="-116" type="curve" smooth="yes"/>
      <point x="43" y="-86"/>
      <point x="64" y="-63"/>
      <point x="95" y="-63" type="curve" smooth="yes"/>
      <point x="129" y="-63"/>
      <point x="151" y="-92"/>
      <point x="151" y="-131" type="curve" smooth="yes"/>
      <point x="151" y="-182"/>
      <point x="121" y="-240"/>
      <point x="47" y="-279" type="curve"/>
    </contour>
  </outline>
</glyph>
<glyph name="cedillacomb" format="2">
  <advance width="255"/>
  <unicode hex="0327"/>
  <anchor x="101" y="0" name="_bottom"/>
  <anchor x="110" y="-230" name="bottom"/>
  <outline>
    <contour>
      <point x="96" y="13" type="line"/>
      <point x="42" y="-101" type="line"/>
      <point x="53" y="-109" type="line"/>
      <point x="70" y="-93"/>
      <point x="93" y="-79"/>
      <point x="114" y="-79" type="curve" smooth="yes"/>
      <point x="142" y="-79"/>
      <point x="166" y="-98"/>
      <point x="166" y="-136" type="curve" smooth="yes"/>
      <point x="166" y="-185"/>
      <point x="129" y="-209"/>
      <point x="40" y="-225" type="curve"/>
      <point x="43" y="-243" type="line"/>
      <point x="158" y="-233"/>
      <point x="215" y="-180"/>
      <point x="215" y="-125" type="curve" smooth="yes"/>
      <point x="215" y="-80"/>
      <point x="183" y="-52"/>
      <point x="135" y="-52" type="curve" smooth="yes"/>
      <point x="121" y="-52"/>
      <point x="106" y="-56"/>
      <point x="87" y="-64" type="curve"/>
      <point x="125" y="13" type="line"/>
    </contour>
  </outline>
</glyph>
<glyph name="ogonekcomb" format="2">
  <advance width="271"/>
  <unicode hex="0328"/>
  <anchor x="148" y="0" name="_ogonek"/>
  <outline>
    <contour>
      <point x="126" y="1" type="line"/>
      <point x="91" y="-28"/>
      <point x="40" y="-54"/>
      <point x="40" y="-113" type="curve" smooth="yes"/>
      <point x="40" y="-163"/>
      <point x="80" y="-199"/>
      <point x="131" y="-199" type="curve" smooth="yes"/>
      <point x="179" y="-199"/>
      <point x="211" y="-163"/>
      <point x="231" y="-136" type="curve"/>
      <point x="220" y="-127" type="line"/>
      <point x="202" y="-148"/>
      <point x="177" y="-161"/>
      <point x="152" y="-161" type="curve" smooth="yes"/>
      <point x="122" y="-161"/>
      <point x="88" y="-141"/>
      <point x="88" y="-97" type="curve" smooth="yes"/>
      <point x="88" y="-59"/>
      <point x="111" y="-40"/>
      <point x="148" y="0" type="curve"/>
    </contour>
  </outline>
</glyph>
<glyph name="Germandbls" format="2">
  <advance width="669"/>
  <unicode hex="1E9E"/>
  <outline>
    <contour>
      <point x="200" y="0" type="line"/>
      <point x="200" y="700" type="line"/>
      <point x="22" y="700" type="line"/>
      <point x="22" y="686" type="line"/>
      <point x="77" y="684"/>
      <point x="123" y="694"/>
      <point x="123" y="640" type="curve" smooth="yes"/>
      <point x="123" y="65" type="line" smooth="yes"/>
      <point x="123" y="7"/>
      <point x="77" y="16"/>
      <point x="22" y="14" type="curve"/>
      <point x="22" y="0" type="line"/>
    </contour>
    <contour>
      <point x="295" y="361" type="line"/>
      <point x="332" y="378"/>
      <point x="379" y="384"/>
      <point x="401" y="384" type="curve" smooth="yes"/>
      <point x="505" y="384"/>
      <point x="574" y="320"/>
      <point x="574" y="191" type="curve" smooth="yes"/>
      <point x="574" y="75"/>
      <point x="511" y="9"/>
      <point x="438" y="8" type="curve" smooth="yes"/>
      <point x="366" y="7"/>
      <point x="300" y="69"/>
      <point x="301" y="199" type="curve"/>
      <point x="287" y="199" type="line"/>
      <point x="262" y="59" type="line"/>
      <point x="283" y="43"/>
      <point x="347" y="-11"/>
      <point x="441" y="-11" type="curve" smooth="yes"/>
      <point x="553" y="-11"/>
      <point x="665" y="56"/>
      <point x="665" y="202" type="curve" smooth="yes"/>
      <point x="665" y="361"/>
      <point x="543" y="407"/>
      <point x="451" y="407" type="curve" smooth="yes"/>
      <point x="423" y="407"/>
      <point x="378" y="403"/>
      <point x="369" y="394" type="curve"/>
      <point x="379" y="391" type="line"/>
      <point x="628" y="686" type="line"/>
      <point x="628" y="700" type="line"/>
      <point x="158" y="700" type="line"/>
      <point x="158" y="681" type="line"/>
      <point x="532" y="681" type="line"/>
      <point x="294" y="401" type="line"/>
      <point x="294" y="362" type="line"/>
    </contour>
  </outline>
</glyph>
<glyph name="endash" format="2">
  <advance width="593"/>
  <unicode hex="2013"/>
  <outline>
    <contour>
      <point x="0" y="267" type="line"/>
      <point x="0" y="233" type="line"/>
      <point x="593" y="233" type="line"/>
      <point x="593" y="267" type="line"/>
    </contour>
  </outline>
</glyph>
<glyph name="emdash" format="2">
  <advance width="947"/>
  <unicode hex="2014"/>
  <outline>
    <contour>
      <point x="0" y="267" type="line"/>
      <point x="0" y="233" type="line"/>
      <point x="947" y="233" type="line"/>
      <point x="947" y="267" type="line"/>
    </contour>
  </outline>
</glyph>
<glyph name="quotesinglbase" format="2">
  <advance width="172"/>
  <unicode hex="201A"/>
  <outline>
    <contour>
      <point x="43" y="-148" type="line"/>
      <point x="105" y="-100"/>
      <point x="120" y="-39"/>
      <point x="121" y="-2" type="curve"/>
      <point x="112" y="-10"/>
      <point x="101" y="-11"/>
      <point x="93" y="-11" type="curve" smooth="yes"/>
      <point x="69" y="-11"/>
      <point x="45" y="6"/>
      <point x="45" y="39" type="curve" smooth="yes"/>
      <point x="45" y="64"/>
      <point x="64" y="88"/>
      <point x="97" y="88" type="curve" smooth="yes"/>
      <point x="131" y="88"/>
      <point x="152" y="59"/>
      <point x="152" y="11" type="curve" smooth="yes"/>
      <point x="152" y="-44"/>
      <point x="118" y="-114"/>
      <point x="52" y="-158" type="curve"/>
    </contour>
  </outline>
</glyph>
<glyph name="dagger" format="2">
  <advance width="500"/>
  <unicode hex="2020"/>
  <outline>
    <contour>
      <point x="133" y="0" type="line"/>
      <point x="367" y="0" type="line"/>
      <point x="367" y="14" type="line"/>
      <point x="312" y="16"/>
      <point x="274" y="10"/>
      <point x="275" y="58" type="curve" smooth="yes"/>
      <point x="285" y="705" type="line" smooth="yes"/>
      <point x="286" y="753"/>
      <point x="332" y="744"/>
      <point x="387" y="746" type="curve"/>
      <point x="387" y="760" type="line"/>
      <point x="113" y="760" type="line"/>
      <point x="113" y="746" type="line"/>
      <point x="168" y="744"/>
      <point x="214" y="753"/>
      <point x="215" y="705" type="curve" smooth="yes"/>
      <point x="225" y="58" type="line" smooth="yes"/>
      <point x="226" y="10"/>
      <point x="188" y="16"/>
      <point x="133" y="14" type="curve"/>
    </contour>
    <contour>
      <point x="70" y="667" type="line"/>
      <point x="70" y="421" type="line"/>
      <point x="84" y="421" type="line"/>
      <point x="86" y="476"/>
      <point x="80" y="519"/>
      <point x="128" y="523" type="curve" smooth="yes"/>
      <point x="250" y="533" type="line"/>
      <point x="375" y="523" type="line" smooth="yes"/>
      <point x="423" y="519"/>
      <point x="414" y="476"/>
      <point x="416" y="421" type="curve"/>
      <point x="430" y="421" type="line"/>
      <point x="430" y="667" type="line"/>
      <point x="416" y="667" type="line"/>
      <point x="414" y="612"/>
      <point x="423" y="569"/>
      <point x="375" y="565" type="curve" smooth="yes"/>
      <point x="250" y="555" type="line"/>
      <point x="128" y="565" type="line" smooth="yes"/>
      <point x="80" y="569"/>
      <point x="86" y="612"/>
      <point x="84" y="667" type="curve"/>
    </contour>
  </outline>
</glyph>
<glyph name="daggerdbl" format="2">
  <advance width="480"/>
  <unicode hex="2021"/>
  <outline>
    <contour>
      <point x="123" y="0" type="line"/>
      <point x="357" y="0" type="line"/>
      <point x="357" y="14" type="line"/>
      <point x="302" y="16"/>
      <point x="264" y="10"/>
      <point x="265" y="58" type="curve" smooth="yes"/>
      <point x="275" y="705" type="line" smooth="yes"/>
      <point x="276" y="753"/>
      <point x="322" y="744"/>
      <point x="377" y="746" type="curve"/>
      <point x="377" y="760" type="line"/>
      <point x="103" y="760" type="line"/>
      <point x="103" y="746" type="line"/>
      <point x="158" y="744"/>
      <point x="204" y="753"/>
      <point x="205" y="705" type="curve" smooth="yes"/>
      <point x="215" y="58" type="line" smooth="yes"/>
      <point x="216" y="10"/>
      <point x="178" y="16"/>
      <point x="123" y="14" type="curve"/>
    </contour>
    <contour>
      <point x="60" y="687" type="line"/>
      <point x="60" y="441" type="line"/>
      <point x="74" y="441" type="line"/>
      <point x="76" y="496"/>
      <point x="70" y="539"/>
      <point x="118" y="543" type="curve" smooth="yes"/>
      <point x="240" y="553" type="line"/>
      <point x="365" y="543" type="line" smooth="yes"/>
      <point x="413" y="539"/>
      <point x="404" y="496"/>
      <point x="406" y="441" type="curve"/>
      <point x="420" y="441" type="line"/>
      <point x="420" y="687" type="line"/>
      <point x="406" y="687" type="line"/>
      <point x="404" y="632"/>
      <point x="413" y="589"/>
      <point x="365" y="585" type="curve" smooth="yes"/>
      <point x="240" y="575" type="line"/>
      <point x="118" y="585" type="line" smooth="yes"/>
      <point x="70" y="589"/>
      <point x="76" y="632"/>
      <point x="74" y="687" type="curve"/>
    </contour>
    <contour>
      <point x="60" y="374" type="line"/>
      <point x="60" y="128" type="line"/>
      <point x="74" y="128" type="line"/>
      <point x="76" y="183"/>
      <point x="70" y="226"/>
      <point x="118" y="230" type="curve" smooth="yes"/>
      <point x="240" y="240" type="line"/>
      <point x="365" y="230" type="line" smooth="yes"/>
      <point x="413" y="226"/>
      <point x="404" y="183"/>
      <point x="406" y="128" type="curve"/>
      <point x="420" y="128" type="line"/>
      <point x="420" y="374" type="line"/>
      <point x="406" y="374" type="line"/>
      <point x="404" y="319"/>
      <point x="413" y="276"/>
      <point x="365" y="272" type="curve" smooth="yes"/>
      <point x="240" y="262" type="line"/>
      <point x="118" y="272" type="line" smooth="yes"/>
      <point x="70" y="276"/>
      <point x="76" y="319"/>
      <point x="74" y="374" type="curve"/>
    </contour>
  </outline>
</glyph>
<glyph name="bullet" format="2">
  <advance width="410"/>
  <unicode hex="2022"/>
  <outline>
    <contour>
      <point x="207" y="150" type="curve" smooth="yes"/>
      <point x="146" y="150"/>
      <point x="90" y="197"/>
      <point x="90" y="267" type="curve" smooth="yes"/>
      <point x="90" y="327"/>
      <point x="139" y="380"/>
      <point x="207" y="380" type="curve" smooth="yes"/>
      <point x="266" y="380"/>
      <point x="320" y="334"/>
      <point x="320" y="267" type="curve" smooth="yes"/>
      <point x="320" y="200"/>
      <point x="269" y="150"/>
    </contour>
  </outline>
</glyph>
<glyph name="perthousand" format="2">
  <advance width="1007"/>
  <unicode hex="2030"/>
  <outline>
    <component base="percent"/>
    <contour>
      <point x="972" y="149" type="curve" smooth="yes"/>
      <point x="972" y="75"/>
      <point x="918" y="0"/>
      <point x="843" y="0" type="curve" smooth="yes"/>
      <point x="769" y="0"/>
      <point x="714" y="77"/>
      <point x="714" y="149" type="curve" smooth="yes"/>
      <point x="714" y="222"/>
      <point x="769" y="299"/>
      <point x="843" y="299" type="curve" smooth="yes"/>
      <point x="918" y="299"/>
      <point x="972" y="220"/>
    </contour>
    <contour>
      <point x="843" y="269" type="curve" smooth="yes"/>
      <point x="794" y="269"/>
      <point x="766" y="214"/>
      <point x="766" y="149" type="curve" smooth="yes"/>
      <point x="766" y="96"/>
      <point x="794" y="30"/>
      <point x="843" y="30" type="curve" smooth="yes"/>
      <point x="895" y="30"/>
      <point x="920" y="81"/>
      <point x="920" y="149" type="curve" smooth="yes"/>
      <point x="920" y="202"/>
      <point x="895" y="269"/>
    </contour>
  </outline>
</glyph>
<glyph name="guilsinglleft" format="2">
  <advance width="366"/>
  <unicode hex="2039"/>
  <outline>
    <contour>
      <point x="106" y="254" type="curve"/>
      <point x="170" y="314"/>
      <point x="266" y="424"/>
      <point x="306" y="495" type="curve"/>
      <point x="292" y="505" type="line"/>
      <point x="206" y="416"/>
      <point x="115" y="332"/>
      <point x="0" y="257" type="curve"/>
      <point x="0" y="244" type="line"/>
      <point x="115" y="173"/>
      <point x="206" y="84"/>
      <point x="292" y="-5" type="curve"/>
      <point x="306" y="7" type="line"/>
      <point x="266" y="79"/>
      <point x="170" y="195"/>
    </contour>
  </outline>
</glyph>
<glyph name="fraction" format="2">
  <advance width="560"/>
  <unicode hex="2044"/>
  <outline>
    <contour>
      <point x="51" y="0" type="line"/>
      <point x="550" y="700" type="line"/>
      <point x="509" y="700" type="line"/>
      <point x="10" y="0" type="line"/>
    </contour>
  </outline>
</glyph>
<glyph name="zerosuperior" format="2">
  <advance width="283"/>
  <unicode hex="2070"/>
  <outline>
    <contour>
      <point x="271" y="404"/>
      <point x="210" y="319"/>
      <point x="128" y="319" type="curve" smooth="yes"/>
      <point x="46" y="319"/>
      <point x="-15" y="404"/>
      <point x="-15" y="516" type="curve" smooth="yes"/>
      <point x="-15" y="628"/>
      <point x="46" y="713"/>
      <point x="128" y="713" type="curve" smooth="yes"/>
      <point x="210" y="713"/>
      <point x="271" y="627"/>
      <point x="271" y="516" type="curve" smooth="yes"/>
    </contour>
    <contour>
      <point x="128" y="692" type="curve" smooth="yes"/>
      <point x="71" y="692"/>
      <point x="38" y="623"/>
      <point x="38" y="516" type="curve" smooth="yes"/>
      <point x="38" y="409"/>
      <point x="71" y="340"/>
      <point x="128" y="340" type="curve" smooth="yes"/>
      <point x="185" y="340"/>
      <point x="218" y="409"/>
      <point x="218" y="516" type="curve" smooth="yes"/>
      <point x="218" y="623"/>
      <point x="185" y="692"/>
    </contour>
  </outline>
</glyph>
<glyph name="foursuperior" format="2">
  <advance width="383"/>
  <unicode hex="2074"/>
  <outline>
    <contour>
      <point x="26" y="419" type="line"/>
      <point x="26" y="459" type="line"/>
      <point x="244" y="701" type="line"/>
      <point x="268" y="701" type="line"/>
      <point x="268" y="457" type="line"/>
      <point x="324" y="457" type="line"/>
      <point x="324" y="419" type="line"/>
      <point x="268" y="419" type="line"/>
      <point x="268" y="370" type="line" smooth="yes"/>
      <point x="268" y="345"/>
      <point x="285" y="345"/>
      <point x="325" y="343" type="curve"/>
      <point x="325" y="323" type="line"/>
      <point x="161" y="323" type="line"/>
      <point x="161" y="343" type="line"/>
      <point x="197" y="345"/>
      <point x="217" y="345"/>
      <point x="217" y="370" type="curve" smooth="yes"/>
      <point x="217" y="419" type="line"/>
    </contour>
    <contour>
      <point x="58" y="457" type="line"/>
      <point x="217" y="457" type="line"/>
      <point x="219" y="633" type="line"/>
    </contour>
  </outline>
</glyph>
<glyph name="euro" format="2">
  <advance width="753"/>
  <unicode hex="20AC"/>
  <outline>
    <contour>
      <point x="450" y="398" type="line"/>
      <point x="46" y="397" type="line"/>
      <point x="46" y="368" type="line"/>
      <point x="441" y="368" type="line"/>
    </contour>
    <contour>
      <point x="449" y="302" type="line"/>
      <point x="45" y="301" type="line"/>
      <point x="45" y="272" type="line"/>
      <point x="440" y="272" type="line"/>
    </contour>
    <contour>
      <point x="682" y="641" type="line"/>
      <point x="609" y="680"/>
      <point x="540" y="706"/>
      <point x="457" y="706" type="curve" smooth="yes"/>
      <point x="227" y="706"/>
      <point x="128" y="532"/>
      <point x="128" y="340" type="curve" smooth="yes"/>
      <point x="128" y="166"/>
      <point x="233" y="-5"/>
      <point x="440" y="-5" type="curve" smooth="yes"/>
      <point x="602" y="-5"/>
      <point x="687" y="133"/>
      <point x="708" y="242" type="curve"/>
      <point x="686" y="242" type="line"/>
      <point x="656" y="146"/>
      <point x="600" y="49"/>
      <point x="476" y="49" type="curve" smooth="yes"/>
      <point x="312" y="49"/>
      <point x="208" y="190"/>
      <point x="208" y="386" type="curve" smooth="yes"/>
      <point x="208" y="496"/>
      <point x="254" y="681"/>
      <point x="451" y="681" type="curve" smooth="yes"/>
      <point x="579" y="681"/>
      <point x="637" y="578"/>
      <point x="663" y="465" type="curve"/>
      <point x="680" y="465" type="line"/>
    </contour>
  </outline>
</glyph>
